<mxfile host="65bd71144e">
    <diagram name="Page-1" id="cc1-t9Lds0QzYOD9VFEF">
        <mxGraphModel dx="1929" dy="779" grid="1" gridSize="10" guides="1" tooltips="1" connect="1" arrows="1" fold="1" page="1" pageScale="1" pageWidth="850" pageHeight="1100" math="0" shadow="0">
            <root>
                <mxCell id="0"/>
                <mxCell id="1" parent="0"/>
                <mxCell id="RFVsDfMTFyBvrJDYn3Be-1" value="Laser" style="swimlane;fontStyle=1;align=center;verticalAlign=top;childLayout=stackLayout;horizontal=1;startSize=26;horizontalStack=0;resizeParent=1;resizeParentMax=0;resizeLast=0;collapsible=1;marginBottom=0;whiteSpace=wrap;html=1;" parent="1" vertex="1">
                    <mxGeometry x="-382" y="301" width="180" height="268" as="geometry"/>
                </mxCell>
                <mxCell id="kWr4uf3u0KwMldFB6IhT-4" value="+ TEC:&amp;nbsp;&lt;span style=&quot;font-size: 10px; font-weight: 700; text-align: center;&quot;&gt;LaserComponent&lt;/span&gt;" style="text;strokeColor=none;fillColor=none;align=left;verticalAlign=top;spacingLeft=4;spacingRight=4;overflow=hidden;rotatable=0;points=[[0,0.5],[1,0.5]];portConstraint=eastwest;whiteSpace=wrap;html=1;" parent="RFVsDfMTFyBvrJDYn3Be-1" vertex="1">
                    <mxGeometry y="26" width="180" height="26" as="geometry"/>
                </mxCell>
                <mxCell id="kWr4uf3u0KwMldFB6IhT-128" value="+ diode:&amp;nbsp;&lt;span style=&quot;font-size: 10px; font-weight: 700; text-align: center;&quot;&gt;LaserComponent&lt;/span&gt;" style="text;strokeColor=none;fillColor=none;align=left;verticalAlign=top;spacingLeft=4;spacingRight=4;overflow=hidden;rotatable=0;points=[[0,0.5],[1,0.5]];portConstraint=eastwest;whiteSpace=wrap;html=1;" parent="RFVsDfMTFyBvrJDYn3Be-1" vertex="1">
                    <mxGeometry y="52" width="180" height="26" as="geometry"/>
                </mxCell>
                <mxCell id="RFVsDfMTFyBvrJDYn3Be-10" value="+ mode: MODE" style="text;strokeColor=none;fillColor=none;align=left;verticalAlign=top;spacingLeft=4;spacingRight=4;overflow=hidden;rotatable=0;points=[[0,0.5],[1,0.5]];portConstraint=eastwest;whiteSpace=wrap;html=1;" parent="RFVsDfMTFyBvrJDYn3Be-1" vertex="1">
                    <mxGeometry y="78" width="180" height="26" as="geometry"/>
                </mxCell>
                <mxCell id="RFVsDfMTFyBvrJDYn3Be-3" value="" style="line;strokeWidth=1;fillColor=none;align=left;verticalAlign=middle;spacingTop=-1;spacingLeft=3;spacingRight=3;rotatable=0;labelPosition=right;points=[];portConstraint=eastwest;strokeColor=inherit;" parent="RFVsDfMTFyBvrJDYn3Be-1" vertex="1">
                    <mxGeometry y="104" width="180" height="8" as="geometry"/>
                </mxCell>
                <mxCell id="RFVsDfMTFyBvrJDYn3Be-11" value="+ get_operation_time(): int" style="text;strokeColor=none;fillColor=none;align=left;verticalAlign=top;spacingLeft=4;spacingRight=4;overflow=hidden;rotatable=0;points=[[0,0.5],[1,0.5]];portConstraint=eastwest;whiteSpace=wrap;html=1;" parent="RFVsDfMTFyBvrJDYn3Be-1" vertex="1">
                    <mxGeometry y="112" width="180" height="26" as="geometry"/>
                </mxCell>
                <mxCell id="RFVsDfMTFyBvrJDYn3Be-4" value="+ turn_ON(): void" style="text;strokeColor=none;fillColor=none;align=left;verticalAlign=top;spacingLeft=4;spacingRight=4;overflow=hidden;rotatable=0;points=[[0,0.5],[1,0.5]];portConstraint=eastwest;whiteSpace=wrap;html=1;" parent="RFVsDfMTFyBvrJDYn3Be-1" vertex="1">
                    <mxGeometry y="138" width="180" height="26" as="geometry"/>
                </mxCell>
                <mxCell id="kWr4uf3u0KwMldFB6IhT-127" value="+ turn_OFF(): void" style="text;strokeColor=none;fillColor=none;align=left;verticalAlign=top;spacingLeft=4;spacingRight=4;overflow=hidden;rotatable=0;points=[[0,0.5],[1,0.5]];portConstraint=eastwest;whiteSpace=wrap;html=1;" parent="RFVsDfMTFyBvrJDYn3Be-1" vertex="1">
                    <mxGeometry y="164" width="180" height="26" as="geometry"/>
                </mxCell>
                <mxCell id="RFVsDfMTFyBvrJDYn3Be-12" value="+ trigger_pulse(): void" style="text;strokeColor=none;fillColor=none;align=left;verticalAlign=top;spacingLeft=4;spacingRight=4;overflow=hidden;rotatable=0;points=[[0,0.5],[1,0.5]];portConstraint=eastwest;whiteSpace=wrap;html=1;" parent="RFVsDfMTFyBvrJDYn3Be-1" vertex="1">
                    <mxGeometry y="190" width="180" height="26" as="geometry"/>
                </mxCell>
                <mxCell id="RFVsDfMTFyBvrJDYn3Be-120" value="+ set_mode(Mode): void" style="text;strokeColor=none;fillColor=none;align=left;verticalAlign=top;spacingLeft=4;spacingRight=4;overflow=hidden;rotatable=0;points=[[0,0.5],[1,0.5]];portConstraint=eastwest;whiteSpace=wrap;html=1;" parent="RFVsDfMTFyBvrJDYn3Be-1" vertex="1">
                    <mxGeometry y="216" width="180" height="26" as="geometry"/>
                </mxCell>
                <mxCell id="RFVsDfMTFyBvrJDYn3Be-13" value="+ query(str): str" style="text;strokeColor=none;fillColor=none;align=left;verticalAlign=top;spacingLeft=4;spacingRight=4;overflow=hidden;rotatable=0;points=[[0,0.5],[1,0.5]];portConstraint=eastwest;whiteSpace=wrap;html=1;" parent="RFVsDfMTFyBvrJDYn3Be-1" vertex="1">
                    <mxGeometry y="242" width="180" height="26" as="geometry"/>
                </mxCell>
                <mxCell id="RFVsDfMTFyBvrJDYn3Be-35" value="SweepMode" style="swimlane;fontStyle=1;align=center;verticalAlign=top;childLayout=stackLayout;horizontal=1;startSize=26;horizontalStack=0;resizeParent=1;resizeParentMax=0;resizeLast=0;collapsible=1;marginBottom=0;whiteSpace=wrap;html=1;" parent="1" vertex="1">
                    <mxGeometry x="310" y="680" width="200" height="294" as="geometry"/>
                </mxCell>
                <mxCell id="RFVsDfMTFyBvrJDYn3Be-36" value="+ start_wavelength: float" style="text;strokeColor=none;fillColor=none;align=left;verticalAlign=top;spacingLeft=4;spacingRight=4;overflow=hidden;rotatable=0;points=[[0,0.5],[1,0.5]];portConstraint=eastwest;whiteSpace=wrap;html=1;" parent="RFVsDfMTFyBvrJDYn3Be-35" vertex="1">
                    <mxGeometry y="26" width="200" height="26" as="geometry"/>
                </mxCell>
                <mxCell id="RFVsDfMTFyBvrJDYn3Be-39" value="+ end_wavelength: float" style="text;strokeColor=none;fillColor=none;align=left;verticalAlign=top;spacingLeft=4;spacingRight=4;overflow=hidden;rotatable=0;points=[[0,0.5],[1,0.5]];portConstraint=eastwest;whiteSpace=wrap;html=1;" parent="RFVsDfMTFyBvrJDYn3Be-35" vertex="1">
                    <mxGeometry y="52" width="200" height="26" as="geometry"/>
                </mxCell>
                <mxCell id="kWr4uf3u0KwMldFB6IhT-140" value="+ range: float,float" style="text;strokeColor=none;fillColor=none;align=left;verticalAlign=top;spacingLeft=4;spacingRight=4;overflow=hidden;rotatable=0;points=[[0,0.5],[1,0.5]];portConstraint=eastwest;whiteSpace=wrap;html=1;" parent="RFVsDfMTFyBvrJDYn3Be-35" vertex="1">
                    <mxGeometry y="78" width="200" height="26" as="geometry"/>
                </mxCell>
                <mxCell id="RFVsDfMTFyBvrJDYn3Be-40" value="+ step_size: float" style="text;strokeColor=none;fillColor=none;align=left;verticalAlign=top;spacingLeft=4;spacingRight=4;overflow=hidden;rotatable=0;points=[[0,0.5],[1,0.5]];portConstraint=eastwest;whiteSpace=wrap;html=1;" parent="RFVsDfMTFyBvrJDYn3Be-35" vertex="1">
                    <mxGeometry y="104" width="200" height="26" as="geometry"/>
                </mxCell>
                <mxCell id="RFVsDfMTFyBvrJDYn3Be-43" value="+ interval: float" style="text;strokeColor=none;fillColor=none;align=left;verticalAlign=top;spacingLeft=4;spacingRight=4;overflow=hidden;rotatable=0;points=[[0,0.5],[1,0.5]];portConstraint=eastwest;whiteSpace=wrap;html=1;" parent="RFVsDfMTFyBvrJDYn3Be-35" vertex="1">
                    <mxGeometry y="130" width="200" height="26" as="geometry"/>
                </mxCell>
                <mxCell id="RFVsDfMTFyBvrJDYn3Be-37" value="" style="line;strokeWidth=1;fillColor=none;align=left;verticalAlign=middle;spacingTop=-1;spacingLeft=3;spacingRight=3;rotatable=0;labelPosition=right;points=[];portConstraint=eastwest;strokeColor=inherit;" parent="RFVsDfMTFyBvrJDYn3Be-35" vertex="1">
                    <mxGeometry y="156" width="200" height="8" as="geometry"/>
                </mxCell>
                <mxCell id="RFVsDfMTFyBvrJDYn3Be-38" value="+ start(): void" style="text;strokeColor=none;fillColor=none;align=left;verticalAlign=top;spacingLeft=4;spacingRight=4;overflow=hidden;rotatable=0;points=[[0,0.5],[1,0.5]];portConstraint=eastwest;whiteSpace=wrap;html=1;" parent="RFVsDfMTFyBvrJDYn3Be-35" vertex="1">
                    <mxGeometry y="164" width="200" height="26" as="geometry"/>
                </mxCell>
                <mxCell id="kWr4uf3u0KwMldFB6IhT-135" value="+ stop(): void" style="text;strokeColor=none;fillColor=none;align=left;verticalAlign=top;spacingLeft=4;spacingRight=4;overflow=hidden;rotatable=0;points=[[0,0.5],[1,0.5]];portConstraint=eastwest;whiteSpace=wrap;html=1;" parent="RFVsDfMTFyBvrJDYn3Be-35" vertex="1">
                    <mxGeometry y="190" width="200" height="26" as="geometry"/>
                </mxCell>
                <mxCell id="kWr4uf3u0KwMldFB6IhT-134" value="+ resume(): void" style="text;strokeColor=none;fillColor=none;align=left;verticalAlign=top;spacingLeft=4;spacingRight=4;overflow=hidden;rotatable=0;points=[[0,0.5],[1,0.5]];portConstraint=eastwest;whiteSpace=wrap;html=1;" parent="RFVsDfMTFyBvrJDYn3Be-35" vertex="1">
                    <mxGeometry y="216" width="200" height="26" as="geometry"/>
                </mxCell>
                <mxCell id="RFVsDfMTFyBvrJDYn3Be-44" value="+ get_total_time(int): void" style="text;strokeColor=none;fillColor=none;align=left;verticalAlign=top;spacingLeft=4;spacingRight=4;overflow=hidden;rotatable=0;points=[[0,0.5],[1,0.5]];portConstraint=eastwest;whiteSpace=wrap;html=1;" parent="RFVsDfMTFyBvrJDYn3Be-35" vertex="1">
                    <mxGeometry y="242" width="200" height="26" as="geometry"/>
                </mxCell>
                <mxCell id="RFVsDfMTFyBvrJDYn3Be-45" value="+ get_points(): list(float)" style="text;strokeColor=none;fillColor=none;align=left;verticalAlign=top;spacingLeft=4;spacingRight=4;overflow=hidden;rotatable=0;points=[[0,0.5],[1,0.5]];portConstraint=eastwest;whiteSpace=wrap;html=1;" parent="RFVsDfMTFyBvrJDYn3Be-35" vertex="1">
                    <mxGeometry y="268" width="200" height="26" as="geometry"/>
                </mxCell>
                <mxCell id="RFVsDfMTFyBvrJDYn3Be-47" value="&lt;div&gt;&amp;lt;&amp;lt; private &amp;gt;&amp;gt;&lt;/div&gt;&lt;div&gt;Calibrated&lt;/div&gt;" style="swimlane;fontStyle=1;align=center;verticalAlign=top;childLayout=stackLayout;horizontal=1;startSize=40;horizontalStack=0;resizeParent=1;resizeParentMax=0;resizeLast=0;collapsible=1;marginBottom=0;whiteSpace=wrap;html=1;" parent="1" vertex="1">
                    <mxGeometry x="97" y="354" width="200" height="256" as="geometry"/>
                </mxCell>
                <mxCell id="RFVsDfMTFyBvrJDYn3Be-60" value="# calibration_table" style="text;strokeColor=none;fillColor=none;align=left;verticalAlign=top;spacingLeft=4;spacingRight=4;overflow=hidden;rotatable=0;points=[[0,0.5],[1,0.5]];portConstraint=eastwest;whiteSpace=wrap;html=1;" parent="RFVsDfMTFyBvrJDYn3Be-47" vertex="1">
                    <mxGeometry y="40" width="200" height="26" as="geometry"/>
                </mxCell>
                <mxCell id="RFVsDfMTFyBvrJDYn3Be-8" value="# default_TEC: float" style="text;strokeColor=none;fillColor=none;align=left;verticalAlign=top;spacingLeft=4;spacingRight=4;overflow=hidden;rotatable=0;points=[[0,0.5],[1,0.5]];portConstraint=eastwest;whiteSpace=wrap;html=1;" parent="RFVsDfMTFyBvrJDYn3Be-47" vertex="1">
                    <mxGeometry y="66" width="200" height="26" as="geometry"/>
                </mxCell>
                <mxCell id="FqBywkGM-iilhfQzkjr5-2" value="# default_current: float" style="text;strokeColor=none;fillColor=none;align=left;verticalAlign=top;spacingLeft=4;spacingRight=4;overflow=hidden;rotatable=0;points=[[0,0.5],[1,0.5]];portConstraint=eastwest;whiteSpace=wrap;html=1;" parent="RFVsDfMTFyBvrJDYn3Be-47" vertex="1">
                    <mxGeometry y="92" width="200" height="26" as="geometry"/>
                </mxCell>
                <mxCell id="FqBywkGM-iilhfQzkjr5-1" value="# antihyst_params: list(float)" style="text;strokeColor=none;fillColor=none;align=left;verticalAlign=top;spacingLeft=4;spacingRight=4;overflow=hidden;rotatable=0;points=[[0,0.5],[1,0.5]];portConstraint=eastwest;whiteSpace=wrap;html=1;" parent="RFVsDfMTFyBvrJDYn3Be-47" vertex="1">
                    <mxGeometry y="118" width="200" height="26" as="geometry"/>
                </mxCell>
                <mxCell id="kWr4uf3u0KwMldFB6IhT-137" value="+ min_wavelength: float" style="text;strokeColor=none;fillColor=none;align=left;verticalAlign=top;spacingLeft=4;spacingRight=4;overflow=hidden;rotatable=0;points=[[0,0.5],[1,0.5]];portConstraint=eastwest;whiteSpace=wrap;html=1;" parent="RFVsDfMTFyBvrJDYn3Be-47" vertex="1">
                    <mxGeometry y="144" width="200" height="26" as="geometry"/>
                </mxCell>
                <mxCell id="kWr4uf3u0KwMldFB6IhT-139" value="+ max_wavelength: float" style="text;strokeColor=none;fillColor=none;align=left;verticalAlign=top;spacingLeft=4;spacingRight=4;overflow=hidden;rotatable=0;points=[[0,0.5],[1,0.5]];portConstraint=eastwest;whiteSpace=wrap;html=1;" parent="RFVsDfMTFyBvrJDYn3Be-47" vertex="1">
                    <mxGeometry y="170" width="200" height="26" as="geometry"/>
                </mxCell>
                <mxCell id="RFVsDfMTFyBvrJDYn3Be-52" value="" style="line;strokeWidth=1;fillColor=none;align=left;verticalAlign=middle;spacingTop=-1;spacingLeft=3;spacingRight=3;rotatable=0;labelPosition=right;points=[];portConstraint=eastwest;strokeColor=inherit;" parent="RFVsDfMTFyBvrJDYn3Be-47" vertex="1">
                    <mxGeometry y="196" width="200" height="8" as="geometry"/>
                </mxCell>
                <mxCell id="RFVsDfMTFyBvrJDYn3Be-54" value="+ toggle_autoTrig(bool): void" style="text;strokeColor=none;fillColor=none;align=left;verticalAlign=top;spacingLeft=4;spacingRight=4;overflow=hidden;rotatable=0;points=[[0,0.5],[1,0.5]];portConstraint=eastwest;whiteSpace=wrap;html=1;" parent="RFVsDfMTFyBvrJDYn3Be-47" vertex="1">
                    <mxGeometry y="204" width="200" height="26" as="geometry"/>
                </mxCell>
                <mxCell id="RFVsDfMTFyBvrJDYn3Be-55" value="+ get_wl(): float" style="text;strokeColor=none;fillColor=none;align=left;verticalAlign=top;spacingLeft=4;spacingRight=4;overflow=hidden;rotatable=0;points=[[0,0.5],[1,0.5]];portConstraint=eastwest;whiteSpace=wrap;html=1;" parent="RFVsDfMTFyBvrJDYn3Be-47" vertex="1">
                    <mxGeometry y="230" width="200" height="26" as="geometry"/>
                </mxCell>
                <mxCell id="RFVsDfMTFyBvrJDYn3Be-61" value="SteadyMode" style="swimlane;fontStyle=1;align=center;verticalAlign=top;childLayout=stackLayout;horizontal=1;startSize=26;horizontalStack=0;resizeParent=1;resizeParentMax=0;resizeLast=0;collapsible=1;marginBottom=0;whiteSpace=wrap;html=1;" parent="1" vertex="1">
                    <mxGeometry x="-30" y="682" width="240" height="138" as="geometry"/>
                </mxCell>
                <mxCell id="kWr4uf3u0KwMldFB6IhT-99" value="# wl_change_method: WLChangeMethod" style="text;strokeColor=none;fillColor=none;align=left;verticalAlign=top;spacingLeft=4;spacingRight=4;overflow=hidden;rotatable=0;points=[[0,0.5],[1,0.5]];portConstraint=eastwest;whiteSpace=wrap;html=1;" parent="RFVsDfMTFyBvrJDYn3Be-61" vertex="1">
                    <mxGeometry y="26" width="240" height="26" as="geometry"/>
                </mxCell>
                <mxCell id="RFVsDfMTFyBvrJDYn3Be-63" value="" style="line;strokeWidth=1;fillColor=none;align=left;verticalAlign=middle;spacingTop=-1;spacingLeft=3;spacingRight=3;rotatable=0;labelPosition=right;points=[];portConstraint=eastwest;strokeColor=inherit;" parent="RFVsDfMTFyBvrJDYn3Be-61" vertex="1">
                    <mxGeometry y="52" width="240" height="8" as="geometry"/>
                </mxCell>
                <mxCell id="RFVsDfMTFyBvrJDYn3Be-64" value="+ set_wl(float): void" style="text;strokeColor=none;fillColor=none;align=left;verticalAlign=top;spacingLeft=4;spacingRight=4;overflow=hidden;rotatable=0;points=[[0,0.5],[1,0.5]];portConstraint=eastwest;whiteSpace=wrap;html=1;" parent="RFVsDfMTFyBvrJDYn3Be-61" vertex="1">
                    <mxGeometry y="60" width="240" height="26" as="geometry"/>
                </mxCell>
                <mxCell id="RFVsDfMTFyBvrJDYn3Be-53" value="+ toggle_antihyst(bool): void" style="text;strokeColor=none;fillColor=none;align=left;verticalAlign=top;spacingLeft=4;spacingRight=4;overflow=hidden;rotatable=0;points=[[0,0.5],[1,0.5]];portConstraint=eastwest;whiteSpace=wrap;html=1;" parent="RFVsDfMTFyBvrJDYn3Be-61" vertex="1">
                    <mxGeometry y="86" width="240" height="26" as="geometry"/>
                </mxCell>
                <mxCell id="RFVsDfMTFyBvrJDYn3Be-65" value="+ set_wl_relative(float): void" style="text;strokeColor=none;fillColor=none;align=left;verticalAlign=top;spacingLeft=4;spacingRight=4;overflow=hidden;rotatable=0;points=[[0,0.5],[1,0.5]];portConstraint=eastwest;whiteSpace=wrap;html=1;" parent="RFVsDfMTFyBvrJDYn3Be-61" vertex="1">
                    <mxGeometry y="112" width="240" height="26" as="geometry"/>
                </mxCell>
                <mxCell id="RFVsDfMTFyBvrJDYn3Be-73" value="" style="endArrow=block;dashed=1;endFill=0;endSize=12;html=1;rounded=0;" parent="1" source="kWr4uf3u0KwMldFB6IhT-32" target="RFVsDfMTFyBvrJDYn3Be-103" edge="1">
                    <mxGeometry width="160" relative="1" as="geometry">
                        <mxPoint x="-600" y="620" as="sourcePoint"/>
                        <mxPoint x="-120" y="850" as="targetPoint"/>
                        <Array as="points">
                            <mxPoint x="-560" y="620"/>
                        </Array>
                    </mxGeometry>
                </mxCell>
                <mxCell id="RFVsDfMTFyBvrJDYn3Be-74" value="" style="endArrow=block;dashed=1;endFill=0;endSize=12;html=1;rounded=0;" parent="1" source="kWr4uf3u0KwMldFB6IhT-41" target="RFVsDfMTFyBvrJDYn3Be-103" edge="1">
                    <mxGeometry width="160" relative="1" as="geometry">
                        <mxPoint x="-529.0000000000002" y="620" as="sourcePoint"/>
                        <mxPoint x="-150" y="820" as="targetPoint"/>
                        <Array as="points">
                            <mxPoint x="-560" y="620"/>
                        </Array>
                    </mxGeometry>
                </mxCell>
                <mxCell id="RFVsDfMTFyBvrJDYn3Be-76" value="ManualMode" style="swimlane;fontStyle=1;align=center;verticalAlign=top;childLayout=stackLayout;horizontal=1;startSize=26;horizontalStack=0;resizeParent=1;resizeParentMax=0;resizeLast=0;collapsible=1;marginBottom=0;whiteSpace=wrap;html=1;" parent="1" vertex="1">
                    <mxGeometry x="-337" y="730" width="290" height="190" as="geometry"/>
                </mxCell>
                <mxCell id="kWr4uf3u0KwMldFB6IhT-44" value="+ phase_section:&amp;nbsp;&lt;span style=&quot;font-size: 10px; font-weight: 700; text-align: center;&quot;&gt;LaserComponent&lt;/span&gt;" style="text;strokeColor=none;fillColor=none;align=left;verticalAlign=top;spacingLeft=4;spacingRight=4;overflow=hidden;rotatable=0;points=[[0,0.5],[1,0.5]];portConstraint=eastwest;whiteSpace=wrap;html=1;" parent="RFVsDfMTFyBvrJDYn3Be-76" vertex="1">
                    <mxGeometry y="26" width="290" height="26" as="geometry"/>
                </mxCell>
                <mxCell id="kWr4uf3u0KwMldFB6IhT-45" value="+ small_ring:&amp;nbsp;&lt;span style=&quot;font-size: 10px; font-weight: 700; text-align: center;&quot;&gt;LaserComponent&lt;/span&gt;" style="text;strokeColor=none;fillColor=none;align=left;verticalAlign=top;spacingLeft=4;spacingRight=4;overflow=hidden;rotatable=0;points=[[0,0.5],[1,0.5]];portConstraint=eastwest;whiteSpace=wrap;html=1;" parent="RFVsDfMTFyBvrJDYn3Be-76" vertex="1">
                    <mxGeometry y="52" width="290" height="26" as="geometry"/>
                </mxCell>
                <mxCell id="kWr4uf3u0KwMldFB6IhT-46" value="+ large_ring:&amp;nbsp;&lt;span style=&quot;font-size: 10px; font-weight: 700; text-align: center;&quot;&gt;LaserComponent&lt;/span&gt;" style="text;strokeColor=none;fillColor=none;align=left;verticalAlign=top;spacingLeft=4;spacingRight=4;overflow=hidden;rotatable=0;points=[[0,0.5],[1,0.5]];portConstraint=eastwest;whiteSpace=wrap;html=1;" parent="RFVsDfMTFyBvrJDYn3Be-76" vertex="1">
                    <mxGeometry y="78" width="290" height="26" as="geometry"/>
                </mxCell>
                <mxCell id="kWr4uf3u0KwMldFB6IhT-1" value="+ tunable_coupler:&amp;nbsp;&lt;span style=&quot;font-size: 10px; font-weight: 700; text-align: center;&quot;&gt;LaserComponent&lt;/span&gt;" style="text;strokeColor=none;fillColor=none;align=left;verticalAlign=top;spacingLeft=4;spacingRight=4;overflow=hidden;rotatable=0;points=[[0,0.5],[1,0.5]];portConstraint=eastwest;whiteSpace=wrap;html=1;" parent="RFVsDfMTFyBvrJDYn3Be-76" vertex="1">
                    <mxGeometry y="104" width="290" height="26" as="geometry"/>
                </mxCell>
                <mxCell id="kWr4uf3u0KwMldFB6IhT-48" value="+ heaters: list(&lt;span style=&quot;font-size: 10px; font-weight: 700; text-align: center;&quot;&gt;LaserComponent)&lt;/span&gt;" style="text;strokeColor=none;fillColor=none;align=left;verticalAlign=top;spacingLeft=4;spacingRight=4;overflow=hidden;rotatable=0;points=[[0,0.5],[1,0.5]];portConstraint=eastwest;whiteSpace=wrap;html=1;" parent="RFVsDfMTFyBvrJDYn3Be-76" vertex="1">
                    <mxGeometry y="130" width="290" height="26" as="geometry"/>
                </mxCell>
                <mxCell id="RFVsDfMTFyBvrJDYn3Be-81" value="" style="line;strokeWidth=1;fillColor=none;align=left;verticalAlign=middle;spacingTop=-1;spacingLeft=3;spacingRight=3;rotatable=0;labelPosition=right;points=[];portConstraint=eastwest;strokeColor=inherit;" parent="RFVsDfMTFyBvrJDYn3Be-76" vertex="1">
                    <mxGeometry y="156" width="290" height="8" as="geometry"/>
                </mxCell>
                <mxCell id="kWr4uf3u0KwMldFB6IhT-47" value="+ set_heater_value(int | HeaterChannel, float): void" style="text;strokeColor=none;fillColor=none;align=left;verticalAlign=top;spacingLeft=4;spacingRight=4;overflow=hidden;rotatable=0;points=[[0,0.5],[1,0.5]];portConstraint=eastwest;whiteSpace=wrap;html=1;" parent="RFVsDfMTFyBvrJDYn3Be-76" vertex="1">
                    <mxGeometry y="164" width="290" height="26" as="geometry"/>
                </mxCell>
                <mxCell id="RFVsDfMTFyBvrJDYn3Be-92" value="Extends" style="endArrow=block;endSize=16;endFill=0;html=1;rounded=0;" parent="1" source="RFVsDfMTFyBvrJDYn3Be-61" target="RFVsDfMTFyBvrJDYn3Be-47" edge="1">
                    <mxGeometry x="-0.2188" y="10" width="160" relative="1" as="geometry">
                        <mxPoint x="160" y="370" as="sourcePoint"/>
                        <mxPoint x="320" y="370" as="targetPoint"/>
                        <Array as="points">
                            <mxPoint x="90" y="670"/>
                            <mxPoint x="197" y="670"/>
                        </Array>
                        <mxPoint as="offset"/>
                    </mxGeometry>
                </mxCell>
                <mxCell id="RFVsDfMTFyBvrJDYn3Be-93" value="Extends" style="endArrow=block;endSize=16;endFill=0;html=1;rounded=0;" parent="1" source="RFVsDfMTFyBvrJDYn3Be-35" target="RFVsDfMTFyBvrJDYn3Be-47" edge="1">
                    <mxGeometry x="-0.1667" y="-10" width="160" relative="1" as="geometry">
                        <mxPoint x="320" y="498" as="sourcePoint"/>
                        <mxPoint x="353" y="450" as="targetPoint"/>
                        <Array as="points">
                            <mxPoint x="410" y="670"/>
                            <mxPoint x="197" y="670"/>
                        </Array>
                        <mxPoint as="offset"/>
                    </mxGeometry>
                </mxCell>
                <mxCell id="RFVsDfMTFyBvrJDYn3Be-95" value="" style="endArrow=block;dashed=1;endFill=0;endSize=12;html=1;rounded=0;" parent="1" source="RFVsDfMTFyBvrJDYn3Be-47" target="kWr4uf3u0KwMldFB6IhT-19" edge="1">
                    <mxGeometry width="160" relative="1" as="geometry">
                        <mxPoint x="-60" y="520" as="sourcePoint"/>
                        <mxPoint x="70" y="320" as="targetPoint"/>
                        <Array as="points">
                            <mxPoint x="200" y="320"/>
                            <mxPoint x="70" y="320"/>
                            <mxPoint x="70" y="520"/>
                            <mxPoint x="-60" y="520"/>
                        </Array>
                    </mxGeometry>
                </mxCell>
                <mxCell id="RFVsDfMTFyBvrJDYn3Be-96" value="" style="endArrow=none;startArrow=none;endFill=0;startFill=0;endSize=8;html=1;verticalAlign=bottom;labelBackgroundColor=none;strokeWidth=3;rounded=0;fontStyle=1" parent="1" source="RFVsDfMTFyBvrJDYn3Be-1" target="kWr4uf3u0KwMldFB6IhT-19" edge="1">
                    <mxGeometry width="160" relative="1" as="geometry">
                        <mxPoint x="-210" y="880" as="sourcePoint"/>
                        <mxPoint x="-20" y="220" as="targetPoint"/>
                        <Array as="points"/>
                    </mxGeometry>
                </mxCell>
                <mxCell id="RFVsDfMTFyBvrJDYn3Be-103" value="&lt;p style=&quot;margin:0px;margin-top:4px;text-align:center;&quot;&gt;&lt;font style=&quot;font-size: 10px;&quot;&gt;&lt;i&gt;&amp;lt;&amp;lt; interface &amp;gt;&amp;gt;&lt;/i&gt;&lt;br&gt;LaserComponent&lt;/font&gt;&lt;/p&gt;" style="swimlane;fontStyle=1;align=center;verticalAlign=top;childLayout=stackLayout;horizontal=1;startSize=52;horizontalStack=0;resizeParent=1;resizeParentMax=0;resizeLast=0;collapsible=1;marginBottom=0;whiteSpace=wrap;html=1;" parent="1" vertex="1">
                    <mxGeometry x="-640" y="300" width="160" height="242" as="geometry"/>
                </mxCell>
                <mxCell id="kWr4uf3u0KwMldFB6IhT-125" value="+ value: float" style="text;strokeColor=none;fillColor=none;align=left;verticalAlign=top;spacingLeft=4;spacingRight=4;overflow=hidden;rotatable=0;points=[[0,0.5],[1,0.5]];portConstraint=eastwest;whiteSpace=wrap;html=1;" parent="RFVsDfMTFyBvrJDYn3Be-103" vertex="1">
                    <mxGeometry y="52" width="160" height="26" as="geometry"/>
                </mxCell>
                <mxCell id="RFVsDfMTFyBvrJDYn3Be-104" value="+ min_value: float" style="text;strokeColor=none;fillColor=none;align=left;verticalAlign=top;spacingLeft=4;spacingRight=4;overflow=hidden;rotatable=0;points=[[0,0.5],[1,0.5]];portConstraint=eastwest;whiteSpace=wrap;html=1;" parent="RFVsDfMTFyBvrJDYn3Be-103" vertex="1">
                    <mxGeometry y="78" width="160" height="26" as="geometry"/>
                </mxCell>
                <mxCell id="RFVsDfMTFyBvrJDYn3Be-110" value="+ max_value: float" style="text;strokeColor=none;fillColor=none;align=left;verticalAlign=top;spacingLeft=4;spacingRight=4;overflow=hidden;rotatable=0;points=[[0,0.5],[1,0.5]];portConstraint=eastwest;whiteSpace=wrap;html=1;" parent="RFVsDfMTFyBvrJDYn3Be-103" vertex="1">
                    <mxGeometry y="104" width="160" height="26" as="geometry"/>
                </mxCell>
                <mxCell id="RFVsDfMTFyBvrJDYn3Be-109" value="+ unit: str" style="text;strokeColor=none;fillColor=none;align=left;verticalAlign=top;spacingLeft=4;spacingRight=4;overflow=hidden;rotatable=0;points=[[0,0.5],[1,0.5]];portConstraint=eastwest;whiteSpace=wrap;html=1;" parent="RFVsDfMTFyBvrJDYn3Be-103" vertex="1">
                    <mxGeometry y="130" width="160" height="26" as="geometry"/>
                </mxCell>
                <mxCell id="RFVsDfMTFyBvrJDYn3Be-105" value="" style="line;strokeWidth=1;fillColor=none;align=left;verticalAlign=middle;spacingTop=-1;spacingLeft=3;spacingRight=3;rotatable=0;labelPosition=right;points=[];portConstraint=eastwest;strokeColor=inherit;" parent="RFVsDfMTFyBvrJDYn3Be-103" vertex="1">
                    <mxGeometry y="156" width="160" height="8" as="geometry"/>
                </mxCell>
                <mxCell id="RFVsDfMTFyBvrJDYn3Be-107" value="+ get_value(): float" style="text;strokeColor=none;fillColor=none;align=left;verticalAlign=top;spacingLeft=4;spacingRight=4;overflow=hidden;rotatable=0;points=[[0,0.5],[1,0.5]];portConstraint=eastwest;whiteSpace=wrap;html=1;" parent="RFVsDfMTFyBvrJDYn3Be-103" vertex="1">
                    <mxGeometry y="164" width="160" height="26" as="geometry"/>
                </mxCell>
                <mxCell id="kWr4uf3u0KwMldFB6IhT-65" value="+ set_value(float): void" style="text;strokeColor=none;fillColor=none;align=left;verticalAlign=top;spacingLeft=4;spacingRight=4;overflow=hidden;rotatable=0;points=[[0,0.5],[1,0.5]];portConstraint=eastwest;whiteSpace=wrap;html=1;" parent="RFVsDfMTFyBvrJDYn3Be-103" vertex="1">
                    <mxGeometry y="190" width="160" height="26" as="geometry"/>
                </mxCell>
                <mxCell id="RFVsDfMTFyBvrJDYn3Be-106" value="+ get_unit(): str" style="text;strokeColor=none;fillColor=none;align=left;verticalAlign=top;spacingLeft=4;spacingRight=4;overflow=hidden;rotatable=0;points=[[0,0.5],[1,0.5]];portConstraint=eastwest;whiteSpace=wrap;html=1;" parent="RFVsDfMTFyBvrJDYn3Be-103" vertex="1">
                    <mxGeometry y="216" width="160" height="26" as="geometry"/>
                </mxCell>
                <mxCell id="RFVsDfMTFyBvrJDYn3Be-118" value="1" style="endArrow=open;html=1;endSize=12;startArrow=diamondThin;startSize=14;startFill=0;edgeStyle=orthogonalEdgeStyle;align=left;verticalAlign=bottom;rounded=0;" parent="1" source="RFVsDfMTFyBvrJDYn3Be-1" target="RFVsDfMTFyBvrJDYn3Be-103" edge="1">
                    <mxGeometry x="-0.6362" y="21" relative="1" as="geometry">
                        <mxPoint x="-500" y="461" as="sourcePoint"/>
                        <mxPoint x="-340" y="461" as="targetPoint"/>
                        <mxPoint as="offset"/>
                    </mxGeometry>
                </mxCell>
                <mxCell id="kWr4uf3u0KwMldFB6IhT-30" value="2" style="edgeLabel;html=1;align=center;verticalAlign=middle;resizable=0;points=[];" parent="RFVsDfMTFyBvrJDYn3Be-118" vertex="1" connectable="0">
                    <mxGeometry x="0.8817" y="-4" relative="1" as="geometry">
                        <mxPoint x="4" y="-10" as="offset"/>
                    </mxGeometry>
                </mxCell>
                <mxCell id="RFVsDfMTFyBvrJDYn3Be-119" value="" style="endArrow=block;dashed=1;endFill=0;endSize=12;html=1;rounded=0;" parent="1" source="RFVsDfMTFyBvrJDYn3Be-76" target="kWr4uf3u0KwMldFB6IhT-19" edge="1">
                    <mxGeometry width="160" relative="1" as="geometry">
                        <mxPoint x="275" y="398" as="sourcePoint"/>
                        <mxPoint x="-30" y="330" as="targetPoint"/>
                        <Array as="points">
                            <mxPoint x="-190" y="690"/>
                            <mxPoint x="-150" y="690"/>
                            <mxPoint x="-150" y="520"/>
                            <mxPoint x="-60" y="520"/>
                        </Array>
                    </mxGeometry>
                </mxCell>
                <mxCell id="kWr4uf3u0KwMldFB6IhT-19" value="&lt;div&gt;&amp;lt;&amp;lt; interface &amp;gt;&amp;gt;&lt;/div&gt;&lt;div&gt;MODE&lt;/div&gt;" style="swimlane;fontStyle=1;align=center;verticalAlign=top;childLayout=stackLayout;horizontal=1;startSize=40;horizontalStack=0;resizeParent=1;resizeParentMax=0;resizeLast=0;collapsible=1;marginBottom=0;whiteSpace=wrap;html=1;" parent="1" vertex="1">
                    <mxGeometry x="-160" y="399" width="200" height="100" as="geometry"/>
                </mxCell>
                <mxCell id="kWr4uf3u0KwMldFB6IhT-29" value="+ mode: LaserMode" style="text;strokeColor=none;fillColor=none;align=left;verticalAlign=top;spacingLeft=4;spacingRight=4;overflow=hidden;rotatable=0;points=[[0,0.5],[1,0.5]];portConstraint=eastwest;whiteSpace=wrap;html=1;" parent="kWr4uf3u0KwMldFB6IhT-19" vertex="1">
                    <mxGeometry y="40" width="200" height="26" as="geometry"/>
                </mxCell>
                <mxCell id="kWr4uf3u0KwMldFB6IhT-24" value="" style="line;strokeWidth=1;fillColor=none;align=left;verticalAlign=middle;spacingTop=-1;spacingLeft=3;spacingRight=3;rotatable=0;labelPosition=right;points=[];portConstraint=eastwest;strokeColor=inherit;" parent="kWr4uf3u0KwMldFB6IhT-19" vertex="1">
                    <mxGeometry y="66" width="200" height="8" as="geometry"/>
                </mxCell>
                <mxCell id="kWr4uf3u0KwMldFB6IhT-136" value="+ applyDefaults(): void" style="text;strokeColor=none;fillColor=none;align=left;verticalAlign=top;spacingLeft=4;spacingRight=4;overflow=hidden;rotatable=0;points=[[0,0.5],[1,0.5]];portConstraint=eastwest;whiteSpace=wrap;html=1;" parent="kWr4uf3u0KwMldFB6IhT-19" vertex="1">
                    <mxGeometry y="74" width="200" height="26" as="geometry"/>
                </mxCell>
                <mxCell id="kWr4uf3u0KwMldFB6IhT-32" value="&lt;p style=&quot;margin:0px;margin-top:4px;text-align:center;&quot;&gt;&lt;span style=&quot;font-size: 10px;&quot;&gt;Diode&lt;/span&gt;&lt;/p&gt;" style="swimlane;fontStyle=0;align=center;verticalAlign=top;childLayout=stackLayout;horizontal=1;startSize=28;horizontalStack=0;resizeParent=1;resizeParentMax=0;resizeLast=0;collapsible=1;marginBottom=0;whiteSpace=wrap;html=1;" parent="1" vertex="1">
                    <mxGeometry x="-780" y="574" width="160" height="114" as="geometry"/>
                </mxCell>
                <mxCell id="kWr4uf3u0KwMldFB6IhT-129" value="+ state: bool" style="text;strokeColor=none;fillColor=none;align=left;verticalAlign=top;spacingLeft=4;spacingRight=4;overflow=hidden;rotatable=0;points=[[0,0.5],[1,0.5]];portConstraint=eastwest;whiteSpace=wrap;html=1;" parent="kWr4uf3u0KwMldFB6IhT-32" vertex="1">
                    <mxGeometry y="28" width="160" height="26" as="geometry"/>
                </mxCell>
                <mxCell id="kWr4uf3u0KwMldFB6IhT-36" value="" style="line;strokeWidth=1;fillColor=none;align=left;verticalAlign=middle;spacingTop=-1;spacingLeft=3;spacingRight=3;rotatable=0;labelPosition=right;points=[];portConstraint=eastwest;strokeColor=inherit;" parent="kWr4uf3u0KwMldFB6IhT-32" vertex="1">
                    <mxGeometry y="54" width="160" height="8" as="geometry"/>
                </mxCell>
                <mxCell id="kWr4uf3u0KwMldFB6IhT-31" value="+ turn_ON(): void" style="text;strokeColor=none;fillColor=none;align=left;verticalAlign=top;spacingLeft=4;spacingRight=4;overflow=hidden;rotatable=0;points=[[0,0.5],[1,0.5]];portConstraint=eastwest;whiteSpace=wrap;html=1;" parent="kWr4uf3u0KwMldFB6IhT-32" vertex="1">
                    <mxGeometry y="62" width="160" height="26" as="geometry"/>
                </mxCell>
                <mxCell id="kWr4uf3u0KwMldFB6IhT-43" value="+ turn_OFF(): void" style="text;strokeColor=none;fillColor=none;align=left;verticalAlign=top;spacingLeft=4;spacingRight=4;overflow=hidden;rotatable=0;points=[[0,0.5],[1,0.5]];portConstraint=eastwest;whiteSpace=wrap;html=1;" parent="kWr4uf3u0KwMldFB6IhT-32" vertex="1">
                    <mxGeometry y="88" width="160" height="26" as="geometry"/>
                </mxCell>
                <mxCell id="kWr4uf3u0KwMldFB6IhT-41" value="&lt;p style=&quot;margin:0px;margin-top:4px;text-align:center;&quot;&gt;&lt;span style=&quot;font-size: 10px;&quot;&gt;TEC&lt;/span&gt;&lt;/p&gt;" style="swimlane;fontStyle=1;align=center;verticalAlign=top;childLayout=stackLayout;horizontal=1;startSize=28;horizontalStack=0;resizeParent=1;resizeParentMax=0;resizeLast=0;collapsible=1;marginBottom=0;whiteSpace=wrap;html=1;" parent="1" vertex="1">
                    <mxGeometry x="-510" y="578" width="160" height="88" as="geometry"/>
                </mxCell>
                <mxCell id="kWr4uf3u0KwMldFB6IhT-126" value="+ target: float" style="text;strokeColor=none;fillColor=none;align=left;verticalAlign=top;spacingLeft=4;spacingRight=4;overflow=hidden;rotatable=0;points=[[0,0.5],[1,0.5]];portConstraint=eastwest;whiteSpace=wrap;html=1;" parent="kWr4uf3u0KwMldFB6IhT-41" vertex="1">
                    <mxGeometry y="28" width="160" height="26" as="geometry"/>
                </mxCell>
                <mxCell id="kWr4uf3u0KwMldFB6IhT-42" value="" style="line;strokeWidth=1;fillColor=none;align=left;verticalAlign=middle;spacingTop=-1;spacingLeft=3;spacingRight=3;rotatable=0;labelPosition=right;points=[];portConstraint=eastwest;strokeColor=inherit;" parent="kWr4uf3u0KwMldFB6IhT-41" vertex="1">
                    <mxGeometry y="54" width="160" height="8" as="geometry"/>
                </mxCell>
                <mxCell id="kWr4uf3u0KwMldFB6IhT-98" value="+ set_target(float): void" style="text;strokeColor=none;fillColor=none;align=left;verticalAlign=top;spacingLeft=4;spacingRight=4;overflow=hidden;rotatable=0;points=[[0,0.5],[1,0.5]];portConstraint=eastwest;whiteSpace=wrap;html=1;" parent="kWr4uf3u0KwMldFB6IhT-41" vertex="1">
                    <mxGeometry y="62" width="160" height="26" as="geometry"/>
                </mxCell>
                <mxCell id="kWr4uf3u0KwMldFB6IhT-49" value="&amp;lt;&amp;lt;enumeration&amp;gt;&amp;gt;&lt;br&gt;&lt;b&gt;HeaterChannel&lt;/b&gt;" style="swimlane;fontStyle=0;align=center;verticalAlign=top;childLayout=stackLayout;horizontal=1;startSize=40;horizontalStack=0;resizeParent=1;resizeParentMax=0;resizeLast=0;collapsible=0;marginBottom=0;html=1;whiteSpace=wrap;" parent="1" vertex="1">
                    <mxGeometry x="-830" y="760" width="160" height="160" as="geometry"/>
                </mxCell>
                <mxCell id="kWr4uf3u0KwMldFB6IhT-53" value="&lt;div style=&quot;&quot;&gt;&lt;font face=&quot;UbuntuMono Nerd Font, Consolas, Courier New, monospace, Consolas, Courier New, monospace&quot; color=&quot;#f8f8f2&quot;&gt;&lt;span style=&quot;font-size: 14px; white-space: pre;&quot;&gt;PHASE_SECTION = 0&lt;/span&gt;&lt;/font&gt;&lt;/div&gt;" style="text;html=1;strokeColor=none;fillColor=none;align=left;verticalAlign=middle;spacingLeft=4;spacingRight=4;overflow=hidden;rotatable=0;points=[[0,0.5],[1,0.5]];portConstraint=eastwest;whiteSpace=wrap;" parent="kWr4uf3u0KwMldFB6IhT-49" vertex="1">
                    <mxGeometry y="40" width="160" height="30" as="geometry"/>
                </mxCell>
                <mxCell id="kWr4uf3u0KwMldFB6IhT-51" value="&lt;div style=&quot;color: rgb(248, 248, 242);&quot;&gt;&lt;font face=&quot;UbuntuMono Nerd Font, Consolas, Courier New, monospace, Consolas, Courier New, monospace&quot; color=&quot;#f8f8f2&quot;&gt;&lt;span style=&quot;font-size: 14px; white-space: pre;&quot;&gt;RING_LARGE = 1&lt;/span&gt;&lt;/font&gt;&lt;/div&gt;" style="text;html=1;strokeColor=none;fillColor=none;align=left;verticalAlign=middle;spacingLeft=4;spacingRight=4;overflow=hidden;rotatable=0;points=[[0,0.5],[1,0.5]];portConstraint=eastwest;whiteSpace=wrap;" parent="kWr4uf3u0KwMldFB6IhT-49" vertex="1">
                    <mxGeometry y="70" width="160" height="30" as="geometry"/>
                </mxCell>
                <mxCell id="kWr4uf3u0KwMldFB6IhT-52" value="&lt;div&gt;RING_SMALL = 2&lt;/div&gt;" style="text;html=1;strokeColor=none;fillColor=none;align=left;verticalAlign=middle;spacingLeft=4;spacingRight=4;overflow=hidden;rotatable=0;points=[[0,0.5],[1,0.5]];portConstraint=eastwest;whiteSpace=wrap;" parent="kWr4uf3u0KwMldFB6IhT-49" vertex="1">
                    <mxGeometry y="100" width="160" height="30" as="geometry"/>
                </mxCell>
                <mxCell id="kWr4uf3u0KwMldFB6IhT-50" value="&lt;div&gt;&lt;span style=&quot;background-color: transparent; color: light-dark(rgb(0, 0, 0), rgb(255, 255, 255));&quot;&gt;TUNABLE_COUPLER = 3&lt;/span&gt;&lt;/div&gt;" style="text;html=1;strokeColor=none;fillColor=none;align=left;verticalAlign=middle;spacingLeft=4;spacingRight=4;overflow=hidden;rotatable=0;points=[[0,0.5],[1,0.5]];portConstraint=eastwest;whiteSpace=wrap;" parent="kWr4uf3u0KwMldFB6IhT-49" vertex="1">
                    <mxGeometry y="130" width="160" height="30" as="geometry"/>
                </mxCell>
                <mxCell id="kWr4uf3u0KwMldFB6IhT-66" value="LargeRing" style="swimlane;fontStyle=1;align=center;verticalAlign=top;childLayout=stackLayout;horizontal=1;startSize=26;horizontalStack=0;resizeParent=1;resizeParentMax=0;resizeLast=0;collapsible=1;marginBottom=0;whiteSpace=wrap;html=1;" parent="1" vertex="1">
                    <mxGeometry x="-640" y="965" width="85" height="34" as="geometry"/>
                </mxCell>
                <mxCell id="kWr4uf3u0KwMldFB6IhT-68" value="" style="line;strokeWidth=1;fillColor=none;align=left;verticalAlign=middle;spacingTop=-1;spacingLeft=3;spacingRight=3;rotatable=0;labelPosition=right;points=[];portConstraint=eastwest;strokeColor=inherit;" parent="kWr4uf3u0KwMldFB6IhT-66" vertex="1">
                    <mxGeometry y="26" width="85" height="8" as="geometry"/>
                </mxCell>
                <mxCell id="kWr4uf3u0KwMldFB6IhT-69" value="PhaseSection" style="swimlane;fontStyle=1;align=center;verticalAlign=top;childLayout=stackLayout;horizontal=1;startSize=26;horizontalStack=0;resizeParent=1;resizeParentMax=0;resizeLast=0;collapsible=1;marginBottom=0;whiteSpace=wrap;html=1;" parent="1" vertex="1">
                    <mxGeometry x="-456" y="965" width="86" height="34" as="geometry"/>
                </mxCell>
                <mxCell id="kWr4uf3u0KwMldFB6IhT-71" value="" style="line;strokeWidth=1;fillColor=none;align=left;verticalAlign=middle;spacingTop=-1;spacingLeft=3;spacingRight=3;rotatable=0;labelPosition=right;points=[];portConstraint=eastwest;strokeColor=inherit;" parent="kWr4uf3u0KwMldFB6IhT-69" vertex="1">
                    <mxGeometry y="26" width="86" height="8" as="geometry"/>
                </mxCell>
                <mxCell id="kWr4uf3u0KwMldFB6IhT-72" value="SmallRing" style="swimlane;fontStyle=1;align=center;verticalAlign=top;childLayout=stackLayout;horizontal=1;startSize=26;horizontalStack=0;resizeParent=1;resizeParentMax=0;resizeLast=0;collapsible=1;marginBottom=0;whiteSpace=wrap;html=1;" parent="1" vertex="1">
                    <mxGeometry x="-540" y="965" width="70" height="34" as="geometry"/>
                </mxCell>
                <mxCell id="kWr4uf3u0KwMldFB6IhT-74" value="" style="line;strokeWidth=1;fillColor=none;align=left;verticalAlign=middle;spacingTop=-1;spacingLeft=3;spacingRight=3;rotatable=0;labelPosition=right;points=[];portConstraint=eastwest;strokeColor=inherit;" parent="kWr4uf3u0KwMldFB6IhT-72" vertex="1">
                    <mxGeometry y="26" width="70" height="8" as="geometry"/>
                </mxCell>
                <mxCell id="kWr4uf3u0KwMldFB6IhT-75" value="TunableCoupler" style="swimlane;fontStyle=1;align=center;verticalAlign=top;childLayout=stackLayout;horizontal=1;startSize=26;horizontalStack=0;resizeParent=1;resizeParentMax=0;resizeLast=0;collapsible=1;marginBottom=0;whiteSpace=wrap;html=1;" parent="1" vertex="1">
                    <mxGeometry x="-760" y="965" width="100" height="34" as="geometry"/>
                </mxCell>
                <mxCell id="kWr4uf3u0KwMldFB6IhT-77" value="" style="line;strokeWidth=1;fillColor=none;align=left;verticalAlign=middle;spacingTop=-1;spacingLeft=3;spacingRight=3;rotatable=0;labelPosition=right;points=[];portConstraint=eastwest;strokeColor=inherit;" parent="kWr4uf3u0KwMldFB6IhT-75" vertex="1">
                    <mxGeometry y="26" width="100" height="8" as="geometry"/>
                </mxCell>
                <mxCell id="kWr4uf3u0KwMldFB6IhT-78" value="&lt;div&gt;&amp;lt;&amp;lt; interface &amp;gt;&amp;gt;&lt;/div&gt;Heater" style="swimlane;fontStyle=1;align=center;verticalAlign=top;childLayout=stackLayout;horizontal=1;startSize=40;horizontalStack=0;resizeParent=1;resizeParentMax=0;resizeLast=0;collapsible=1;marginBottom=0;whiteSpace=wrap;html=1;" parent="1" vertex="1">
                    <mxGeometry x="-640" y="707" width="160" height="78" as="geometry"/>
                </mxCell>
                <mxCell id="kWr4uf3u0KwMldFB6IhT-79" value="&lt;div style=&quot;text-align: center;&quot;&gt;&lt;span style=&quot;background-color: transparent; color: light-dark(rgb(0, 0, 0), rgb(255, 255, 255));&quot;&gt;+ channel:&amp;nbsp;&lt;/span&gt;&lt;span style=&quot;background-color: transparent; color: light-dark(rgb(0, 0, 0), rgb(255, 255, 255)); font-size: 10px; font-weight: 700; text-align: center;&quot;&gt;LaserComponent&lt;/span&gt;&lt;/div&gt;" style="text;strokeColor=none;fillColor=none;align=left;verticalAlign=top;spacingLeft=4;spacingRight=4;overflow=hidden;rotatable=0;points=[[0,0.5],[1,0.5]];portConstraint=eastwest;whiteSpace=wrap;html=1;" parent="kWr4uf3u0KwMldFB6IhT-78" vertex="1">
                    <mxGeometry y="40" width="160" height="30" as="geometry"/>
                </mxCell>
                <mxCell id="kWr4uf3u0KwMldFB6IhT-80" value="" style="line;strokeWidth=1;fillColor=none;align=left;verticalAlign=middle;spacingTop=-1;spacingLeft=3;spacingRight=3;rotatable=0;labelPosition=right;points=[];portConstraint=eastwest;strokeColor=inherit;" parent="kWr4uf3u0KwMldFB6IhT-78" vertex="1">
                    <mxGeometry y="70" width="160" height="8" as="geometry"/>
                </mxCell>
                <mxCell id="kWr4uf3u0KwMldFB6IhT-81" value="" style="endArrow=diamondThin;endFill=1;endSize=24;html=1;rounded=0;" parent="1" source="kWr4uf3u0KwMldFB6IhT-49" target="kWr4uf3u0KwMldFB6IhT-78" edge="1">
                    <mxGeometry width="160" relative="1" as="geometry">
                        <mxPoint x="-310" y="1135" as="sourcePoint"/>
                        <mxPoint x="-150" y="1135" as="targetPoint"/>
                        <Array as="points">
                            <mxPoint x="-750" y="746"/>
                        </Array>
                    </mxGeometry>
                </mxCell>
                <mxCell id="kWr4uf3u0KwMldFB6IhT-83" value="1" style="edgeLabel;html=1;align=center;verticalAlign=middle;resizable=0;points=[];" parent="kWr4uf3u0KwMldFB6IhT-81" vertex="1" connectable="0">
                    <mxGeometry x="-0.9466" y="-1" relative="1" as="geometry">
                        <mxPoint x="-11" y="-10" as="offset"/>
                    </mxGeometry>
                </mxCell>
                <mxCell id="kWr4uf3u0KwMldFB6IhT-85" value="" style="endArrow=diamondThin;endFill=0;endSize=24;html=1;rounded=0;entryX=0;entryY=0.5;entryDx=0;entryDy=0;" parent="1" source="kWr4uf3u0KwMldFB6IhT-78" target="kWr4uf3u0KwMldFB6IhT-46" edge="1">
                    <mxGeometry width="160" relative="1" as="geometry">
                        <mxPoint x="-270" y="680" as="sourcePoint"/>
                        <mxPoint x="-110" y="680" as="targetPoint"/>
                        <Array as="points">
                            <mxPoint x="-400" y="746"/>
                            <mxPoint x="-400" y="820"/>
                        </Array>
                    </mxGeometry>
                </mxCell>
                <mxCell id="kWr4uf3u0KwMldFB6IhT-86" value="1" style="edgeLabel;html=1;align=center;verticalAlign=middle;resizable=0;points=[];" parent="kWr4uf3u0KwMldFB6IhT-85" vertex="1" connectable="0">
                    <mxGeometry x="0.8765" relative="1" as="geometry">
                        <mxPoint y="-16" as="offset"/>
                    </mxGeometry>
                </mxCell>
                <mxCell id="kWr4uf3u0KwMldFB6IhT-87" value="3..4" style="edgeLabel;html=1;align=center;verticalAlign=middle;resizable=0;points=[];" parent="kWr4uf3u0KwMldFB6IhT-85" vertex="1" connectable="0">
                    <mxGeometry x="-0.9518" relative="1" as="geometry">
                        <mxPoint x="4" y="10" as="offset"/>
                    </mxGeometry>
                </mxCell>
                <mxCell id="kWr4uf3u0KwMldFB6IhT-88" value="" style="endArrow=block;dashed=1;endFill=0;endSize=12;html=1;rounded=0;" parent="1" source="kWr4uf3u0KwMldFB6IhT-75" target="kWr4uf3u0KwMldFB6IhT-78" edge="1">
                    <mxGeometry width="160" relative="1" as="geometry">
                        <mxPoint x="-790" y="1158" as="sourcePoint"/>
                        <mxPoint x="-840" y="1055" as="targetPoint"/>
                        <Array as="points">
                            <mxPoint x="-710" y="930"/>
                            <mxPoint x="-560" y="930"/>
                        </Array>
                    </mxGeometry>
                </mxCell>
                <mxCell id="kWr4uf3u0KwMldFB6IhT-89" value="" style="endArrow=block;dashed=1;endFill=0;endSize=12;html=1;rounded=0;" parent="1" source="kWr4uf3u0KwMldFB6IhT-72" target="kWr4uf3u0KwMldFB6IhT-78" edge="1">
                    <mxGeometry width="160" relative="1" as="geometry">
                        <mxPoint x="-620" y="1165" as="sourcePoint"/>
                        <mxPoint x="-520" y="1255" as="targetPoint"/>
                        <Array as="points">
                            <mxPoint x="-505" y="930"/>
                            <mxPoint x="-560" y="930"/>
                        </Array>
                    </mxGeometry>
                </mxCell>
                <mxCell id="kWr4uf3u0KwMldFB6IhT-90" value="" style="endArrow=block;dashed=1;endFill=0;endSize=12;html=1;rounded=0;" parent="1" source="kWr4uf3u0KwMldFB6IhT-66" target="kWr4uf3u0KwMldFB6IhT-78" edge="1">
                    <mxGeometry width="160" relative="1" as="geometry">
                        <mxPoint x="-250" y="1135" as="sourcePoint"/>
                        <mxPoint x="-150" y="1225" as="targetPoint"/>
                        <Array as="points">
                            <mxPoint x="-597" y="930"/>
                            <mxPoint x="-560" y="930"/>
                        </Array>
                    </mxGeometry>
                </mxCell>
                <mxCell id="kWr4uf3u0KwMldFB6IhT-91" value="" style="endArrow=block;dashed=1;endFill=0;endSize=12;html=1;rounded=0;" parent="1" source="kWr4uf3u0KwMldFB6IhT-69" target="kWr4uf3u0KwMldFB6IhT-78" edge="1">
                    <mxGeometry width="160" relative="1" as="geometry">
                        <mxPoint x="-110" y="1215" as="sourcePoint"/>
                        <mxPoint x="-10" y="1305" as="targetPoint"/>
                        <Array as="points">
                            <mxPoint x="-413" y="930"/>
                            <mxPoint x="-560" y="930"/>
                        </Array>
                    </mxGeometry>
                </mxCell>
                <mxCell id="kWr4uf3u0KwMldFB6IhT-92" value="" style="endArrow=block;dashed=1;endFill=0;endSize=12;html=1;rounded=0;" parent="1" source="kWr4uf3u0KwMldFB6IhT-78" target="RFVsDfMTFyBvrJDYn3Be-103" edge="1">
                    <mxGeometry width="160" relative="1" as="geometry">
                        <mxPoint x="-60" y="1360" as="sourcePoint"/>
                        <mxPoint x="40" y="1450" as="targetPoint"/>
                        <Array as="points">
                            <mxPoint x="-560" y="680"/>
                        </Array>
                    </mxGeometry>
                </mxCell>
                <mxCell id="kWr4uf3u0KwMldFB6IhT-100" value="&lt;div&gt;&lt;span style=&quot;font-weight: 400; text-align: left;&quot;&gt;&amp;lt;&amp;lt; interface &amp;gt;&amp;gt;&lt;/span&gt;&lt;/div&gt;&lt;span style=&quot;font-weight: 400; text-align: left;&quot;&gt;WLChangeMethod&lt;/span&gt;" style="swimlane;fontStyle=1;align=center;verticalAlign=top;childLayout=stackLayout;horizontal=1;startSize=42;horizontalStack=0;resizeParent=1;resizeParentMax=0;resizeLast=0;collapsible=1;marginBottom=0;whiteSpace=wrap;html=1;" parent="1" vertex="1">
                    <mxGeometry x="-30" y="880" width="240" height="128" as="geometry"/>
                </mxCell>
                <mxCell id="kWr4uf3u0KwMldFB6IhT-101" value="# calibration" style="text;strokeColor=none;fillColor=none;align=left;verticalAlign=top;spacingLeft=4;spacingRight=4;overflow=hidden;rotatable=0;points=[[0,0.5],[1,0.5]];portConstraint=eastwest;whiteSpace=wrap;html=1;" parent="kWr4uf3u0KwMldFB6IhT-100" vertex="1">
                    <mxGeometry y="42" width="240" height="26" as="geometry"/>
                </mxCell>
                <mxCell id="kWr4uf3u0KwMldFB6IhT-105" value="# antihyst_params: list(float)" style="text;strokeColor=none;fillColor=none;align=left;verticalAlign=top;spacingLeft=4;spacingRight=4;overflow=hidden;rotatable=0;points=[[0,0.5],[1,0.5]];portConstraint=eastwest;whiteSpace=wrap;html=1;" parent="kWr4uf3u0KwMldFB6IhT-100" vertex="1">
                    <mxGeometry y="68" width="240" height="26" as="geometry"/>
                </mxCell>
                <mxCell id="kWr4uf3u0KwMldFB6IhT-102" value="" style="line;strokeWidth=1;fillColor=none;align=left;verticalAlign=middle;spacingTop=-1;spacingLeft=3;spacingRight=3;rotatable=0;labelPosition=right;points=[];portConstraint=eastwest;strokeColor=inherit;" parent="kWr4uf3u0KwMldFB6IhT-100" vertex="1">
                    <mxGeometry y="94" width="240" height="8" as="geometry"/>
                </mxCell>
                <mxCell id="kWr4uf3u0KwMldFB6IhT-104" value="+ set_wl(float): void" style="text;strokeColor=none;fillColor=none;align=left;verticalAlign=top;spacingLeft=4;spacingRight=4;overflow=hidden;rotatable=0;points=[[0,0.5],[1,0.5]];portConstraint=eastwest;whiteSpace=wrap;html=1;" parent="kWr4uf3u0KwMldFB6IhT-100" vertex="1">
                    <mxGeometry y="102" width="240" height="26" as="geometry"/>
                </mxCell>
                <mxCell id="kWr4uf3u0KwMldFB6IhT-106" value="&lt;div style=&quot;text-align: left;&quot;&gt;&lt;span style=&quot;font-weight: 400;&quot;&gt;CyclerIndex&lt;/span&gt;&lt;/div&gt;" style="swimlane;fontStyle=1;align=center;verticalAlign=top;childLayout=stackLayout;horizontal=1;startSize=42;horizontalStack=0;resizeParent=1;resizeParentMax=0;resizeLast=0;collapsible=1;marginBottom=0;whiteSpace=wrap;html=1;" parent="1" vertex="1">
                    <mxGeometry x="97" y="1040" width="240" height="50" as="geometry"/>
                </mxCell>
                <mxCell id="kWr4uf3u0KwMldFB6IhT-109" value="" style="line;strokeWidth=1;fillColor=none;align=left;verticalAlign=middle;spacingTop=-1;spacingLeft=3;spacingRight=3;rotatable=0;labelPosition=right;points=[];portConstraint=eastwest;strokeColor=inherit;" parent="kWr4uf3u0KwMldFB6IhT-106" vertex="1">
                    <mxGeometry y="42" width="240" height="8" as="geometry"/>
                </mxCell>
                <mxCell id="kWr4uf3u0KwMldFB6IhT-111" value="&lt;div style=&quot;text-align: left;&quot;&gt;&lt;span style=&quot;font-weight: 400;&quot;&gt;PreaLoad&lt;/span&gt;&lt;/div&gt;" style="swimlane;fontStyle=1;align=center;verticalAlign=top;childLayout=stackLayout;horizontal=1;startSize=42;horizontalStack=0;resizeParent=1;resizeParentMax=0;resizeLast=0;collapsible=1;marginBottom=0;whiteSpace=wrap;html=1;" parent="1" vertex="1">
                    <mxGeometry x="-200" y="1040" width="240" height="50" as="geometry"/>
                </mxCell>
                <mxCell id="kWr4uf3u0KwMldFB6IhT-114" value="" style="line;strokeWidth=1;fillColor=none;align=left;verticalAlign=middle;spacingTop=-1;spacingLeft=3;spacingRight=3;rotatable=0;labelPosition=right;points=[];portConstraint=eastwest;strokeColor=inherit;" parent="kWr4uf3u0KwMldFB6IhT-111" vertex="1">
                    <mxGeometry y="42" width="240" height="8" as="geometry"/>
                </mxCell>
                <mxCell id="kWr4uf3u0KwMldFB6IhT-116" value="" style="endArrow=block;dashed=1;endFill=0;endSize=12;html=1;rounded=0;" parent="1" source="kWr4uf3u0KwMldFB6IhT-106" target="kWr4uf3u0KwMldFB6IhT-100" edge="1">
                    <mxGeometry width="160" relative="1" as="geometry">
                        <mxPoint x="550" y="410" as="sourcePoint"/>
                        <mxPoint x="665" y="230" as="targetPoint"/>
                        <Array as="points"/>
                    </mxGeometry>
                </mxCell>
                <mxCell id="kWr4uf3u0KwMldFB6IhT-117" value="" style="endArrow=block;dashed=1;endFill=0;endSize=12;html=1;rounded=0;" parent="1" source="kWr4uf3u0KwMldFB6IhT-111" target="kWr4uf3u0KwMldFB6IhT-100" edge="1">
                    <mxGeometry width="160" relative="1" as="geometry">
                        <mxPoint x="280" y="1130" as="sourcePoint"/>
                        <mxPoint x="395" y="950" as="targetPoint"/>
                        <Array as="points"/>
                    </mxGeometry>
                </mxCell>
                <mxCell id="kWr4uf3u0KwMldFB6IhT-118" value="" style="endArrow=diamondThin;endFill=0;endSize=24;html=1;rounded=0;" parent="1" source="kWr4uf3u0KwMldFB6IhT-100" target="RFVsDfMTFyBvrJDYn3Be-61" edge="1">
                    <mxGeometry width="160" relative="1" as="geometry">
                        <mxPoint x="540" y="620" as="sourcePoint"/>
                        <mxPoint x="690" y="695" as="targetPoint"/>
                        <Array as="points"/>
                    </mxGeometry>
                </mxCell>
                <mxCell id="kWr4uf3u0KwMldFB6IhT-119" value="1" style="edgeLabel;html=1;align=center;verticalAlign=middle;resizable=0;points=[];" parent="kWr4uf3u0KwMldFB6IhT-118" vertex="1" connectable="0">
                    <mxGeometry x="0.8765" relative="1" as="geometry">
                        <mxPoint x="-20" y="6" as="offset"/>
                    </mxGeometry>
                </mxCell>
                <mxCell id="kWr4uf3u0KwMldFB6IhT-120" value="1" style="edgeLabel;html=1;align=center;verticalAlign=middle;resizable=0;points=[];" parent="kWr4uf3u0KwMldFB6IhT-118" vertex="1" connectable="0">
                    <mxGeometry x="-0.9518" relative="1" as="geometry">
                        <mxPoint x="10" y="-9" as="offset"/>
                    </mxGeometry>
                </mxCell>
                <mxCell id="kWr4uf3u0KwMldFB6IhT-122" style="rounded=0;orthogonalLoop=1;jettySize=auto;html=1;endArrow=none;endFill=0;strokeColor=default;dashed=1;dashPattern=8 8;" parent="1" source="kWr4uf3u0KwMldFB6IhT-121" target="kWr4uf3u0KwMldFB6IhT-100" edge="1">
                    <mxGeometry relative="1" as="geometry"/>
                </mxCell>
                <mxCell id="kWr4uf3u0KwMldFB6IhT-121" value="STE-003" style="shape=note2;boundedLbl=1;whiteSpace=wrap;html=1;size=25;verticalAlign=top;align=center;" parent="1" vertex="1">
                    <mxGeometry x="-300" y="952" width="120" height="60" as="geometry"/>
                </mxCell>
                <mxCell id="kWr4uf3u0KwMldFB6IhT-124" value="" style="endArrow=none;startArrow=none;endFill=0;startFill=0;endSize=8;html=1;verticalAlign=bottom;labelBackgroundColor=none;strokeWidth=3;rounded=0;" parent="1" source="RFVsDfMTFyBvrJDYn3Be-47" target="kWr4uf3u0KwMldFB6IhT-106" edge="1">
                    <mxGeometry width="160" relative="1" as="geometry">
                        <mxPoint x="680" y="321" as="sourcePoint"/>
                        <mxPoint x="722" y="320" as="targetPoint"/>
                        <Array as="points">
                            <mxPoint x="520" y="456"/>
                            <mxPoint x="520" y="1065"/>
                        </Array>
                    </mxGeometry>
                </mxCell>
                <mxCell id="kWr4uf3u0KwMldFB6IhT-130" value="&lt;div&gt;&amp;lt;&amp;lt; Enum &amp;gt;&amp;gt;&lt;/div&gt;&lt;div&gt;LaserMode&lt;/div&gt;" style="swimlane;fontStyle=1;align=center;verticalAlign=top;childLayout=stackLayout;horizontal=1;startSize=40;horizontalStack=0;resizeParent=1;resizeParentMax=0;resizeLast=0;collapsible=1;marginBottom=0;whiteSpace=wrap;html=1;" parent="1" vertex="1">
                    <mxGeometry x="-120" y="560" width="200" height="48" as="geometry"/>
                </mxCell>
                <mxCell id="kWr4uf3u0KwMldFB6IhT-131" value="" style="line;strokeWidth=1;fillColor=none;align=left;verticalAlign=middle;spacingTop=-1;spacingLeft=3;spacingRight=3;rotatable=0;labelPosition=right;points=[];portConstraint=eastwest;strokeColor=inherit;" parent="kWr4uf3u0KwMldFB6IhT-130" vertex="1">
                    <mxGeometry y="40" width="200" height="8" as="geometry"/>
                </mxCell>
                <mxCell id="kWr4uf3u0KwMldFB6IhT-133" value="" style="shape=image;verticalLabelPosition=bottom;labelBackgroundColor=default;verticalAlign=top;aspect=fixed;imageAspect=0;image=data:image/png,iVBORw0KGgoAAAANSUhEUgAAAuwAAAK/CAYAAAAyOpilAAAAAXNSR0IArs4c6QAAAARnQU1BAACxjwv8YQUAAAAJcEhZcwAADsMAAA7DAcdvqGQAAK3VSURBVHhe7P19cBTnnS98fzGJCcybAYEGixECYYmV5bUAM0Lo4CSLuMGb2Jw6CqR8U+tj+9zkzmarjvIHZ+/EofbJc4rgnD38Yf5Yb+7182CXc7Mum1VqMbWLMSLZrT1GSNhYXosXCQQKg9AIhPC8iRDih+eP7p7pvqb7mp5XtUbfT9UUTF/dfb2O5jc9V18zq3rZugcogtX/WwcWesStwN2BI/iof1jcbODf0IHaqMV+3q1o3VyPuQCASVw98QaGokqSq3EXWurn6XYeRX/newjrtpirQe2WbVju1p6nziuec7z3APpCyadAYAfaGqLoPv4BEvptwSXK/+MDxjQE0dTegorkc/t1ENOSZTG0iUY9r09WFvFYfVnk5ZRKK0+edbDTD0RERAVQWbkIY2O3xM1ERfPllwnMnu0SNxvMKlbAXrfqMcDXgupHbqL7+AfwyIJwgXXArgSR0IK1wA60BWEMBr2foetUr3CcjBqsx7ozHyfkl9wmBuzStCCa2p9ETAt+c61DWlmUenjOWwSylmWxak9jOV2Nu9BSFTKvp4FwTu9WtG72Ysjsg1O2ddCkHUdERFQYDNip1OwE7A+JGwrpq1+bB8QmkEANXB4gEREDcGtz67ehrb1DeWzZChcABGpQER/AJS2YC/XianwJ/AHjsVnxroLfPYr+TAEyAISGMS5uy1eudShEWbJoz8S1EO66vTD50sRIPKdMrnXI9TgiIiKiaaioAfvDc+bgbvQmgMXwuCcRi4h7WLs7cARdnQeUh3pV1+XzqR8ANMNIxACXr8ZwbFZ8XsyNRxETt2sCO1IfHAxTRAolizoUuCxZtWdUv5+19HMKcq1DrscRERERTXNFC9hd1X+KhR7tSnkLKjAPyzd3oLXRJBi0KRGJAJ4FytV2AMjhyn2aSNT6yrF3K1qDPlw9oX5w6OwuwpVdm3XIWBYl2M5GMdoz/Zw6udYh43FERERE5atoAXvi2hlEf39PCbJODOBufADdnQdM5qVnITSMcXc9HtOmbASCWO4eRdjO9Asr0YsIx5egcUNQTFFFkMh0o6VVwI8Maci2DpnLUhGwqodJWYrRnuI50+Rah8zHEREREZWj2b5Hqn4qbiyEhRWN8Cx5GGN9nyG+eA3qF93D9aHLuC/uaMIdWI8F9wYQuvmFkDKC8Mh81D79LdQ3rMeKqtm4euKXCN1TUh9evBaBOWO4EhoRjpP5AneGxjCroQ1rm9ZjRYPy8MZ7EL51GROzN2Dtxo3q9gDmIY6bF84hrh0eTWBW9VOoV4/1xnsQ1gJL07Qq+BtWoKpWzasqbrh50rIO9zKXJR6ZjyVPNiltY6sssvasgr/Bj99fOYs7yeePIK6vu6kRhC88gH/zd9DYsB4raivwVa2cudbBTj8QEREVgNvtQiIxKW4mKpoHD+7joYceFjcbFHeVGACDFy+JSURERESOxFViqNSmfJUYIiIiIiLKDwN2IiIiIiIHY8BORERERORgRZ/DTkRERDRdLFw4H7dv3xE3ExXNzbEQFldaLq8H8Ao7EREREZGzFe0KOxEREdF0w1ViqNS4SgwRERER0TTHgJ2IiIiIyMEYsBMRERERORgDdiIiIiIiB2PATkRERETkYM4I2J9fh7aeTVgqbi+FPZvwXM9O5dG1Dh4xnYiIiIhoChU9YF/6rhoM9+xE2+sVYnIOKrCqayea94jbc7T3JN5vPoT3j4bFFCIiIiKiKVfUgH3puzuxBmeUgLj5DGJrW7HqeXEvIiIiIiKyUsQfTqpDc88fIfLaEVx8R9my9N2dWHX7OLp+MK5Mg/lhHeYl9w/jbPNJXAfgeX0bvrnWnUwZO3oIPXvVqTOGYwAgjkE1D8vjAPXK/BbUJee8pI4D1Kkx34jiN21nENN2kZUF6jHP+pNpGD6D9787mDmNiIiIHIk/nESlZueHk4oXsOsCYN+7O7GmRtk8+clxdP1gAZp71gGGQNyLi2rAnnaeZ5EM5rXA2/cv+mDchOE4NVi/LQmaLQJ2A5NzmpdDlkZEREROxYCdSs1OwF7UKTG4HUFszyasqQnjbPMhnB1Wt+8JoDI2iPN2gtm9IYyJ2+zQH/f8ciz1hHHWKli3y6QslU/UCVtSZGlERERERHYULWD3PKpMI/E86gaGQ4Yr555H3Uowr9tmoF+5pWcdKsV0K1bH1XoxLxZFxLi3PVbnxDguth3H4MJ1app+lRtZGhERERGRfUUL2GM34ql/F/oMyyWabUt6fh3annVj8LVDyZtVjVe1xxG/bdigkB03FMWkxwuf8YjMZOcE1MBcSfvNJ26sSQvardKIiIiIiOwpWsCOoSgmawJYuvckzt6uwzd7UvPYsTeEMU8dGiyXZowjrt0MasF8uonFce9cxfWYH2veNTtGxzSotzgn6tCsW7c99m83MGkrjYiIiIjIvuLddJrxxss6NBummFivEqNPA9JXi9FWbpEfJ64SI19FJvM5ZeeTpREREZFT8aZTKjU7N50WMWDXVlVxG5dPJCIiInIoBuxUalMfsENYjzw2KF82kYiIiGgKMWCnUnNGwE5EREQ0TTBgp1KzE7AX76ZTIiIiIiLKGwN2IiIiIiIHY8BORERERORgDNiJiIiIiByMATsRERERkYMxYCciIiIicjAG7EREREREDsaAnYiIiIjIwRiwExERERE52NQE7N6v4+IT25XHY6vxkpg+HezZhOd6diqPrnXwiOmW6tDcsw2rnhe3ExERERGlm5qAPfqvWPX5Yaz67U0xZcp4Xt+WCsB7NmGpuINo70m833wI7x8NiymqOjRnHcznowKrunaieY+4HUUpy9J3tbbSHnY/hMjKSURERESiqQnYHcbz+jZ8s+4GftN8CO83H8JvPgHctoJPmUH0NB/C+21nEBOTSq44ZZn85LjyoaX5EN5vPoKL74h7EBEREVG+ZlUvW/dA3Fg4C/HWY3+C9V/TnidwevCf8eI99an367hYGcX/uPQp3kwdhJcW/yn+r0pX8vnQbw/jW1H1iffruLhscTINX3yKVaHLmdMs1aG5548Qec084PS8vg3fXOtOPh87egg9e3U77NmE574RxW/0wfCeTXjuWb/y/9igMQ11aO5Zh8rk8zgGdXmL+QFhnG0+iesmacmyPL8ObT+swzzdUcnz1srKIh6rL4u8nEvf3YlVt4+j6wfjyT0UkuNk5XwnvX7Juj+/Dm3/BejRlX3puztR9bnQF0RERHmqrFyEsbFb4maiovnyywRmz07FvWaKGLCrwfrvJEGzRcBu4P06Li4D/uHzf8Ue9ZyLxnQBfJIsTcIs4LayZxOeexbJADq5zep40zThA4JwTs/r2/DNhRfw/ncHDadKk1aWCqzq2gLfv1gEsZZlWQdogb/hnMZyJr+FUI+XB+zWx8nKaV33CqzqagX+v/oPEwGM6Prh5beP4EfNbkR7foGnXjhsPJyIiMgmBuxUanYC9uJNiZlTjYav3cQ/WAXrdkVHMCRsqvWtFLakyNLytjeEMXFbvvZ+hsGYH1XZzukuRFn2BFAZG8R5LXCWlCX2bzcw6fHCp9s2b+2W1Bz2d+t0KSlmx2VvHCODwNKNFcrTPQFUDodSH5oAHHxhG+rqNzFYJyIiorJTxIDdC+/vomnBti36VWSeWI3aZMJtvHjp1zj9tdVq2teRukgrS8uDfjUYw1SPQhlH/DbgeVQNRmUKXBbPo27gdkR3xV1Slnf0+ykMc9jTroqrTI7LRewHFxCrWw6PWu6xzy3yIyIiIiozxQvY70UR/ZpXF2zbNGc1epe5cHrwsLKSzOefCkH/bbx4SUn7H2MufCctaLdKszAUxaTnUVSZ3WT6/Dq0PevG4GvajZVn8r+qnaYC7oVA7IY4tUSQsSxKsJ2N2I04sNCnWznGZlnykn05FYM4P/goGvZUoKoujpGMHUtERERUHooYsF/D+d8txncCGaaomAb1CVzXbkw1WIl/0q3b/mZkFKnp6rI0iXfO4OKwG3X/xWrJwzjiJjejGsimfMjSAGDPk6jzhG0GoJnLUvmE+dQUwKQse0MY89ShQZsCk1VZ8iMtp4XYDy4Az25B3W3jdBgiIiKiclbEm05hskqMsOKLkK6liavEADcNN52an0+WltnSd3diTU3qubYCi+XKJcnnyk2UdWq0b1xFxixNXEXFeD7rGy9tlEVYhSVzWcRjxFVi9KvnGG/0FNsL6hSZrh8skB4HiHkKbW1Rd43n9U2o+reTaSv68KZTIiIqBN50SqVm56bTIgfsRIVUh+Z3gR5JQE9ERJQPBuxUanYC9uJNiSEqkNSv0AYwwmCdiIiIZhheYSciIiJS8Qo7lRqvsBMRERERTXMM2ImIiIiIHIwBOxERERGRgxUtYK+sXCRuIiIiIiKiLBUtYCciIiIiovwxYCciIiIicjAG7EREREREDsaAnYiIiIjIwRiwExERERE5WNF+6bTsfyls35sYbK9W/h/9FD9ftxsHxX1KZjeODWzErVe34YW3xLR81aG5Zx0qtafDZ/D+5wE896xfeR4bxG/aziCmO4KIiGi6Kvv4hRyHv3RaTK+8hLr6TajrvCamFNF2vH3mJI7tE7cXz9J316Fy+Azebz6kPL47COw9qfz/aFjcPU8VWNW1E817xO1EREREMxcDdpKogHshMPb5oJhARERERCVSNgH7z46dxMdvb7fc9vLbRzA4cDL5SF6l3vem6XGpq9i7cczsuIysjjNuHxw4grdf1B324n58bEh/Ez9Lbv8+1nuB2nazY91Y/2Oz7Tl6fh3aeragzgNUPrsTz/XsxHM9m7BU3M/M8+vQ1qMdsw2rnk8leV7fpm5XHsmr6ab5GY8lIiIimonKJmBPenE/Pj6zHy9jOwIVwK3rhwEAB1/YpkxhUaex1LargfDgbeCPmvFy8gS7sWbFNZx9Rfn/sYFngE71uFc/xSLtOKlMx8Vx+lUl7ec9wPq/2K/mvxvHfrwat3THRbVD3tqNp+p/gdNRYEhLr9fPWbc6p0L7wCJ+OLH0zhl0NR/HYAwYO6pOh2k+ievifmnq0PzDOsS0Y47GUffDVKAf+8GR1PSao2FUPqummeZ3BBffMZ6diIiIaKYpm4B96FYc3kXLgLqF8HoXohYAEMcts9kcr5zDkPb/t3pwHo/hG9oV6X2Po/bKOfxE+3/0Uxx+RbdvtBprMl1lz+K4g7++hKhWXvG4HBnOqW1TP7A89YLyAaZo9gRQGRvE+b3q872fYTDmR5XZvPS9IYyJ24iIiIjIoGwC9oPXJ4AKP95evQBDVxZgzb5lWOSdQEi7Ar3vTd00k2d0wexhvHBiAuu/uxsA8LPV1Rj6dD8A4OWlCwDvavwoeZwyJSWTrI57KwztXvSXly4AxsP5rzajO2epeR51A7cjulVjxhG/DXgerVCe7tmkmxKjW32GiIiIiEyVTcCOwduIYiEWVUzg7LuXsGjzRiyK3laupL+4Hx+3L0hOGamrP5a6wg71ivuKx/Ez7MaaitQV7oPXJ5QlG7WpNOrjmQxXwPM6rsJvmMpidBihcXGbs8RuxIGFPniSW5QbV2M3xpV56s+6MfiaNuXljHCFXQnuiYiIiCilfAL2t8K45a1G7fg5/OStHpyHG17D1Wrd1fY0+3G4ZwG2nNmIRRd6Use8cg5D3tXYbjKVxUCYfmL7OJHN42pXK98GOILHC5/++d4Qxjx1aNCmwOx5EnWeMEa0KTKII55hXnrlE3XiJiIiIqIZq3wCdvwWt6JQp7Mcxr9ciCN667dK0lu78XrPAmw3nRKjOPjrS4B3AscNc7z345n6Y0ByVZaTGDxjvJkTr/wzTkerk+dWVoOxcZyp/Xim81pqFZgfr4Y4k+Yn736K6Ipnkue1u2pN1jed2qHOT19jWPFlED2vDcKjrfTyrBuDr6k3q75zBj2fuJP7m02Juf6Pg5isWZe+igwRERHRDMVfOnWyfW9icPPtKf4VVSIiopmD8QuVGn/pdNoR1mhvBw4zWCciIiKa0XiFnYiIiEjF+IVKjVfYiYiIiIimOQbsREREREQOxoCdiIiIiMjBGLATERERETkYA3YiIiIiIgdjwE5ERERE5GAM2ImIiIiIHIwBOxERERGRg/GHk4iIiIhUjF+o1FasqMBDD80RNxvMkIB9N44NbMStV7fhhbfENCq9OjT3rEOl9nT4DN7/PIDnnvUrz2OD+E3bGcR0RxAREZWCs+IXmgnsBOycElM2tuPtMydxbJ+4HeoHlpMYPLMfL4tJU2Dpu+tQOXwG7zcfUh7fHQT2nlT+fzQs7p6nCqzq2onmPeJ2IiIioumBAfuMsB/P1G9C3brdOCgmlVwF3AuBsc8HxQQiIiIiMlFGU2J249jAM6hNPr+Gw/Uv4SemaXGc1k2PefntI/hRszuZOtS5Cc+8oj7Z9yYG26uTabhyDHXP7FefGM9rOE4m53Nux9tnvo/1Xu25Wg/sx8c/Xo3kZn1anS6v6Kf4uRi0v6g/Vt8u8jbLyfPr0PbDOswzbAzjbPNJXNee7tmE574RTZ8SYzg2jsHXjuDiO0qS5/Vt+ObaVP+NHT2Enr3iMRrjsURERHqlj19oppuBU2LiOP3qJtTVb0JdJ7B94E38zCTt5z3A+r9ITQ85+MI25Zj6TajrvIbadu247Xh7czWGOtW0+k1pgTW0tFc/xaLkcTK5nlMN1sePpY6rVwPot3bjqfpf4HRUCfANaa+8lKxXut049uPVuKUd0zmB9T+212ZQP+gMDpzEx29v122VeOcMupqPYzCmBNXKlBhdsG6pDs0/rENMO+ZoHHU/3ISlamrsB0dS02uOhlH5rJpmmh+DdSIiIppeyixg13nln3E6Wo01JnO6D/76EqLehbqrxzqvnMOQsKl29W5hC4B9j6M2+ikOa1e/3+rBeYv8zGR9zheb0eC9hsPJ4L4AxPyybDPtg85TLxzWbS2CPQFUxgZxfq/6fO9nGIz5UWU2L31vCGPiNiIiIqJprHwDdhxGaBxYtNTk6u9bYRi+7Nr3JgYHTqoP/TSQw3hh3S9wuuIZNS119fnlpQsA72r8KHmcfqqKTI7nrFsIb/R22oeJfLy8dAEwHtZNkcmizUrI86gbuB3RTZEZR/w24Hm0Qnm6ZxOe69mpPnSrzxARERGVgTIO2LcjUAHcup7h6u+L+/Fx+4LUVJr6Y0JQfBgvrNOmhSxITrM5eH1CmROenJ6iPGzNYc/lnIO3065wGynBdjYOXp8AKvy6aS4226zEYjfiwEIfPMktyo2rsRvjyjz1Z90YfE2b8nJGuMKuBPdERERE01X5Buz7/hTrvddw1lYAPYGQ6c2Uu3FMtxTiwV9fQlRLeuUchryrsd1k+ohcjudUp8dsP2YylUbHdKqNRgz4xfyyarMi8njh0z/fG8KYpw4N2hSYPU+izhPGiDZFBnHEM8xLr3yiTtxERERENC2UWcDuxvofq9NJ2hfg9KvaKjESb+3G6z0LsN10SsxvcQu6KSo/Xo1bndo59+OZ+mNAu3ac3XXOcz2nOJVGeejXXf/Ju58iuiKVbliTXZ2frtVTSduPZ179FIu0/Oy2mSrrm07tUOenr1GnuCjrpw+i57VBeJ5Vp70868bga+rNqu+cQc8n7uT+ZlNirv/jICZr1iWnzXBNdiIiIppOymxZR/6aKREREeWu9PELzXQzcFlHJ1B+cVR/FTz9ajkRERERkT1ldIWdiIiIKD+MX6jUeIWdiIiIiGiaY8BORERERORgDNiJiIiIiByMATsRERERkYMxYCciIiIicjCuEkNERESkYvxCpbZiRQVemvMdcbMBr7ATERERETkYr7ATERERqRi/UKlxHXYiIiIiommufK6w73sTg+3Vyv+jn+Ln63bjoLgP5aAOzT3rUKk9HT6D9z8P4Lln/crz2CB+03YGMd0RRERE01XJ4xea8WbWFfZXXkJd/SbUdV4TU6aZ3Tg2cBKDZ/bjZTFpCix9dx0qh8/g/eZDyuO7g8Dek8r/j4bF3fNUgVVdO9G8R9xORERENHOVT8BeNvbjmfpNqHPENwQVcC8Exj4fFBOIiIiIqETKZ0qMZt+bGNx8O21KzMtvH8GPmt3J50Odm/DMK+ZpwDUcrn8JPwGAF/fj4x+vhtcsDbtxbOAZ1Kop+nPKWOYnndZjzAuI4/Sr2/DCW+pTaTlz8Pw6tP2wDvMMG8M423wS17WnezbhuW9E06fEGI6NY/C1I7j4jpLkeX0bvrk2Vfexo4fQs1c8RmM8loiIqNimLH6hGWtmTYnJ4OAL25QpM+q0mdr2N/Ez/Q5XjqXS9QH5j1fjVqe6/dVPEU0eoATQ0KUtEs8pY5Zfxmk9cZx+VTnm5z3A+r/Qps3Iyql4+e0jGBw4iY/f3i6kWHjnDLqaj2MwpgTVypQYXbBuqQ7NP6xDTDvmaBx1P9yEpWpq7AdHUtNrjoZR+ayaZpofg3UiIiKiGROwG7xyDkPiNjP7Hkdt9FMcNrtqLqa91YPz0Wqs2SfsVyQHf30JUe9C5Yq7WBYT2geWp144LCYV1p4AKmODOL9Xfb73MwzG/Kgym5e+N4QxcRsRERERGcycgH3fmxgcOKk+9FNLrL28dAEwHjadS/7y0gWAdzV+lDzn97E+NR+l+N4KQ/vCTlbOUvM86gZuR3RTZMYRvw14Hq1Qnu7ZhOd6dqoP3eozRERERGRqZgTsL+7Hx+0LktNJ6uqP2brCfvD6BFDhN12t5eD1CWWeeXJai/KwM4e90GTlLLXYjTiw0AdPcoty42rsxrgyT/1ZNwZf06a8nBGusCvBPRERERGllGfArk0VMZhASLtB065XzmHIuxrbzaa5yNIKwbQOFopdFhmPFz79870hjHnq0KBNgdnzJOo8YYxoU2QQRzzDvPTKJ+rETUREREQzVvkF7K/8M05Hq7FdnapybB+At3bj9Z4FyW12p8QA+/FM5zXUtqvHGVZh2Y9n6o8BWloh1043q4OUrJyKrG86tUOdn75GneKirJ8+iJ7XBuF5Vp328qwbg6+pN6u+cwY9n7iT+5tNibn+j4OYrFmXnDbDNdmJiIhopiu/ZR2LyWLJSMeZLuUkIiJymLKMX8jR7CzryIBdSlz73M7a5tvx9hmLG1DT1lYvlFzKSURERKLyiF9oOmHATkRERJQFxi9UanYC9vKbw05EREREVEYYsBMRERERORgDdiIiIiIiB2PATkRERETkYAzYiYiIiIgcjAE7EREREZGDMWAnIiIiInIwBuxERERERA7GgJ2IiIiIyMH4S6cy+97EYHu18v/op/j5ut04aCetrNShuWcdKrWnw2fw/ucBPPesX3keG8Rv2s4gpjuCiIhouiqL+IWmFf7Sab5eeQl19ZtQ13lNTJGn5WU3jg2cxOCZ/XhZTJoCS99dh8rhM3i/+ZDy+O4gsPek8v+jYXH3PFVgVddONO8RtxMRERHNXAzYHWc/nqnfhDpHXLGvgHshMPb5oJhARERERCVSXgH7vjcxOHAy9Ti2GwDw8ttHjNsHTmJw4E38TD1MTD+2z3DWghPzS5ZFX/60K+zqlffk4wjeflGX/OJ+fGx2zlw9vw5tPVtQ5wEqn92J53p24rmeTVgq7mfm+XVo69GO2YZVz6eSPK9vU7crj+TVdNP8jMcSERERzURlFLBvx9ubqzHUuUmZqlK/CXXP7E8lXzmGuvpjGMI1HK7fhMNXqrHl7e0AgIMvbEsd03kNte15Brt2XDmWyrP+JfwEdqbZxHH6VeWYn/cA6/9CC+p349iPV+OWVvdXP0VUOFL7kPCxWueM3jmDrubjGIwBY0fV6TDNJ3Fd3C9NHZp/WIeYdszROOp+mAr0Yz84kppeczSMymfVNNP8juDiO8azExEREc00ZRSwK2pXK1fVrS1AQH9lWvTKOQyJ2xzo4K8vIepdiFoA2Pc4aqOf4vAr4l4p2oeSp144LCYV1p4AKmODOL9Xfb73MwzG/Kgym5e+N4QxcRsRERERGZRRwH4YL6z7BU5XPJP9lBDDVJpnlCDY6d4KQ7uH/eWlC4DxsAPmvAOeR93A7Yhu1ZhxxG8DnkcrlKd7NummxOhWnyEiIiIiU2UUsEMN2rUpIwuwPS1o349n6rfhhbd0m17cj4/bFySnmijTZqaXg9cngAq/I1aVid2IAwt98CS3KDeuxm6MK/PUn3Vj8DVtyssZ4Qq7EtwTERERUUoZBey7cUx3o+bBX19Km8dtbQIhfRBvRpt+YkaWlqtszvnKOQx5V2N7kW+WNeXxwqd/vjeEMU8dGrQpMHueRJ0njBFtigziiGeYl175RJ24iYiIiGjGKqOA/be4hdX4kTa15cercatTvZlT5q3deL1nAbbLpsS88s84Ha1O7mNYRUaWlqusz7kfz3ReQ217qu5eYY+sbzq1Q52fvsaw4ssgel4bhEdb6eVZNwZfU29WfecMej5xJ/c3mxJz/R8HMVmzLn0VGSIiIqIZir90Wo72vYnBzbfL+NdXiYiIioPxC5WanV86ZcBecNvx9pnvY714iRsAop8WKYjejWOGbwau4bC2VCQRERHZNnPjF5oqDNiJiIiIssD4hUrNTsBeRnPYiYiIiIjKDwN2IiIiIiIHY8BORERERORgDNiJiIiIiByMATsRERERkYMxYCciIiIicjAG7EREREREDsaAnYiIiIjIwRiwExERERE5GH/pNFf73sRge7Xy/+in+Pm63Tgo7lNydWjuWYdK7enwGbz/eQDPPetXnscG8Zu2M4jpjiAiIqKUso9fyHH4S6fF9MpLqKvfhLrOa2LKlFn67jpUDp/B+82HlMd3B4G9J5X/Hw2Lu+epAqu6dqJ5j7idiIiIiAqJAXvZqIB7ITD2+aCYQERERETTWJkF7Nvx9pmTGBzQHkfw9otq0ov78bHZduzGsYE38TPt6Yv78XHy+W4cSx5zEoP6/TIyHntsXyrl5beP6M6Z7XlNPL8ObT1bUOcBKp/died6duK5nk1YKu5n5vl1aOvRjtmGVc+nkjyvb1O3K4/k1XTT/IzHEhEREVFhlFHAvh1vn/k+1o8fU6aq1G9CXf02vPAWlOD5x6txq1Pd3jmB9T+2GyTHcfpV7Thgu63gejeODTwDaPm9+ikWtQvHXdGX8yX8RJekBfQfv71dt1XinTPoaj6OwRgwdlSdDtN8EtfF/dLUofmHdYhpxxyNo+6HqUA/9oMjqek1R8OofFZNM83vCC6+Yzw7EREREeWvfAL2F5vR4L2Gw8/sF1OAfY+jNvopDr+iPn/ln3E6Wo01uqvettg9TszvrR6ct3Oc6uAL21BXvwlPvXBYTCqsPQFUxgZxfq/6fO9nGIz5UWU2L31vCGPiNiIiIiIquvIJ2OsWwhu9jSFxO4CXly4AxsO6VVwOIzQOLFpq8wp2kr3jXl66APCuxo+SU16+j/Veca+p53nUDdyO6FaNGUf8NuB5tEJ5umeTbkqMbvUZIiIiIiqZ8gnYB28j6l2IWnE7gIPXJ4AKP15ObtmOQAVw67p2BXsBAsk57TLiceYOXp9QlnpMTnlRHs9oV9wdInYjDiz0wZPcoty4GrsxrsxTf9aNwde0KS9nhCvsSnBPRERERMVVPgG7Ou1k+7HdYgrwyjkMeVdjuzYlZd+fYr33Gs6+AgC/xa2oGw1/Ir9qDojH6YgfFMT8nMLjhU//fG8IY546NGhTYPY8iTpPGCPaFBnEEc8wL73yiTpxExEREREVUJn9cJJ646lu+slQp3pl+8X9+PjHq6EkxXH6Ve2GVDENAK7hcP1L+Il682gqGBeOA9LyTOYnHqv7caWX3z6CHy36N9SZzbfX0pvdiPb8Iot57BVY1bUFvn85hJ5kwK2npNepl9PHjqr7Pb8ObT+swzwAQByDr6VuHvW8vg3fXOvWnSOMs/qbWQ3H6s5JREQ0TU1N/EIzmZ0fTiqzgL3QduPYwEbcSgvSiYiIqByVR/xC04mdgL18psQQEREREZUhXmEnIiIiUjF+oVLjFXYiIiIiommOATsRERERkYMxYCciIiIicjAG7EREREREDsaAnYiIiIjIwRiwExERERE5GAN2IiIiIiIHY8BORERERORgDNiJiIiIiBysjH7pdDeODWzErVe34YW3xLQyt+9NDLZXK/+Pfoqfr9uNg+I+5WrPJjz3rF/5f2wQv2k7g5i4T87q0NyzDpXa0+EzeP/zQBHzKwbWwRnKoQ6lEkRT+5OInXgDQ1ExbQYL7EBbcIny//gAuo9/gIS4T8kF0dTeggrt6Wg3uk71GncpiNKOidLHLxKO7HcqNDu/dMqAPaPtePvM97HoxCY884qY5jD73sTg5tuODdg9r2/DN9e6xc2Y/OQ4un4wLm7Ozp5NeO4b0SyDnghOfjCIleqzy79ah01/l0pd+u5OrMEZvP/dwdRGTU75yVRgVdcW+P7lEHr2imm5Yx2yVeZ1+N4V/PY/3VafLMS7W1fgL4VdsleD2i2bge43MIStaN3sxVDnewiLu+m4GnehpX6euBl3B47go/7FJQ3Opp3ADrQ1RB0RuPk3dKARxQrS9fIJ2GtQu2UbPOcPoC8kpplT4pflyocRpwTJlv2ufmjKupzZtwsVj52AnVNiqGRiPziC95sP4f3mMxhDGGebD+H95kP5B+t5mYtT/3Mdlm01ButABdwLgbHPTQKsaYN1cAYH1eHvVmDZ1nVY9j8DyDrusbQYHu1zuM+LufFoxg8eif430NV5AF2d3RjHKPo7D6Cr8wA+6h8WdyXHqoHLA4yHih2sT5Ve9HUeQFdWQfBUmC7lpHyV2RX2Z1CbfB7HacPVdmP6UGfqivnLbx/Bj5pTV36TaS/ux8c/Xg1vMgXCee2fE7iGw/Uv4Se6LWn2vYmPl/4znnrhcHLTz46dxJpPlfOK59TnB1hdYd+NYwOP46yW94v78fGPF+J4sizWdTBMtQGAK8dQ98z+1POc1aG5J4CR5pO4brXt+XVo+6EXF5tP4ro4nQBhnDUcK7tKaTx27Kj+qmMEJz8I4eb/bMTzJ1NHKHnXwXj9T8jTKj/DsXEMvnYEF99RksRvGJJlMc3PeGzWTM/JOoB1UGwK4/P/NoljeV5h92/oQKP6bb2ecqXcTvAdRFN7DcKGK/LCNAtM4qrhyqoxfbzXzhVC8Zyj6NflmX7FX59ukV9gB1p9vYZ6+jd0wB/KUJ4Mx4llSauf6ZVWoR294jcdFnWAMOUCNqe1eLeidXM95ho26trMkG7sP7F+Yl+YE/tPf05J3U3LKY6ndJWNO/FEvZpb2pVrWVnkxLqn9a2MWb9nmi5j1bc5tgsVzwy8wh7H6Vc3oa5+E37eA6z/i/14GUgGpehU0upe/RSL2t/Ez9SjDr6wTdlevwl1nddQq6W9tRtP1f8Cp6NKIKvsYwzWrc4JqAGudt5MwToADN4G/qhZLTMA7MaaFddwVg2gLcuZM1kdtuPtzdW6em9KC9ZffvsIBgdO4uO3txu2F0ccg68pV+TfPwqs6dmEpeIuaZRgHUfV414bhOdZG8e9cwZdzccxGFMCIeVbAeEDgqk6NP+wDjHtmKNx1P0wlV/qG4ZDeP9oGJVaWUzzyyNIhNU5WQewDgUVPnUAXb2jSrDQeQD9o9kE6zKTuHpCuerePQAsb9kKF5AMltCrpHWdGIAruAPqnQAZpM7Z1Qs0tgvHjXarV/0PoEsIdE3zi0SBqlVquZR9/UtGEc4UgGU4LvXtg9K2FbbrZ0VSB9SgtmEJxrW0zgOZg3UAiH6AjzqP4GpcCTrT2mxzPRLa9t4Ilm+209aZ6PvP5JxmTMtpIyi99WGy/c1ZjU+5gvdt6D1JOSV9m2u70JQqs4A95eCvLyHqXahcOd73OGqjn+KwduX4rR6cj1ZjzT7jMQCAV85hSNxmJptz2vVWD87jMXzjRfX5vsdRe+WceaBvt5wyNupQu3p36olA+wCh/0agJPZ+hsGYH1V7xATBngAqY4M4r11Rf+cqrts5LldifrJy7g1hTNzmBKyDM0yjOrh8PiA2gYQ6RSIRyTdYN0pcC+Gu2wsPAARqUBEfwCUtKI5eRDi+BP6A8ZiMQr24auc4WX7RiwgjAL/2FWygBhWjw5mDz2yOCw0j7wmDsjqoKgLB1JN8ifnZbetsFOOcOTKMz2wUom9tKGjf0pQq24Adb4WhTch5eekCwLsaPxo4icGBkxgc+D7W6+e57HtT3X4Sg4ZpNdYynjMnh/HCiQms/64SJP9sdTWGPtVd1c6hnDLyOhzGC+t+gdMVz6hp+V7NL6RxxG8DnkdTX0qa8TzqBjx1+GbPTjzXsxPP9WxBXdZ/Ve3zPOoGbkd00xqEcu7ZpJZjJ54zTPFxDtbBGaZTHTzeebgbvanOZZ9ELCLukafoRPJrfpfPB7jr0dLegbb2DrS1b8Py9PvYbRhGIga4fDVigoE8v2EMnY9geaMSEPkDS2zO585wXGCHmlcH2gxTL3KTsQ7Hj+Cqp0VNy/OKr+EDnMZeW2enGOfMkW58ZlTgvpUrfN/S1CrfgF3n4PUJZbnD5PQU5ZGcp96+IDmVpq7+mHDl+jBCJh+DpefMxyvnMLTicfwMu7GmQnf1O2M5ZRYgoF2118lch8N4YZ2y7ec9C7C96EG7G+7nxW1mlJv4YjdMOkYndiOuLJenTR1QH2krZxRI7EYcWOjTXWnRlfP5dWh71p2a1tN8RrgqqgRkU411YB2yoc1hn1u/TQ1A5mH55g60NhYnkEpEIsnpN6kpFVnMA06y921AxvxCwxhfUgM/gvB7dFeVM7E6zrsVrUFfaupHZ3cWV2F9cJlcNMpYBwxj6LiyrXvAlz5VKEuJSATwLNBNEbHX1tkRz2led4US3E+5vPo2V7K+dUi7kG0zImDHK+cw5F2N7ZbTVSYQyrAUZNrUkIznzNV+HO5ZgC1nNmLRhR5hecbM5YQ2DSjpt7gVdaPhT0zmmUvrsBvHzmj3AKhTjIQ9CmsCkZgbSzfauOaw50nUecIYEQNvjxc+/fO9IYx56tBgNo2gEDLll1bOOOIZ5hJXPlEnbiou1sEU62BP+NQRXI2r83lPDOCuGhjmP4fdQmgY4+56PJbvVIhAEMvdNuabZ8yvF5cGfKjd8iRcIxftX2mVHhdBItMf27QpGDcRi8+Dv9rkg5K0DkE0bUnNv05cC+GusEfWxPzstnU2DOeU1F0n56khaW2dDxt9KyMrS1qavb7NuV2o5MpslRj9OuzC6ijiKjK6HxgSV19JW9FFWC0mtZJKhnMu+re0GzVtSVvJRZGxnOqa8dq0FuvVbvTHWdXBeC6IK8joyhPt+UWW89jNVokxW+FCW01DXCXGZNULde1pbcpLajUY4VjDD9RYrBIDyNeyBqzzy2Jlj7TVQoT6G1a00fowqx/GYh1YB4WhDijcKjGGFTrMVrHIyGqVGP2a2+I+wiodZqtjpJGv7OFq3IUW72cWN1xmyC9tRRabLI4TVxJJX0VFWT9bm9aSXGkkbeUP65VuUnUwngtZrVwiWcc70yoxlm1tRew/oU2kdU9Pz1THVPxi1taZxqe1zH0rY1YWWZqNvs2yXah47KwSU0YBO5WvOjT3/BEiaUF6vmQBu/P87NhJbK/IJlB0HtbBIQoWsE8XYpBFZI3xC5WanYB9ZkyJcYztePuMdoOn8NBNP6FSuosN/+0MfvvBGZz8npjmFMq4md5BIuvgCN+7gt9+cAa//W8h4fcliIjIyXiFnYiIiEjF+IVKjVfYiYiIiIimOQbsREREREQOxoCdiIiIiMjBGLATERERETkYA3YiIiIiIgdjwE5ERERE5GAM2ImIiIiIHIwBOxERERGRgzFgJyIiIiJyMAbsohf34+OBN/EzcftUcFJZSmYl/umJP8Vb8h/8IiIiIpoxGLAXzW4cGziJwTP78bKYNG3UoblnJ57rWgePmCRVgVVdO9G8R9xeBA3v4u+/dxJ/uVjbsBN/+Xwv9jUYdyMiIiKarhiwF81+PFO/CXXrduOgmDRtDKKn+RDebzuDmJjkKB40BX8ibiQiIiIqC7Oql617IG4shMrKRRgbuyVuLpqX3z6CHzW7ha3XcLj+JfwE6vSSH6+GFwAQx+lXt+GFt9TdDGnCcdiNYwPPoFZNGerchGdeSe5obt+bGGyvVv4f/RQ/NwTtxvMVpCz73sTg5tu6fHbj2MBG3NKfN1t7NuG5Z/3K/2OD+I0haK9Dc886VCafxzH42hFcfAfA8+vQ9sM6zEumCekZrcQ/PVGHW4P/jBfviWkmGt7F3z8JDKMCX5zchL++uRN/+XwHHvksiFfOA1j8Ov4///EptTwx9P3jJvz1TQD4CfZ9bxtqkifSp6WnD/8v9XxERFTWSh2/EK1YUYGHHpLPBS6vK+xXjqGu/hiGcA2H6zfh8JVqbHl7uxLA/ng1bnVuQl39JtR1TmD9j7W54ULaq58imjyhEiBDl7ao3cac8ldeUvO5Jqao4jj9qnLOn/cA6/9CmzaTY1leeQl1JxbiR8d2AwB+duwZoNMYrL/89hEMDpzEx29vT22U2XsS7zcfwvtHw2KKKo7B1w7h/eZD+M0nQN1/UafNvHMGXc3HMRgDxo4q6e832w3Wc3Ub//TZuMlV9p9g3398Cjf/VxD/+98F8b//r3E0/cd3sTOZHkPfPyppf3MeaNr0Olq14763DdCO+8ePsfg/6I8jIiIiKp3yCtiTFiDwou7pvsdRG/0Uh7Ur46/8M05Hq7Fmn0manpj2Vg/Oa8cVyMFfX0LUu1C5ai7mpyemiWV55SUcxjP4+MwRbLn1i7RvAQ6+sA119Zvw1AuHjQkFEPu3G5j0eOETE0rp/Pvo8/yJbi47gIY/Rk3sY/yTdmX8/Pvoiy3H4ybz2z8aHMCkZ6FyRV087uZHGLQ4joiIiKjYyjRgN3p56QJgPKyblnIYoXFg0dLtJmkpLy9dAHhX40cDJzE4cBKDA9/H+tRclcJ4Kwzti7d8y/KTdz8FvBM4XoSgXOqdiAPmuB/CX382jrq61CSX1gUVQGwEH+n2GYkBixeYXCu/OQJtNkzrggrA8xT+4nu9+Pvv9eLvv9eBpuzuuiUiIiIqmDIM2PfjmXrjdJCD1yeACr9utZbtCFQAt64fNklLOXh9QpmDXq9OQ1Ef4tXrQsmvLNvx9l88hvM9wPYpX5lmHPHb4rYSOP/vuNnwJ6hTn340MQ54qtRpLgCwE1Ue4ObEoeQWMx9NjAOxj/E3f6dOiVEfnMNOREREU6EMA3YTr5zDkHc1tmvTR/b9KdZ7r+HsKyZperI0u7TpLnbI8pOlAfjZse+j4cL/gxdeeAk/v/AYfmB3rrodOU53qXxCC51L5Wf4p/PAPO1q+Pl/x7DnKXxLm8rS8ByaPFdxLlPgLR5HRERENIVmRsCO/Xjm1U+xqF2dTtK+AKdf1VZe2Y9n6o8BWpphhRYhLdt11dW58tvVY49ZBNspOZZl35vYXvEpXlenwhx84f/B+T/6viG/rG861ez9DIMxP9b07MRzPfbXVr/+j4OYrFmH57I8Ll8fDQ5gMvnsZ3jlHz/G4v+gTm35DxXo+8fvQn59Hcpxf3cE0I77Xi/+/nnthlQiIiKi0iqbZR2pXGS5rCMREVEBMX6hUpt5yzqWzHa8fUZ3pVv/yOYKPBERERFRBrzCTkRERKRi/EKlxivsRERERETTHAN2IiIiIiIHY8BORERERORgRQvYOf+LiIiIiCh/RQvYiYiIiIgofwzYiYiIiIgcjAE7EREREZGDMWAnIiIiInIwBuxERERERA7GgJ2IiIiIyMEYsBMRERERORgDdiIiIiIiB2PATkRERETkYAzYiYiIiIgcjAE7EREREZGDMWAnIiIiInIwBuxERERERA7GgJ2IiIiIyMEYsBMRERERORgDdiIiIiIiB2PATkRERETkYAzYiYiIiIgcjAE7EREREZGDMWAnIiIiInIwBuxERERERA7GgJ2IiIiIyMEYsBMRERERORgDdiIiIiIiB2PATkRERETkYAzYiYiIiIgcjAE7EREREZGDMWAnIiIiInIwBuxERERERA7GgJ2IiIiIyMEYsBMRERERORgDdiIiIiIiB2PATkRERETkYAzYiYiIiIgcjAE7EREREZGDMWAnIiIiInIwBuxERERERA7GgJ2IiIiIyMEYsBMRERERORgDdiIiIiIiB2PATkRERETkYAzYiYiIiIgcjAE7EREREZGDMWAnIiIiInIwBuxERERERA7GgJ2IiIiIyMEYsBMRERERORgDdiIiIiIiB2PATkRERETkYLOql617IG4sijmr0VvnxYef/yv2iGmmVuKfnliNWu3pF59iVeiycZdSe34d2n7oxcXmk7guphXCnk147lm/8v/YIH7TdgYxcR9TdWju+SNEXjuCi++IaeWkDs0961CpPR0+g/e/O2jcRS/n9rTjJ/izk89hufb08vv47//nz4y76P35u/ir79Qo/498jIP/6S+KM4by9hP82clvYvznbTh2QkwjW4r9d4KIiqqychHGxm6Jm4mKZsWKCjz00Bxxs4Fjr7DvDaxG7RefYtXnh5XHVAfrpbD3JN5vPoT3j4bFFFUdmnt24rmudfCISUVRgVVdO9Fs+gmr1GUBlr67DpXDZ5Q2aj6kC9YtypKxPe2I4OQH/Xhnk3Hruv/7OSy//D7++6Zm5ZEM1n+CPzvZg7/61d9gqf6Av/2ust8/DOu3TqGdeOZXPfizPxe3TwXZOJP43hX89r0wdonbHcdifGaUY7sQEVHZcWjAvhBLvwYMRWZAkJ6VQfQ0H8L7Bb1SnKtSl6UC7oXA2OdmV9SLVZYITn4wiMWnH8PzJ/Xbd6JiEXC1z+yK+s/wy03N+O+OvYJeRv5uBd69FcIexwftxRqfREQ0UxR3Ssyc1eitWwlvcsNN/ENySoxxysvQbw/jW1GzY8TjrHle34ZvrnXrtoRxNvm1tHE6xdjRQ+jZq/xfPE6fpny9XYd5yVT9OWUqsKprC+qSl9TiGFSnrEjzgzqV4xtR4xQO6fQOYaqILi+Y1E9fBzEtWZa0eiN13lpZWcRj9WWRl9OSaVnUOkjbRWXWnkBaecR++Ou/OYPvog7L/sKX2rj5b/Bff/QUHkltATCMY5u+izN2pr38+bv4q83jJmnGKTZX/6EZv/xbww4mhGk5WjnUZ0v3duHlltQ13eQ5TesQw5mft+HYCfGc2nbDztnT9xN005lM+9b6tZL++ruHd977dzSe/2M88VP514lFlVYPu+PT4u8ExPPp0jK9XogoL5wSQ6VmZ0pMEQN2JSCHIRDX5rDL0gBgId567E+waExNt8nz+jZ8c+EFk3nNSmAGQzBqMcd0zyY89yzUoCCL4wzUN+HbGeZYQ8xPt800wLRKE+awC+e0bhdBWlmUevj+RfhAobEsi67N0tozVU7P69vwzbob5vVMk0tZZGkZ+nZTGJ//t0kc27oCf6k/F6BOJ/mvqDhhEVRbBuVWaUqQDENAXYFuXfBtTphv/ufv4q++A0PQnpSWZlUH4zmX7u3Cyw0DhvLu2vl/Y8/qeYh++rd44tAp/cEWMvSdJN3W2JX2VRZW7cbn/8eTuPnPf4ZNvxYTZTKMJViNwUx/J6zbBQBefvsIftTsRrTnF3jqhcNiMhHliAE7lZqdgL14U2K8Vaj93WX8g1nALabdu4bzv1uM1cbL6oWzJ4DK2CDOa29671zF9ZgfVWaX7PeGMKb9XzzOrueXY6knjLOmb8ICfX6FsvczDFrVT6YQZRHbTFKW2L/dwKTHC93169IRyymOidpJeKPzcEl3SNH8+R9jeeRj/EYLnE+cwqVIDVZlO7/8b9/HGavj/vbfcVXcZsP1fx3AF74KLNFte+PQ/4llu//MZrCeUvlEnbipME7OR3/0NtZ+T0zI0sX9eGL33+Lmxl/it/t/id/u34u/FvcxI44lu7L5O2Hi4AvbUFe/icE6EdEMULSA/aWvuYDfxfCmmKClfW0l/q8ntuPiE9tx8Yk/wfqviXsVjudRN+Cpwzd7duK5np14rkf/FbR69SuZlpoi4XnUDdyOpF+xzaTWi3mxKCLido1FfoUzjvhtwPNohZiQrsBlSW8zSVneyaFtCyTTmNj16CRway7e0B9UJEurFgK+p/DyyR781cke/NXJ/4p1OX2KOYTxW8D8qp3K0z9/Vz1fD/7KMM0lCydu4I64LWvjuNh2HIML16ltvcl4Q27JPY+T+62C8lN4/v/9Z1i2+8+wbPc5rN3/S5z8E8MOadLHvE2Z/k4QERGpihawv/m7BPA1D14SE7S0313G/9BWgFEf2Ux/yUbsRlyZP6qtLqI+kl9fP+vG4Gva9jPJq8yxG3FgoS/LlR0ADEWtrxxL8isc5QbN2I1xMcEoY1mUYDsb6W1msywlJh0TAN64MQ9YdLckNzNeH7mtzHnXVpxRH6bTbaSUm2HvjBxSptV8ZyHO/Fw73/vCFXYluC+dcVxsU9r4N5+4scYQtGc/zvLzDjbt1oLyPcI0mg145/+lBfOP45PdmafHpI95m2R/J4ApaBciInKqogXsiI5g6Gsr8R2zaS6ytGLYG8KYpw4NJtMyFHHEzW7kynicBXV6xZp3raYAWOSnJ3sjl6UBwJ4nUecJY8TWV/SZyyKdyiCWRWyzrMqSJ7EsemKaWE7R0DxEveP4E2E5R9uEaSQGYtrf/juu+p7CN82msmTjz5/DOt8wLiYD/dsYz3Cz6PKmn4ibiqAOzbolDWP/dgOTwh7INM5kNt1Bo3chPvk7MSFLq3bj8/1/jsX/ZhXMW8g0ljTiGMz4d0KRc7sQEVHZKOJNp0hbCUa2Sgx+dxn/49Kn6hSaQt90irQVQfQrNshXohBXNhFXqbAirv6QWoVEnh/SjjWuXmKWJi+jrF0ylkVY/SJzWcRjxFVi9D/wVIfmngBGsmhPqxvwLMsiTbMeE7BaJQaQ3LCpUdK1aS3GFV+s0oTVWaxWmTGQr+girhIjriIjrhajlEX84aSf4M9O/jEu6o7L9aZTs9dCksU4k41dzV//zRk8c2uKV4kRx5L4OrIcgxnaxqJdwJtOiYqGN51Sqdm56bTIATvRdKasw75yyCxodwIxuJ55/vpvzuC7iwLYu8NfkvsNiKj8MWCnUmPAXjTpV8WSTNdaJjknt2cEJz8I4eb/bBR+PKkUjFfjDSIf4+B/uoFvzuSA/XtX8Nu2eQzWiaigGLBTqTFgJyIiIsoCA3YqNTsBe/FuOiUiIiIiorwxYCciIiIicjAG7EREREREDla0gL2ycpG4iYiIiIiIslS0gJ2IiIiIiPLHgJ2IiIiIyMEYsBMRERERORgDdiIiIiIiB2PATkRERETkYEX7pdMp+aUw71a0tgB9xy/Cv2Uz0P0GhqJ5ppVSYAfagkuU/8cH0H38AyTEfUouiKb2FlRoT0e70XWq17gLOYN3K1o3ezHU+R7CYtpUynlcB9HU/iRiJ6bo9VgyWb7Gcm7PfGVZzlxNWf2IFFMSv9CMxl86LabADrRt2QpXckMNard0oClg9VwviKb2DuF4AKH30NV5AF29o/qtOhbHARnyy51/QwsqRruVcnUeKM4bdJKsDrK6F4OsLJSVvMZ1Mcj6ttRlkb3GLMqSsT2Lw7qcBTZF9SMicrLyCtijE0jEJpDAMBKxCBL6q3K5phVFL/o6D6Ar6ytHuR6Xqxq4PMB4qEhvzFkpdd2pdJzUt6Uui+w1VuqyyMjKSURExVZeU2JKKbADbQ1R3de1Najdsg2e8wfQF9mK1s31mGs4YBJXT7yBIZ+Nr3vTzp3ha2KvJD9o031S+/s3dMAfOoC+kOEAI9NzjqK/8z2EEURTew3C2tQLw1QM4WtzrRzJD0FKOy13C+kwy89mmxnKqs8vU1ksmNZdd6xlfnKuxl1oqZ+n26K1J9LKOt6b6h/xOH1aeln157QmPaeURf9FbZwz23Gdof/E/PR1F9OSZUlrLzhsnKl1kLaLyqw9gbTypPWDFav6ycpp2JbOsh/ssKif9Jz6doM4bce6XcRz2q0flaeyj1/IcexMiWHAnqu0NxNdwB4yey5IOz7fNKv8alBrmJcvBNtSVufMFLCn5h27GnehpSqkllcN9mJWc1+t8lOZ1l15E4b25hvYgbYgdB8srMqSiVVZZPnJuRp3ocX7mUndhXPK5qKn1c/mcTK265Cp/3TMzmnaf7I0Y/+J57RuT0FaWaz6VmVZFqt+L8Y4U5mWRZaW65iQ1Q+Zy2lH2jkzMK2fwHBOWRnl7WJ7LNGMUPbxCzmOnYC9vKbEkIlhhEcAf3WN8jRQg4rRYXtvmAWQuBbCXbcXHgDwroLfPYr+Qr4pBmpQER/AJe0NOtSLq/El8JvMTzaUJVdZ5GebeM7oRYStzhkaxrj2f/G4XOnPKZNN/9k9ZzZybetClEVsa0lZCjLOciWWUzaW9MTjJPXLWSH6QWRyzopAUNhiUj+77UJE5BAM2GeARP9nSFStgguAy+cr7TzU6ETq6pjPi7nxKGLGPfLi8vmAmC4PDCMRA1w+9QOKnr4sOcoqP5tcPh/grkdLewfa2jvQ1q6fcqJeRUympb7STy9LFizOKZWp/3I5Z1ayaOsClyW9rSVlKcA4y1XGsWQhq/plo8D9AMjOOYyh40dw1dOipu2AX03JtV2IiJyCAXvRKG94pSPLrxeXRgJ4LFADf1UE4XyvyAIAfHB5xW0ZRKIZrjzK6mAuEYkAngWG1XpcHiARGTbslz3zshQjv0QkosxT1lbfUB/Jr+6DPlw9oW3vTl5RTC+LTZJzSsn6L9dzZsVmW2csi3nfyqS3tc2ylJh0LEkUpX4Z+yEHGc85jKHjSlr3gA+NatCea7sQETkFA/ZchYYx7q7HY9pXqoEglrtH04Jh069nNVbBD3JPs8ov0f8ZENyG5bFCTIe5iVh8XmqajV3q19CNG8zLqLGqA2BSd5v9kKu0shQjP/GcaSxWLsp4nIzFOWUy9p+Nc4r9pydLQ7ZtnbksaX2rJ5ZFbOusypInsSx6YppYTrvE4wpWv8z9ICXWD5CcM4gm3RKYiWsh3NWSxPoREU0zvOk0HwHjigRpKyAIqysY042rbRQkTZof4GrcAf+19zKvXpEkuYkrbeUI/Qoy+h+7EW9yNZYfYjmldbCou+EYcfUOWVkysCqLZX5y8hvblJvikl/v61YGka9gIRxnc3UL+TllrPsv8zkt+s8yTV43WXtmLItV3wIWZRGPKdQ4k7zGAOuySNOsx5KUZf1go5zmMvaDlHn9rM9pPTYV1u0iG0vQ1ePuwBF81J/Htw40LcyI+IUcxc5NpwzYZ4wgmjYAfRZvSERERMT4hUrPTsDOKTFlztW4S73JqgZhButERERE0w6vsBMRERGpGL9QqfEKOxERERHRNMeAnYiIiIjIwRiwExERERE5GAN2IiIiIiIHY8BORERERORgDNiJiIiIiByMATsRERERkYNxHXYiIiIiFeMXKrUvv0xg9myXuNmAV9iJiIiIiByMATsRERERkYMxYCciIiIicjAG7EREREREDsaAnYiIiIjIwRiwExERERE5GAN2IiIiIiIHY8BORERERORgDNiJiIiIiByMATsRERERkYMxYCciIiIicjAG7EREREREDsaAnYiIiIjIwRiwExERERE5GAN2IiIiIiIHY8BORERERORgDNiJiIiIiByMATsRERERkYMxYCciIiIicjAG7EREREREDsaAnYiIiIjIwRiwExERERE5GAN2IiIiIiIHm+17pOqn4sZCcLtdSCQmxc00XQR2oG1zG1Y0rMeK6vkYG7qM++I+poJoav9TuEbO4s49Ma3clUPdi1GHYpxzinm3ovXba3D/wjnExTQqomKMpWKcUxNEU/t30NiwXvlbOv8BroRGxJ1SZH93ZWlUUIxfqNQePLiPhx56WNxsUD5X2AM70NbeoXvsgF/cx1INard0oCkgbp/BQu+hq/MAunpHxRRVEE3tHWjbshUuMakoZH1U6rLkx9W4C23tVnXJlqxdiqHUbV3q/HKVazll/ZfrOacLWf1k7ZKrYpxTzr+hBRWj3crf0s4D6DrVK+5iJPu7K0vLi6wfSq3UfVTq/IhyVz4BOwDEB9Ct/mHsHvCh0RF/gMpVL/o6D6Dr+AdIiEkl56SyZJbofwNdnQfQFxJTpoNSt3Wp88tVMcpZjHM6SbnXrwYuDzAeyhCkT7ly7wei8jCretm6B+LGQqisXISxsVvi5uIJ7EBbQxTd2h8d71a0bvZiqPM9hAH1KkILKtTdx3vVgMm7Fa2b6zFXfy5M4uqJNzAUDaKpvQZh7RzCOV2Nu9BSP0933Cj6O99DWMgrdT71aWAH2oJLkqkY7c585cUkv2QdMqpB7ZZtWO7WnqfKk/GcYrtq27TyxweMaRnqLuaXarP0NFt95JOVRTxWXxZ5OaVyPafQ78a2thifgHX/QdIuknr4N3SgNnoEH/UPm2xbbF0Hab/DupzRDO1iJVN+pX4dpY1DdexmKqdVu8j6r0jjWlZ3MS1ZP+9WtLYAfboy+Dd0wB+St5t0nEWC1vVLa2fkP5byOqfstWnBNL/U3zrr/lOZ/d3NlGZxzpz7IcNYSq+jrn4yVq/btPPBkKfl+IT8fTqX11987jew5D8stjyndVmQ1m62xgvNeF9+mcDs2fJLzOUzh933OFYsuofr6rw+12PfxPKv3cLQ0GXcV19A6D2AU6d7cGVkPmqfVuef3ruM0IUxzKpehS/71PQL2lzGKvgbHkFcm6c6ZyWqa+fgjvr84cVrEbj/Mbo+/BWuXOjBleR81ir4GxZi7MTr+KSvB2Oz1+KJhsXqnMMa1LY8pcurRz6nUef+zbNqPj24El+GxuDjmMw4h1b9YxXr1pUzNVcz4zmFdgUARM8l909LE+p+Jb4Sa59OndO6zSRlkfWRtCxBNH27Cfe1fjeURdZHMvbPKdY9WVa1LnNu9SCsC7JMx6es/2TtIuEOrMeCewMI/W49Wr+xEhNDf8CChlWYdf04wlFJu0jbWlLOXNs6U34lfR0J/T4yH0u0vwWZymnVLrL+k57T/hgU21pWd8vX5r0/4OGVq+G+pfVnECuDX0H4tLzNpOMsJKmfrF0y1M9SzueUvTYlTPPTjpH1n8rs7640zfqcyLUfMrWL1eshebwZyevWtM1Sf88sx6f0fTq315/bXQNPtcvinLKyZB4vrsZd+PrGjVgyewyhm1+oW2mmm1lz2AHAXY8WdQ57S1UodbUgUIOK+AAuaZ9yoxcRji+Bv0Tz1hLXQrjr9sKj21YRCOqe5SA0jHFxmxnvKvjdo+i3ceXR9jmzEerF1VzauhBlEftdUhazPjKVxTmlaXriOfXjM5v+sykWncRc72LA58XcZJ0nEYuIe2bRLlmU0/Y5bSjZ60jsI7uyaBfbxLJIxpm0re3WHcMIjwD+6hrlaaAGFaPDGa+kZjPOciWtX44M5xTbuhDvHeI5Jf1nm+ScheoHabtkKe/XrV3FeP3JiO1iMl60KZH6bzyI7CivgF2bw947CsQmkl/tuXw+QzDf1q7/eqwEoqmyAMMYOn4EVz0t2d8ca7ixVv9VpYTPi7nxKGLidk0u58zKMBIxwOVT3+xlClwWl89nGAfSshj6yFpW55SmpUjHZ6b+y0EiEgE8C1Ab8GF81Ad/YDE87ggSZtMKbLZLVuW0e06p0r6O0vvdpmzaxab0skjGmdjWOdQdABL9nyFRtQouNX8787KzGme5EutXCLpzSl+bOcqq/2ySnbNg/SC2Sy6vh3xet7kowutPphjjhUhTXgG7JvQe+vEkar3K00QkYrghVXuk5pUpf9zM+eBSz1M4wxg6rrs51s4fLe9WtAZ9uHpCK3+3vatjkaj1Fahcz5kV5carRCTD1YSMZZH1kTntjSo1K8xmWSSyO6csLUU6PmX9B+TULohEcRdeeDwRhPtDcDU8CVe+b2oZy1kMpXsdpfe7TRnbJfv+Sy+LvXGWa90Vvbg0EsBjgRr4qyII27mymtc4y75dMsv+nNLXZo5y7j8J6Tnz6gdz6fllQ/a6zb6PFBbv03m9/izOKVGM8UKkKc+AHUC4PwR/o/q1W2gY4+56PJbhK8f0r+luIhafl/oquCCCaNKtXpO4FsJdYQ9ruVwVUb6Sa9wg1k1j45yyP3iyNAAIBLHcPWrvDd5GWdL7SEcsi9jvWZXFQjbnlKXpiefUy9h/Cmm7iKITSLiXoCI2jHD0IsKYh7nZXi0T29pmOXMm5lfq15Gsj/TEctpsF2n/iecUy2J3nAG51V2V6P8MCG7D8ljm6TBAFuNMrJ+OtF1ylNU5xbYuBPGcVv0naZe0NNk5C9APacT8bLP3us2qj2Tv0zm//u5Yn1Mm53YhyqxsbzrFvT/g4YY2LPt9D8LREYQvPIB/s+4HLIQfnohH5mPJk02oV9O98R6Eo1/gzq35qA62KttrK/BVxHFTf+PJnDGTm92q4G/w4/dXzG5e/SpcK1vxRJNajtoKRHoP4nKmN9F7lzExewPWbtyoHNcQwDxdWax9gTtDY5jV0Ia1Wp5a/W7ZOGc0gVnVT6FePVZpF1laFfwNK1BVq+ZVFTesHGDZZjbqZ95HaqJpWUYQHpmP2qe/pRxTNRtXT/wSoWSfWPWRTKZzWtc95REsWKm/6VQ2PiX9p9Zd2i6mvgpX9Sp8OfQrhKNf4Pdz/xgV9z5Xb4Cy0S6mbS0rp41zypjmV+rXkdBHwt8CwKqcsnZRDpP2n+k5M41Bi7bOUHfL12bSCGKzl+EPlz7MeGOzQjbOVKb1U5LM20VSv9RZLWV/TtlrMxPxda6R9Z9K0i7mabJz5toPGdolvgyNQfWHnMxeD6Yyv27N+0g2PmXv07m9/uJf/v8QuvqwxTllZck8XnjTKZmxc9Np+SzrSDRtBNHU/iRi4lJuRI4WRNMGoK9UN/DR9GG11OQ0xfiFSs3Oso4M2IlKQljT2Oaa4URTLbXmtM11tmkGENdoL6+xwfiFSo0BOxEREVEWGL9QqdkJ2Mv2plMiIiIionLAgJ2IiIiIyMEYsBMRERERORgDdiIiIiIiB2PATkRERETkYAzYiYiIiIgcjAE7EREREZGDMWAnIiIiInIwBuxERERERA5WhgF7EE3tHWhr70Bb+w74xWQiIiIiommk/AL2QA0q4gPo7jyArs73EBbTiYiIiIimkfIL2ImIiIiIyggDdiIiIiIiByu7gN3l8wGxCSTEBCIiIiKiaaiMAnblZtOWqhC6T/WKiURERERE01IZBey96Os8gO6RAFo2BMVEIiIiIqJpqYwCdkUiEhE3ERERERFNW2UXsAMAPAvgErcREREREU1D5RmwExERERGVCQbsREREREQOVn4Be6gXV1GPlvYOtLXvgF9MJyIiIiKaRmZVL1v3QNxYCJWVizA2dkvcTERERORYjF+o1L78MoHZs+V3X5bfFXYiIiIiojLCgJ2IiIiIyMEYsBMREREROVjZBOyVlYvETURERERE017ZBOxEREREROWIATsRERERkYMxYCciIiIicjAG7EREREREDsaAnYiIiIjIwWb7Hqn6qbixENxuFxKJSXFz0ZQ6PwCAdytav7ESE0N/QPWW7Vhw6yzu3BN3yoN3K1q/vQb3L5xDXEzTC+xA2+Y2rGhYjxXV8zE2dBn39enFLueMEkRT+5/CNeLANizUeMlLEE3t30Fjw3rl/PMf4EpoRNzJpiK0dVHrTkTlYEriCZrRHjy4j4ceeljcbMAr7OUg9B66Og+gq3dUTJkiNajd0oGmgLh9KtSgdssu1HrVgLZ9B/ziLgJX4y60tXekPVoba8Rdp6cijhf/hhZUjHYr5+88gK5TveIuJko4XopYdyIiomJhwJ6P6AQSsQkkMIxELIJEVNzBIaZLOYtiMTxu9b8+L+bGo4gJe4gS/W+oAWc3xjGKfjX4/Kh/WNyVDGrg8gDjITtBOhEREdk1q3rZugfixkKorFyEsbFb4uaiKXV+Mq7GXWipnydsHUV/53sIQ73Su7kecwEAk7h64g0MaUG0IU04DkE0tbegQk0Z7z2AvlByR+Xr/oYouo9/gIRuc1EEdqAtuCT1fLRbuZqaVn4Y6pjeNvr6FZZ/QwcadUXU3B04YjP4DqKpvQZhQ/mMfZDWf5n6yER6m8C548WqLGnlgL2+NT1OO2/h2zrJou5iXxjOaTXmAWlZxHPaahcimjJOiidoZvjyywRmz3aJmw04h70IHl68FoH7H6Prw+vwNnwFVzoP4ub8NtT6xhC6WYembzfhfu8BnDrdgyvxlVj79OOYvHAOcQSNaSPzsaR2Du5oae0tgC6t9mlhvrLvcaxYdA/Xs5yX62rcha9v3Igls8cQuvmFmGyiBrUtT+HLPrUsF3pS85TvXUbowhhmVa/SpafmIKfa5lfKcZnmW+chHurBlfgyrPDdQPfRQ4jMXw/PDbvBOgBUwd/wCOKGMlbB37AQYydexyd9PRibvRZPNCxW50Lb6CMT02e8CPnpy2La7/J6A5nGS+HbOsmi7vdvnlXHpTJ2GoNaW0vGfIaylHLME1H+nBRP0MzAOeyO4IPLq3saqEFFfACXtKt2oV5cjS+BP2CSpiemRS8irB2XJ20KiP1AVlERCIqbHMfl8wGxCSTU6RqJSHZ1zCRxLYS7bi88KFQfOXi8iOfUl6UECt/WGYSGMS5sMh3zpSgLERHNaAzYSywVQGqGkYgBLl+NSVqKy+cD3PVoSd4EuQ3LtbnZJTeMoeNHcNXTopYl842cU8XjnYe70ZvqXPZJxCLiHnmKpvqrGH2UPiambryk55cqS0kUua0BddpL8pz66TjWY75oZSEiIlIxYC+qXvR16ufcAolIBPAsQGqmUurKb3paSiISAeID6NZW31AftufsFtwwho4rZege8KHRELQrgdxU0+awz63fpgZf87B8c/FWe8m/j5w9XtLzK9S3FtmPl2LUD96taA36cPWEdr5u4Qq7+ZgvSlmIiIh0GLCXWmgY4+56PKZ9XR4IYrl7FOGQSZqeLE1PmzJQVEE0bdmaDNwS10K4K+wBq+kDJRQ+dQRX45NKAHZiAHfVoCrbqT+22e2jbIjnnMrxIp5TX5YCyGq8iGXJhWndrVZRkoz5QpSFiIhIgjedFsHDi9ciMGfM8IMx7sB6LLg3gNDNcwiPzEft099CfcN6rKiajasnfonQPQAYQfjCA/g3qz88U1uBryKOmxfOIS6mmf3wSzSBWdVPob5JSffGexA2DT6Msr/p9KtwrWzFE2o+K2orEOk9iMu6vOKR+VjyZJNSR11ZzNrGwLsVrd/+FurFuuWkDsua5uJO3znEF69BvclNhnJWN5368fsr+hsjtX1s9JEJszZx5ngZkZQFAB7BgpWrMOdWpvOkMx8vhW/rJLO637qMidkbsHbjRuV8DQHMS7anbMzLy2LWv0TkXE6KJ2hmsHPTKZd1JMfxb+hAo2cgbck9IiKiYmM8QaVmZ1lHTokhB1F+8ZLBOhEREVEKA3ZyEPWmPgbrREREREkM2ImIiIiIHIwBOxERERGRgzFgJyIiIiJyMAbsREREREQOxoCdiIiIiMjBGLATERERETkYA3YiIiIiIgdjwE5ERERE5GAM2ImIiIiIHIwBez68W9G6ZStcqEHtll2o9Yo7TBHvVrS274Bf3G6maHUIoqm9A23tHWizWxYiIiIiSsOAfUrUoHZLB5oC4vYyEqhBRXwA3Z0H0NX5HsJiOhERERHZwoA9H9EJJGITSGAYiVgEiai4wzRQDnUgIiIiKmOzqpeteyBuLITKykUYG7slbi6aUueXUWAH2oJLUs9Hu9F1qleZgrK5HnP1+2ISV0+8gaEo1KkkLahQU8Z7D6AvpPzf1bgLLfXzkkfp09LPO4r+zvcQ9m5FawvQd/wDJNQU/4YO+EO6Y4shsANtDVF06/IlIiJyOsfFE1T2vvwygdmzXeJmg9m+R6p+Km4sBLfbhURiUtxcNKXOT64GtS1P4cu+Azh1ugdXLvTgSmhESbp3GaELY5hVvUqXfhZ37iEZrKNX3T4yH7VPr8H9C+cQB3D/5lnlXBd6cCW+DI3BxzF54RziCKLp2024rztuSe0c3LlwDvF7f8DDK1fDfSuVx8rgVxA+rZwzE1fjLnx940YsmT2G0M0vxGRLruoNCMwaxoBWbyIiomnAWfEEzQQPHtzHQw89LG424JSYIqoIBMVNcuq870vale/oRYTjS+A3m+seGsa49n/xOINhhEcAf3WN8jRQg4rRYdtzyhP9b6Cr8wA+6h8WkywoN5u2VIXQfapXTCQiIiKiLDFgL4phDB0/gquelqxWSXH5fIC7Hi3J1VW2Yblbt0Ngh7q9A226aTMunw+ITVhOPUn0f4ZE1Sq41H3HQ8UMpHvR13kA3SMBtGzI8gMLEREREaVhwF40wxg6fgBdnQfQPeBDoyFoH0YiZtgZAJCIRIDkyiqpR19InaMe9OHqCW17d/IKeyISATwLYD37qReXRgJ4LFADf1UEYdMr8YWViETETURERESUAwbsRRFE05atyQA6cS2Eu8IeMJsyExrGuLsej5lNgQEAWKzikvE45So7gtuwPGZ/OkzepB8iiIiIiMgOrhJTFDWo3WKczmJY0QXpq7qk0o2rxCA+kFxpRVwlJrkSDEyOM6QpXI074L/2nroajT1anncHjmQxj52rxBAR0fTkrHiCZgI7q8QwYJ8xgmjaAPSV6kZQBuxERDQNMZ6gUrMTsHNKTJlzNe5Sb1KtQbhUwToAhHpxFdoNtPZuuiUiIiKidLzCTkRERKRiPEGlxivsRERERETTHAN2IiIiIiIHY8BORERERORgDNhzVFm5SNxERERERFRwDNiJiIiIiByMATsRERERkYMxYCciIiIicjAG7EREREREDsaAnYiIiIjIwfhLpzkqdX4AAO9WtLYAfccvwr9lM9D9Boai4k7TWNHqF0RTewsqtKej3egK1aAtuER5Hh9A9/EPkNAdQTIm7Xmq17iLXYEd7IecFbAfnMy7Fa2bvRjqfA9hMa3UnFQWKpopeX+nGY2/dEoOVIPaLR1oCojbi8e/oQUVo93o6jygPE71AqH3lP/3joq756nU9atB7ZZdqPWqwUT7DvjFXUSBHWhr70g9NgTFPaRM2zNXGfuh1O1ZarnXr6D9kJfc60BERPYwYJ9OohNIxCaQwDASsQgSBbn67CBFqV8NXB5gPDRVwUyxLYbHrf7X58XceBQxYQ9T8QF0q4FeP1qyCNrLvT2nC/YDEdFMwikxOSp1fpnVoHbLNizXgjdM4uqJNzAUDaKpvQZh7Stc4StdV+MutNTP051nFP020sSv48d7D6AvlL49VQ4t73rMTaYJ6YVmmp++DurV5oZo+lQMw7HGMortkqy7aX7Fq59/Qwca1dkkencHjuCj/mFxc0panYNoan8SsWQ5LfrWtH7W48U4JqzHIGBWJqv87LZnGb8eTI/TlSWLsZv2erCin7oE3fQb07Lo87Rql/Sy6NPSz6uW06tNm0uNE/+GDvhDumNNiHkp7LWZZVkAaf1o+nLe+zuVOztTYmb7Hqn6qbixENxuFxKJSXFz0ZR7fnJqcBLrRteHv8KVCz24cuEs7twDgCr4Gx5B/MI5xAFgzkpU187BHfX5w4vXInD/Y91x6n7SNOVNCr0HcOp0D66MzEft02tw/8I5xFEFf8NCjJ14HZ/09WBs9lo80bAYY0OXcf/eZYQujGFW9Sp82acemyxnZq7GXfj6xo1YMnsMoZtfiMnpTPNL1Q8A4HscKxbdw/Why7if3BhE07ebcF+rX3wl1j79OCbVY+/fPKu2Rw+uxJehMaimmeZnv37ZioeU/Ff4bqD76CFE5q+H50aGYB1mdf4qXNVPwBPrQTgq6VvT+qXa07JdMoxB8zJZ9Z+d9izz14PpcbqySMaudR1kalDb8pQurx5cCY0oSaZl0eogaxfZeBHqMDIfS7Q+uvcHPLxyNdy3UnmsDH4F4dPyeqTqfR3ehq/gSudB3JzfhlrfGEI36yRtJilLhvrR9OWs93eaCR48uI+HHnpY3GzAKTHlwLsKfvco+ks1hzVQg4r4AC5pV5KiFxGOL4HfZA5r4loId91eeMSEHCT630BX54HMAWm+xPqFenHVon4IDWNc3FZCLp8PiE0goU6RSERyaZthJGKAy1eTXndJ30pNZbvMkNeDKbEssrGbpYqA3WlTKrEsknYxjBfxOINhhEcAf3WN8jRQg4rR4czfEBj44PLqnor56dtMTNMT02T1IyLKEwP2cpDN3OUCcPl8gLseLckbF/VTDwTRiWm36kcqCNboAlqIN23qpzuUnsc7D3ejN9W57JOIRcQ97EgF+1n1rcgp7TKDXw8Zx25OhjF0/AiuelrU+tm4sdlOu1iMl/Q6GCX6P0OiahVc6r75zuNPzy/VZulpKRnrR0RUQAzYy0EkmuGqnXBFKU+JSMRw06L2sDd3U3kzdLJEJAJ4FiA1m0x39dq7Fa1BH66e0OrdLVxJLl39tDnsc+u3qQHPPCzf3IHWxmyDs1Swn3PfZmyXXMdgDu05g18P0rGbl2EMHVfq1T3gQ6MhaDevg7RdJOMlvQ6iXlwaCeCxQA38VRGEbbWzphd9ncZ7BNLzS7VZelqKtH5ERAXGgL0cqF/FNpqu9HETsfi81FfIhRAaxri7Ho/l8dVv1l+vF5MY3In1CwSx3D2qCwwyr2BTivqFTx3B1fikEvScGMBdNXjIdsqQsjzgZ0oQI9Y9K1btYnMMiv2gk1V7zuTXg1iWtLGbiyCatmxNBq2JayHcFfaAWR3EsqSxGC8Zj1OusiO4Dctj2U6HMSHmp28zMU1PlkZEVGC86TRHpc5P7gvcGRrDrIY2rG1ajxUNysMb70E4+gXu3JqP6mAr6hvWY0VtBb6KOG7qb0KbM5a6iUzHOm0E4QsP4N/8HTSqea2onq/cSIcq+Bv8+P0Vi5v8AMQj87HkySalPMlyGnMwk/VNpwCAR7Bg5SrMuWWRRzSBWdVPoV5tN6UsIwiPzEft099Sylg1G1dP/BKhe8pNdhOzN2Dtxo1qOwcwT9eeyFQ/71a0fvtbqE+2Vz7qsKxpLu70nUN88RrUizdtWvE9jhXLaxBQy7c4rv/BHVnfwro9pe0iH4OAVT8oSdL2NDUTXg8W/QDJ2JXWQearcK1sxRNaW9ZWINJ7EJd1+ZrXQdIu0vEiHGc2XjCC2Oxl+MOlDzPfpGtRb3dgPRbcG0Do5jlJm8nKIqmfPnOadpz1/k4zgZ2bTrmsY45KnR+VD/+GDjR6+KueRLkLomkD0FeqG4tpRuH7O5WanWUdOSWGqGSUX4RksE6UG1fjLvUGzxqEGawT0QzCK+w5KnV+REREVHx8f6dS4xV2IiIiIqJpjgE7EREREZGDMWAnIiIiInIwBuxERERERA7GgJ2IiIiIyMEYsBMRERERORgDdiIiIiIiB2PATkRERETkYAzYiYiIiIgcjL90mqNS5wcA8G5FawvQd/wi/Fs2A91vYCgq7lSmilb3IJraW1ChPR3tRleoBm3BJcrz+AC6j3+AhO4IkjFpz1x/Qj6wg/1AFgo4zpzMuxWtm70Y6nwPYTGt1JxUliKbkvd3mtHs/NLpbN8jVT8VNxaC2+1CIjEpbi6acs8PADBnJaoDQHhoHO6VtcD1s7hzT0usQe2W/4xlv+9BuCCBbCYlzk9a99z5N3wHNfFudH34K1y50IMroREgek75f3wZViy6h+tDl3FfPDAnJW4z1KB2y3YsuHUWd+ZsReu31+D+hXOIi7vpBXagbXMbVjSsVx7zHyhtYpNpe+YqYz9k356uxl34+saNqfqpjyWzxxC6+QX8GzqwPqhP+2PMGkmNNePxyzCZqT2BnMrpPM6qQ0HHWV6K3C5zVqK6dg7u2BpnReakshTZlLy/04z24MF9PPTQw+JmA06JmU6iE0jEJpDAMBKxCBLFeINwqqLUvQYuDzAeKsMrcwCAxfC41f/6vJgbjyIm7GEqPoDuzgPo6jyAfrSgbUNQ3MOC89sz0f8GujoPoKuzG+MYRb9az4/6h5P73B04ou5zAF2dqW9yXI270FIVSrZN9wDg8qbOTaXi/HFGRFRonBKTo1LnJ+XditbN9Zhr2DiJqye0YMP49fF47wH0hbT9alC7ZRuWa4Gd4TgLOebnatyFlvp5hqOAUfR3voew+BV3cnuRmNZByDOwA20N0fSpGIZjje0l1jHZ1qb52WjrHPk3dKBRnU2id3fgiCE4TZNW5yCa2p9ELEPfmtcv1Z6W7YIgmtprENba3exr97QyWeWXTXsK+ar8GzpQGzVrI7EdbMpYTvP2FNtLYfe1Yn5OmPSDrT6S1kHef+I5jWW1Lqcl07LozpnFazO93Szop2ZBN/3GtCyZ+xYmZTHUPe28ajm92rTA1OvAv6ED/pC83cS8FPbazLIsgLR+052j3t9pRuCUmCIqdX5S9y4jdGEMs6pX4cu+Azh1ugdXLmhf4yt/VNGrbh+Zj9qntakRarAe0321nDxOIsf8fr94LQL3P0bXh9fhbfgKrnQexM35baj1jSF00wV/w0KMnXgdn/T14Er8cazf/LjNKQepqQra1IaMTOsg5OV73GQqRhBN327Cfa1+8ZVY+3SqnPdvnlXbUZnK0RhU00zzs9HWOYqH1KkkvhvoPnoIkfnr4blhFogK0ur8Vbiqn4An1oNw1LpvzeuXak/LdkEV/A2PIK7ta/a1e1qZrPovm/YU8lW5A+ux4N5A+hgKtKLRdwsXz4vTcjKQltO6PXN/rVifMw7g4eR5tde7jT6S1kHef9b5yctpybQsunNKXpvWZZGpQW3LU7q8dNNvTMuSuW+lfyfEOozMxxKtPe/9AQ+vXA33rVQeK4NfQfi0vB6pepuNpTpJm0nKkqF+052j3t9pRuCUGAICNaiID+CSduUjehHh+BL4AwC8q+B3j6K/kDdryfIz8MmnE4R6cdX0OHPaVIeMAWm+xPrJyhkaxri4rYRcPh8Qm0BCnUKQiOTSNsNIxACXrya97pZ9m8EUt0smc+u3oa29Q3nYng6UA9vtmcVrxfY5Myh2HxWqnHriOWWvzSxVBLIcB2JZZPXTt7V4nMEwwiOAv7pGeRqoQcXocOZvCAyEsSTmJxtLemKarH5EVBAM2Mucy+cD3PVo0QKQdt30l2zmNdskzS8rukDRQVJBsEYoZ2BHKtgzTFsoPY93Hu5Gb6pz2ScRi4h72JEK9vPqWwe1SyaGOeyF/DAryKs9DVJjMK9zlrCP8iqnhYyvzZwMY+j4EVz1tKjl3AG/uIuJjPWzaOv0Ohgl+j9DomoVXOq++c7jT89PGEsWZclYPyIqOAbsZUP5QytKRCKGmwi1R18IQCSKu24vPOJBtuSQX1Iv+nQ385nL56pw8SQiEcCzAKmZZrpyereiNejD1RNavbuFq5TmbVYM2hx25WpxCyowD8s3d6C1MdvgJRXs2+tbExnbJcMVZEula0/ltRKAv4DltNee2b1W7J3TRMY+Mq+DIvv+y7mcEtLXZl6GMXRcKV/3gA+NhqDdvF2k9ZO0dXodRL24NBLAY4Ea+KsiCGfVXuljKT0/YSxZlEVaPyIqCgbsZSbtq9vQMMbd9XjM7KtK9WvMxjy+9s8qv2wEgljuHs3yDakIxA80Yv3Sypl5BZu0NiuC8KkjuBqfVIKCEwO4q765ZjtlyL+hBRWjnylv8mLds2LVLjcRi89Lfc1vRewHnVK0J6IfYGh0Hpa3bDUNYOxIK2de7amjH4N5ndOqj1LS6mC3/0R5ldOCeM6012YugmjakurzxLUQ7gp7wKxdxLKksWjrjMcpV9kR3IblsWynw5gQ87M7lmRpRFQUXCUmR6XOzxbhjn7jShy6r7gNP0IjrhKTxd3+WeaHxl1o8X5mmGaQWpVjsbDyRTYrfqRWQsi4CoqBUnfPeav6GtvGfNWMLFeisGwzXVpBfiRIt3qH2SorVqxWxEgy71v9WDJrT2m7SFeigHU/IP1Y22NX3z66rWar6+jHlJhuOz/Lcpq3Z36vFfNzJrR+EM6rkfYRJHWQ9J8sP1k55azHWcbXpmVZrNj4+2jVLpL6ydtaOE7sBwCuxh3wX3vP1t9Hs3obVkOStJm8LNb1m+4c+f5OZc3OKjEM2HNU6vzKXzC3ZfPKjH9DBxo95fPGR8XA18rMFkTTBqAvqw8elA2+v1Op2QnYOSWGTNSgdot2M5Hw0H09TIWktDmDdSIy42rcpf4drkGYwTrRjMMr7DkqdX5ERERUfHx/p1LjFXYiIiIiommOATsRERERkYMxYCciIiIicjAG7EREREREDsaAnYiIiIjIwRiwExERERE5GAN2IiIiIiIHY8BORERERORgDNiJiIiIiByMv3Sao1LnBwDwbkVrC9B3/CL8WzYD3W9gKCruNNWCaGp/ErETJSzbdGiXwA60BZco/48PoPv4B0iI+5SKk8pSao6sexBN7S2o0J6OdqMrVOPAclLRcXw6wpS8vzvGFLyHF5ojX0dy/KVTsqEGtVs60BQQt0N94XagbctWyIdRKcjKWQwFzi/0Hro6D6Crd1RMyUIQTe27UOsVt2cpY1kKXPd8BXagrT29PK7GXWhr71AfO+A3JquENstY91zHvJ02M+8//4YWVIx2K+XqPICuU702ypkrSTkDO6zrLUuTkuSXc1sXg6ycxcTxaSQpp2wM5ppWFDWo3aK2o3crWi3/NhWKpM1yHi/FICtngRVtfE4tBuzTSXQCidgEEhhGIhZBouiffnvR13kAXU7/dFrydpkKylUu18CJ6XvVIyc1qG1YgvHRUVQ06N90gnisPoJ+NYjoHvChcUPQcGRubVasMW9Vlhq4PMB4qFe/cWqE3kN/rB4tZm/usrScFautpwurMSFTrDazKksZjE9ZWlEshset/tfnxdx4FDFhj9Ip1nihqcApMTkqdX6ZuBp3oaV+XvL5eO8B9IWQ/EOc/DoTk7iqfdXl3YrWzfWYm0zTpfty/UopQ34tQJ/uXP4NHfCH1LLqv8aC+tXrqV55OW2/0WVBml8QTe01CHe+h3ByXy+GOt9DOK3uo+jX9tMEdqCtIWrSnsZjU/2n8G/oQCPU9tAEdqDV14uP+ocN+yXb01APk/YyK4u07rJxZnasvv6S+ln1u5bWEEX38Yvwb9kGz3ljuySZ1MW0zTQm+2f8GtWqnGn1Rlp7m5bF9DhhzJiVE+Kxxrws+8g0P3Fc1KB2yzb4R44YxlXmNBOy/CR/X8TyK2yOJZmc+88qvwyvd6v8VKZjQmPW7xyfGcZgrmnpcn1/92/oQKOuCzR3BzLna9kuaeNsBr2HZ3iPs24zlen4lL2Ha+lmr3dJ/QrAzpSY2b5Hqn4qbiwEt9uFRGJS3Fw05Z5fJvdvnsWVCz3KI74MjcHHMXnhHOKogr9hIcZOvI5P+nowNnstnmhYjLGhy7h/7zJCF8Ywq3oVvuw7gFOne3DlwlncuQcgei55rhWL7uH60GXcFzM1JcvvD3h45Wq4b6l5IIiVwa8gfPoc4qhBbctTunL04EpoRDmlrJw2uBp34esbN2LJ7DGEbn4hJqeT5lcFf8MjiF84hzgAzFmJ6to5uGPS1lfij2P9Zq0fVL7HTdpT+QOBXjWvkfmofXoN7mvHebfiySfvY+DDD1PnAQAEUN1QgYnkufTtGUTTt5twXztnfCXWPm2jLNK6y8aZkN/IfCxJtousfpJ+19LOH0Io+gXu3BLaRcdVvQGBWcMY0I61bDOVWd2lY15SzgxtZlkW0+OEupmVU2xroW8t+8g0P/F1pLRzdXCFSTvL0kzI8pO09cOL1yJw/2N0fXgd3oav4ErnQdyc34Za3xhCN+skY0km1/6TjV3Z612SHyRjQmPW75I2y71+krKYHjddx6csLV2u7+/xkNo/vhvoPnoIkfnr4bmROViHrF2k76mSNpOOFxlZfqV+D5e9x8naTGU6PmXv4bLXu6R+BfDgwX089NDD4mYDTokpR6FhjIvbVIlrIdx1e+ERE4rEmN8wwiOAv7pGSQzUoGJ02HAFuiIgTmvIX6L/DXR1HrD1R7OgQr24Gl8Cf6Y5e4EaVMQHcEn7FB+9iLD+OKuvVaMXEUYAfm3Oqb49xXPaLUs29ONMzE9PTBPrZ9HvrsbNWA79cR9gaHQJahvV8aMJ7EBLfQT9+isdVm2WJ7NyZlTosojtKetbyd8CSyb9YyutKHxw6edUi3XPsjxZ9182+Zn0g2V+hR4TKsv8ZApdFrHNTNolqZTjU5ZWQC6fD4hNIKFOJ0pEcnjfkbTLjHoPl73HiSRtZps4dk3GTEHrlyUG7OUioNyYpzz0X2cJohM2vxbLJKjczCK94S89v0T/Z0hUrYJL/cOWmhs5jKHjR3DV05L5nNPGMBIxwOUTAkyBy+cD3PVoSbbnNizX5kAa3gBEwxg6H8HyRuUPiD+wJNme6cfYK0tGFuMsPb8Uef2s+z3R/0ba3MvwKeGDV2AH2oJIm3okK09urMuZSaHLkn4+oW8t+qgcyMeSTG79l11++n6Q55feh/mS5ydT6LKkn2/mjE8A8Hjn4W70pjqXfRKxiLiHBbvtMqPew63f44As2swm+eu9GPXLDgP2cuDditagD1dPqHfxd3Zn8UlT+WOaPfVmls4D6BLnaUv14tJIAI8FauCviiBsuCI7jKHjupsIDS+IXMuZK1l+wlU/S/ausCQiEWWOYbI9lYc2by4RiQCeBeY3TIWGMb6kBn4E4fekrgykH2OvLAqLukvGWXp+KZnqJ+93Ce9WtJoE68hQntzJymnRZkUoS/r5dH0r6SOFdTmLI5/8etHXaZzjmnksyWTff9nlJ77GrPNL78NCsM7Pqn4oQlnSz+fk8VlY2hz2ufXb1AByHpZv7kCr+K2gKGO7yOTaZtPkPdziPS6/NjN/D8/8epfVr/gYsJeN/FZHkX7NU+Cv3xL9nwHBbVge03+1FUST7i7+xLUQ7ibTUqTlLIL0/G4iFp+X+kpQJhDEcveo8AfNpD1Dwxh31+Mxq69qI1Hcdeu+FjToxaUBH2q3PAnXyMXUlRDxnHbLopNed1iPMzE/u2k2+z1dDWpb6pHotXijkbaZSlL39DR75TRtMztlkRHLIrZnWt9a9JGOaTk13lXwm42VTGkS0vzE+smIdbctx/7LJj9DP2TIz86YkLVLWlqG/FRp9YPNssiIZRHbzCnjU5ZWIOFTR3A1PqkEkScGcFcN/uxNx8zcLjLSNhP7KE+lfQ+3eI8D7LVZWt0l7+Hi2DWwV79i4k2nOSp1flL3LmNi9gas3bgRKxrWY0VDAPMQx83kDSt+/P6KxU2TAOKR+VjyZBPqG9ZjRcN6eOM9CGsvgmgCs6qfQn2TSZqpzPkBI4jNXoY/XPpQd9PJV+Fa2Yon1HxW1FYg0nsQl3V5ScspkfVNpyrz/LSbl1qV7bUV+KqhrVegqlatQ9VsXD3xS4T0N9aYtucIwhcewL/5O2hU81pRPV+5yQdK/96fvxH1ix+Y3uRy/3eLUf1HwNC/fmRo4/DIfNQ+/S2lnLbLoiSZ1v2WbJyNIBxfhsZgW7L/Uu0iq1/mfjdXh2VNAVRUqceJYyJDm8nqbp6WuZymbZaxLI9gwcpVmHPLYiyblkXSt9K/BQrLcqr8a7+FBTd+jQsmrxXLNO9WtH77W6jXj1uVND+T+k18bS0Cc8YMbeUOrMeCewMI3TwnGUsyufafbOzKXu8Z8pOOCfN2kbUZx2ceaSZjN/f39zosa5qLO33nEF+8BvVpNzxakLZL5vdUaZuZ9lEq63SZ8yv1e7jpe5y0zVSmdZe9h8te75nrlw87N51yWccclTq/8hJE0wagr0DLITlHsIi/EKcuNVXAZaSKynQ5rVJzUps5qSzW/Bs60OgxXwJOlmYnvfzk+3p30phwUlmsycZYrmlm6Xx/z6Rc38OnDpd1LKJS51cOtCvdKxq+giviEmJlQbwyUUjKJ39v8Em4Ropx/nwF0dSuuypRFUf/0SO4I+5WUk5qMyeVxUJgB9YvvWEe1MjSUIPaLf8Z9XOsA6LiU8qwVrv6pX/YugKfi3xf704aE04qiwXZGMw1zWLs8v3dXPm/h08dXmEvolLnR0RERMXH93cqNTtX2HnTKRERERGRgzFgJyIiIiJyMAbsREREREQOxoCdiIiIiMjBGLATERERETkYA3YiIiIiIgdjwE5ERERE5GAM2ImIiIiIHIwBOxERERGRgzFgn3aCaGrvQJv22BAUdygP3q1obd8Bv7h9KjipLERERDTjMGCfZvwbWlAx2o2uzgPK41SvuEuJ1KB2SweaAuJ2IiIiIiokBuzTSg1cHmA8NFVBOhERERGV2qzqZeseiBsLobJyEcbGbombi6bc84N3K1o312OuYeMo+jvfQzgtfRJXT7yBoaiyl6txF1rq55kfJxPYgbbgktTz0W7lir5pWfR5BtHU3oIKNWW89wD6Qsr/xbLo09LPq5bTuxWtLUDf8Q+QUFP8GzrgD+mONSHmpbDXZpZlAaT1IyKi6a3k7+804335ZQKzZ7vEzQazfY9U/VTcWAhutwuJxKS4uWjKPT/cu4zQhTHMql6FL/sO4NTpHly5cA5xQAkgv92E+73q9vhKrH36cUyq6Q8vXovA/Y/R9eGvcOWC/jiZGtS2PKXLqwdXQiNKkmlZzuLOPSSDWWhlGZmP2qfX4L6a5/2bZ9Uy9OBKfBkag1o5hTqMzMeS2jm4c+Ec4vf+gIdXrob7ViqPlcGvIHxaXo9Uva/D2/AVXOk8iJvz21DrG0PoZp2kzSRlyVA/IiKa3kr+/k4z3oMH9/HQQw+Lmw04JaYcBGpQER/AJe0qb6gXV+NL4C/A/PKKQJY3tYpliV5E2KosoWGMa/8XjzMYRngE8FfXKE8DNagYHc78DYGBDy6v7qmYn77NxDQ9MU1WPyIiIqICYMBeBlw+HxCbSE4XAYaRiAEunxrg5mQYQ8eP4KqnRV2Rxt4qKS6fD3DXoyW5ks02LHfrdgjsSK1wo5tWkl4Ho0T/Z0hUrYJL3Tffefzp+aXaLD0tJWP9iIiIiAqMAXsZSEQigGcBUrOflJtTE5Fhw37ZG8bQcWU1mu4BHxoNQbsS4IoSkQgQH0C3toqN+ugLqfPCgz5cPaFt705eYU+vg6gXl0YCeCxQA39VBGGzq9+WetHXqZufbppfqs3S01Kk9SMiIiIqAgbs5SA0jHF3PR7TpmUEgljuHs0yqBUF0bRlazJoTVwL4a6wB8ymzIhlSRNBQhc4J2U8TrnKjuA2LI9lOx3GhJifvs3END1ZGhEREVERcJWYHJU6P0UNardsg+e8yRVdyYonrsZdaPF+luWa7Upe+ukeaauhCCuppNKNq6ggPoBudYWX9JVbrFdfMVvNxtW4A/5r7xmullsxq7d/Qwdqo0fwUf+wtM3kZbGuHxERTW9T8/5OM5mdVWIYsOeo1PkRlEB5A9CX1QcPIiIi+/j+TqVmJ2DnlBhyPFfjLvUGzxqEGawTERHRDMOAnRwv0f+GenOnjR97IiIiIiozDNiJiIiIiByMATsRERERkYMxYCciIiIicjAG7EREREREDsaAnYiIiIjIwRiwExERERE5GAN2IiIiIiIHY8BORERERORgDNiJiIiIiBxstu+Rqp+KGwvB7XYhkZgUNxdNuecHAPBuRes3VmJi6A+o3rIdC26dxZ174k5ZCOxA2+Y2rGhYjxXV8zE2dBn3xX1MBdHU/qdwjeSZ/1QrdHuKvFvR+u01uH/hHOJiWrnJeSwVQ77jM4im9u+gsWG9Up/5D3AFrQ6q3zSR85jIt/+I8jMl7+80oz14cB8PPfSwuNmAV9hnstB76Oo8gK7eUTFFFURTewfatmyFS0wqihrUbulAU0DcjikoSzHkWgcb7aI+zPcpgYxjqRhk7WJHEE3tu1DrNW71b2hBxWi3Up/OA+g61VvE+knqENiRw1gpHlfjruQ4a2vfAb+4gyhjm+X6esiVpK2LUBb/htTrUnmkjzVzsnLmKLAju74jIsdhwD6dRCeQiE0ggWEkYhEkouIOhdaLvs4D6Dr+ARJiUskVoSxl056TuHpCCS77QmIamQuiqb0FroETGDL0ew1cHmA81KvfODVC76E/Vo+WAgaRuXI17kJLVQjd6oeY7gHAZSv4lCnW6yEXxSnL3YEjqQ9+nW8IY62EtA9PJwZwV0wjomlhVvWydQ/EjYVQWbkIY2O3xM1FU+75ZVaD2i3bsNytPZ/E1RPKG4SrcRda6ucl9xzvFQK7wA60NUTRrX+zCuxAW3CJ8v/4gDFNDXYqks9TeUF7c9flB4yiv/M9hE3SkmXxbkXr5nrM1R2VPK9PVhbxWH1Z5OUsirR6qHWXties+w/i+XRpyTo+iZhQL/+GDtRGj+Cj/mHTbZb9ENiBVl9v2nH+kDZmjG1qaywBkuMy9JFVe6Zth+7YDOdU69SIbuXqucb0nKmxC0jqZzkGcxzzybIq48I/YuzL0jIfYxrL+mnM2kz6epD3n5ifU/++mL0GFZLjZOU0+VtueD20AH26shtftyrvVrRu9mJIP6YpjfPe36ncffllArNnyy/NcA57jkqdn5wa7MW60fXhr3DlQg+uXEjN/7x/86y6rQdX4svQGHwck/p51b7HsWLRPVzXzzGNnkvun5aGKvgbFmLsxOv4pK8HV+Irsfbp1DkfXrwWgfsf68qSysuyLPcuI3RhDLOqV+HLvgM4dVpXB2lZgmj6dhPu96rHGMpiLOfY7LV4omGx7bm0rsZd+PrGjVgyewyhm1+IySaEsozMx5LaObhz4Rzi0jpI+k/WLoDaF378/opxvq87sB4L7g0g9Lv1yXn6CxpWYdb14whHJf2AAKobKjCRLF8QK4NfQfj0OcTVQAO6+tU+LczRNxtL0uNkfSRpT2m7yM6pBC1PPnkfAx9+aLy3wPScwv0HVvWzHIOStjbNT5y3/QXu3JqP6uCK/O+F8G5F67e/hYXxHoRNAm9LgVY0+m7h4nnz141l/bQdzNpM+nooj78vyddg2t8OyXGycsrqfu8PeHjlariT9+HoX7c6c1aiWnsN6beTgbPe32km4Bz2mcK7Cn73KPr1VwuthIYxLm7LV6gXV+NL4M92zmUhyhKoQUV8AJe0q0iSsiSuhXDX7YVHTLCQ6H8DXZ0HTK6QWRDLYlc2/WdTLDqJud7FgM+Luck6TyIWEfcU+iF6EWEE4NemOwRqUDE6rFyNE+sXvYiwRVsbZHGcoY/E43KU1u8+L+bGo4gZd8udWE7JGMxpzEvaKyvRD/BR5xHEGoo4lzmX+mUia0+ZQpQli75NG2cA5tZvS80d3xDUpaSYHZe9YYRHAH91jfJU/7olorLAgL0cZApADDcc6b+KLZRhJGKAy6e+WcgUuCwunw+ITei+wpaUJarfr/DSy2JTpv7LQSISATwLUBvwYXzUB39gMTxu3Tx9y34YxtD5CJY3KsGFP7AkOZ/b5fMB7nq0JI/TT+GxltVxuj7KuT1FQr8X7Lyq9PMJY9CyrYtFvYHSNCgfxtBxbU71MPyFuFG56PWTvKZFBS5Lxr7VM/n7YpjDbvWB3OS4XCT6P0OiahVcarkdcR8GERUMA/ZyEIlaX6HxbkVr0Je8KbGrszv/q05plBv1EpEMV6IzlkV5M8yGFpimZn7ZLEsRpJfFJln/ATm1CyJR3IUXHk8E4f4QXA1PwqV9KMjUD6FhjC+pgR9B+D2pq4uJSESZ45u8ic7eja55HSdtzxzaxdZ5s5N+Pt0YzNTWOdZBTr2BsvMAutLmKisrkCgBbQ3CNvpBGZ+6b130MtavEGy+pjOWJfu2lvZt0WRfTkUvLo0E8FigBv6qCMKZ+pWIphUG7OVA/cq80eIrV8DGCiiygFGWBgCBIJa7R22+QWQuS0XAqh4mZQkNY9xdj8e0q4RZlaXAxLJYEeuQsf8U0nYRRSeQcC9BRWwY4ehFhDEPcw1XCmX90ItLAz7UbnkSrpGLqWNyrZ/d40Q2j8uqXZAhALUjU/3SxqCsrRXSOqhTpvIe096taG3fBs95q2DeQvQDDI3Ow/IWq9VqMtcvrc30ZGkwa0+ZzGWRtrVYlox9WzzSclpI9H8GBLdheYzTYYjKDW86zVGp85P7AneGxjCroQ1rm9Qfe2lYD2+8B+FblzExewPWbtyobg9gHuK4qb/pKJrArOqnUK8e69XflGaaVgV/wwpU1ap5VcUNK2k8vHgtAnPGcCU0ouWguJe5LPHIfCx5sgn1+jpIyzKC8Mh81D79LeWYqtm4euKXCCVvPtTfkFkFf8MjiNu84Sr7m05HEL7wAP7N6o/u1Fbgq7baWtJ/at2t20Wso+arcFWvwpdDv0I4+gV+P/ePUXHvc6UeNvrh/u8Wo/qPgKF//UjXVkL9zH4Qx7R+suPE8uv7aATh+DI0BtUf3zFpT/N2kZ1TGYf3529E/eIH6WMUj2DBylWYc8vixkyr+lmNQRttbV6HVJb+td/Cghu/xgVbY1Di3mWELljUK4N4qAeTld/C2qAwPvn3xXKcuQPrUVWzKtleKxrWq39LXNLjZOW0rHvSCGKzl+EPlz4U/h6oeNOpLc56f6eZwM5Np1zWMUelzo/InHzJvbJitjxgztSl9UaFpR0dxr+hA40ek6UGiUwF0bQB6LMa01zW0Ra+v1Op2VnWkQF7jkqdH5E5q/XNy4G4XrWwJnreHP5hp6AfUKicpdZnt3iN6Ne9t9qHkvj+TqXGgL2ISp0fERERFR/f36nU7ATsvOmUiIiIiMjBGLATERERETkYA3YiIiIiIgdjwJ4jzm8jIiIiolJgwE5ERERE5GAM2ImIiIiIHIwBOxERERGRgzFgJyIiIiJyMAbsREREREQOxoA9Z0E0tXegrb0Dbe074BeTiYiIiIgKgAF7znrR13kAXZ1HcDW+BP6AmE5ERERElD8G7EREREREDsaAnYiIiIjIwRiw520YiRjg8tWICUREREREeWPAXgDhU0cQrtqGti1b4RITiYiIiIjywIC9APwbtsE/cgRdxz9AQkwkIiIiIsoDA/YCSUSGxU1ERERERHljwJ63Grg84jYiIiIiosJgwF5M3q1obe/g3HYiIiIiyhkD9mKKfoChUXEjEREREZF9DNhzFkRTewfa2rdhOQZwKSSm16B2SwcaPQPo5s2oRERERJSjWdXL1j0QNxZCZeUijI3dEjcXTanzIyIiovLDeIJK7csvE5g9Wz55mlfYiYiIiIgcjAE7EREREZGDMWAnIiIiInIwBuxERERERA7GgJ2IiIiIyMEYsBMRERERORgDdiIiIiIiB2PATkRERETkYAzYiYiIiIgcjAF7Prxb0bplK1yoQe2WXaj1ijs4RNHKGURTewfa2jvQ1r4DfjGZiIiIiPLGgJ1yF6hBRXwA3Z0H0NX5HsJiOhERERHljQF7PqITSMQmkMAwErEIElFxB4eYLuUkIiIiojSzqpeteyBuLITKykUYG7slbi6aUueXUWAH2oJLUs9Hu9F1qhf+DR2ojR7BR/3DySTjtiCa2ltQoaaN9x5AX0jb0yrNuB0YRX8prngHdqCtIYru4x8gIaYRERFNQ46LJ6jsffllArNnu8TNBrzCXhQ1qG1YgvHeA+jqVB+neo276OaVuzxAIpIK1qEdd2IArqA2N1yWBgCTuHpCTesFGrOYU+5q3IW29g60NtaISVIunw+ITTBYJyIiIioiBuxFVBEIipsQi05irncx4PNirtsLDwBgErFIak74Je2KevQiwvEl8AcypIlCvbhqlWYi0f8GujoPGK76yyk3m7ZUhdAtfhAhIiIiooKa7Xuk6qfixkJwu11IJCbFzUVT6vzkvsCdoTHMamjD2qb1WNGwDJMXziEO4P6clVix9CHM+tpifBn/GtyIY87yubjTdw4Pqjcg8OgSBBrWY0XDeqxoWIX5DwOTIz2I+azTwtEq+Bv8+P2Vs7hzT8l/TuV6VM4aQ+jmF2LhCmAE4Qs9GJv7TbSs/AquhEbEHYiIiKYlZ8UTNBM8eHAfDz30sLjZgAF70XyBO0M9uHKhB2OzN2DtxpVq0B7AkoAXs+bcQ/jsLVSuqcPDv7+Fa0OXkZizEit8N9B99BAGLijHXrnQg3BUDfQt0gAxYK9BZcMqzLp+XE0vDqVMXzBgJyKisuG8eILKnZ2AnVNiiiKIpi1bod0+kLgWwl0tKTqBhHsJKmLDCEcvIox5mKvNAw8NY9xdj8fMprLI0kSBIJa7RxFO3qxaRJ4FyXoSERERUeHxCntRfBWula14okmdvlJbgUjvQVyOqmnVq/Dl0K8Qjn6B38/9Y1Tc+1ydujKC8IUH8G/+Dhq1qS/V8zE2dBn3pWlV8DesQFWtur1qNq6e+CVC98RymXM17sLXN27EktlZTqHxPY4Vi+7h+tBl3BfTiIiIpiFnxRM0E9i5ws5lHctCEE3tTyJ24g0MFXEKTBou60hERGVmZscTNBW4rCMVV6gXV1GPlvYOtGWxjCQRERER2ccr7EREREQqxhNUarzCTkREREQ0zTFgJyIiIiJyMAbsREREREQOxoA9R5WVi8RNREREREQFx4CdiIiIiMjBGLATERERETkYA3YiIiIiIgdjwE5ERERE5GAM2ImIiIiIHIy/dJqjUucHAPBuRWsL0Hf8IvxbNgPdb2AoKu40jRWtfkE0tbegQns62o2uUA3agkuU5/EBdB//AAndESRj0p6neo272BXYwX7IWQH7gVK8W9G62YuhzvcQFtNoRpiS93ea0fhLp+RANajd0oGmgLi9ePwbWlAx2o2uzgPK41QvEHpP+X/vqLh7nkpdvxrUbtmFWq8aaLTvgF/cRRTYgbb2jtRjQ1DcQ8q0PXOVsR9K3Z6llnv9CtoPRETkaAzYp5PoBBKxCSQwjEQsgkRBrj47SFHqVwOXBxgPlWswsxget/pfnxdz41HEhD1MxQfQrQZ6/WjJImgv9/acLtgPREQzCafE5KjU+WVWg9ot27BcC94wiasn3sBQNIim9hqEta93ha97XY270FI/T3eeUfTbSBO/jh/vPYC+UPr2VDm0vOsxN5kmpBeaaX76OqhXmxui6VMxDMcayyi2S7LupvkVr37+DR1oVGeT6N0dOIKP+ofFzSlpdQ6iqf1JxJLltOhb0/pZjxfjmLAeg4BZmazys9ueZfx6MD1OV5Ysxm7a68GKfuoSUtNv/Bs6UBs1jjfjNqt2gSRNbDN7ZUyvG2y3S3qb2ulbKlfOe3+ncmdnSsxs3yNVPxU3FoLb7UIiMSluLppyz09ODU5i3ej68Fe4cqEHVy6cxZ17AFAFf8MjiF84hzgAzFmJ6to5uKM+f3jxWgTuf6w7Tt1Pmqa8gaH3AE6d7sGVkfmofXoN7l84hziq4G9YiLETr+OTvh6MzV6LJxoWY2zoMu7fu4zQhTHMql6FL/vUY5PlzMzVuAtf37gRS2aPIXTzCzE5nWl+qfoBAHyPY8Wie7g+dBn3kxuDaPp2E+5r9YuvxNqnH8ekeuz9m2fV9ujBlfgyNAbVNNP87NcvW/GQkv8K3w10Hz2EyPz18NzIEKzDrM5fhav6CXhiPQhHJX1rWr9Ue1q2S4YxaF4mq/6z055l/nowPU5XFsnYta6DTA1qW57S5dWDK6ERAIA7sB4L7g0g9Lv1aP3GSkwM/QELGlZh1vXj8rGURZtdiT+O9ZtTdbCSqtt1eBu+giudB3FzfhtqfWMI3ayTtIvQZiPzsSQ5JmTlpHLlrPd3mgkePLiPhx56WNxswCkx5cC7Cn73KPpLNYc1UIOK+AAuaVeZohcRji+B32QebuJaCHfdXnjEhBwk+t9AV+eBzAFpvsT6hXpx1aJ+CA1jXNxWQi6fD4hNIKFOkUhEcmmbYSRigMtXk153Sd9KTWW7zJDXgymxLLKxm6WKQPq0qVh0EnO9i5XpWMl6TSIWMSmLvl1kaaKc6uCDy6t7KuanP6eYpiemycpJRFREDNjLQTZzlwvA5fMB7nq0JG9c1E89EEQnpt2qH6kgWKMLaCHetKn/6r70PN55uBu9qc5lVwOlrKWC/az6VuSUdpnBr4eMYzcnwxg6fgRXPS1q/VI3NiciEcCzALUBH8ZHffAHFsPjVu4/kbWLLC1d/nWQtUt6Wkp25SQiKh4G7OUgEs1w1U642pSnRCRiuGlRe9ib16m8UTqZFoSkZpPprl57t6I16MPVE1q9u4UryaWrnzaHfW79NjVAnoflmzvQ2phtYJMK9nPu24ztkusYzKE9Z/DrQTp28zKMoeNKvboHfGjUgvZIFHfhhccTQbg/BFfDk3CpH5Zk7SJLS5dtHXrR12m8D0DWLulpKdmVk4ioeBiwlwP1a9pG05U+biIWnwd/dbZBnERoGOPuejyWx9fCZl+vTxkxuBPrFwhiuXsU4eSbdOYVbEpRv/CpI7gan1SC5BMDuKsGFtlOGVKWB/xMCXDEumfFql1sjkGxH3Syas+Z/HoQy5I2dnMRRNOWrcmANnEthLtaUnQCCfcSVMSGEY5eRBjzMFe7Wi2WRU+WJipEHcT89OcU0/RkaUREJcSbTnNU6vzkvsCdoTHMamjD2qb1WNGgPLzxHoSjX+DOrfmoDraivmE9VtRW4KuI46b+JrQ5Y8mbyPSs00YQvvAA/s3fQaOa14rq+cqNdKiCv8GP31+xuMkPQDwyH0uebFLKkyynMQczWd90CgB4BAtWrsKcWxZ5RBOYVf0U6tV2U8oygvDIfNQ+/S2ljFWzcfXELxG6p9zwNzF7A9Zu3Ki2cwDzdO2JTPXzbkXrt7+F+mR75aMOy5rm4k7fOcQXr0G9eNOmFd/jWLG8BgG1fIvj+h/ckfUtrNtT2i7yMQhY9YOSJG1PUzPh9WDRD5CMXWkdZL4K18pWPKG1ZW0FIr0HcTmqplWvwpdDv0I4+gV+P/ePUXHvc/X1KWsXWVoV/A0rUFWrbhfqYMWsbsmbYm+ek7SLUBbDmJCVk8qVs97faSawc9Mpl3XMUanzo/Lh39CBRg9/1ZPInLjMKFFp8f2dSs3Oso6cEkNUMsqvWjJYJyIiomzwCnuOSp0fERERFR/f36nUeIWdiIiIiGiaY8BORERERORgDNiJiIiIiByMATsRERERkYMxYCciIiIicjAG7EREREREDsaAnYiIiIjIwRiwExERERE5GAN2IiIiIiIH4y+d5qjU+QEAvFvR2gL0Hb8I/5bNQPcbGIqKO5WpotU9iKb2FlRoT0e70RWqQVtwifI8PoDu4x8goTuCZEza81SvcRe7AjvYD2ShgOOMUrxb0brZi6HO9xAW02aQKXl/pxnNzi+dzvY9UvVTcWMhuN0uJBKT4uaiKff8AABzVqI6AISHxuFeWQtcP4s797TEGtRu+c9Y9vsehAsSyGZS4vykdc+df8N3UBPvRteHv8KVCz24EhoBoueU/8eXYcWie7g+dBn3xQNzUuI2Qw1qt2zHgltncWfOVrR+ew3uXziHuLibXmAH2ja3YUXDeuUx/4HSJjaZtmeuMvZD9u3patyFr2/cmKqf+lgyewyhm1/Av6ED64P6tD/GrJHUWDMevwyTmdoTyKmczuOsOhR0nFHKnJWorp2DO7bGdfmakvd3mtEePLiPhx56WNxswCkx00l0AonYBBIYRiIWQcIBb5wlU5S618DlAcZD5XplbjE8bvW/Pi/mxqOICXuYig+gu/MAujoPoB8taNsQFPew4Pz2TPS/ga7OA+jq7MY4RtGv1vOj/uHkPncHjqj7HEBXZ+qbHFfjLrRUhZJt0z0AuLypc1OpOH+cEREVGqfE5KjU+Ul5t6J1cz3mGjZO4uoJLdgwfn083nsAfSFtvxrUbtmG5VpgZzjOQo75uRp3oaV+nuEoYBT9ne8hLH7FndxeJKZ1EPIM7EBbQzR9KobhWGN7iXVMtrVpfjbaOkf+DR1oVGeT6N0dOGIITtOk1TmIpvYnEcvQt+b1S7WnZbsgiKb2GoS1djf7Sj6tTFb5ZdOeQr4q/4YO1EbN2khsB5syltO8PcX2Uth9rZifEyb9YKuPpHWQ9594TmNZrctpybQsunNm8dpMbzcL+qlZSE2/MRsrxm2y+lmlZepbc+l1g+12SW/TPPuoDDjq/Z1mBE6JKaJS5yd17zJCF8Ywq3oVvuw7gFOne3DlgvY1vvIHF73q9pH5qH1amxqhBusx3VfLyeMkcszv94vXInD/Y3R9eB3ehq/gSudB3JzfhlrfGEI3XfA3LMTYidfxSV8PrsQfx/rNj9uccpCaqqBNbcjItA5CXr7HTaZiBNH07Sbc1+oXX4m1T6fKef/mWbUdlakcjUE1zTQ/G22do3hInUriu4Huo4cQmb8enhtmgaggrc5fhav6CXhiPQhHrfvWvH6p9rRsF1TB3/AI4tq+Zl/Jp5XJqv+yaU8hX5U7sB4L7g2kj6FAKxp9t3DxvDgtJwNpOa3bM/fXivU54wAeTp5Xe73b6CNpHeT9Z52fvJyWTMuiO6fktWldFpka1LY8pcsrNf0mOVZ+tx6t31iJiaE/YEHDKsy6flz+WpHWvUrSt9ZSdTMbL3WSdhHabGQ+liT7T1bO8uao93eaETglhoBADSriA7ikXRWJXkQ4vgT+AADvKvjdo+gv5M1asvwMfPLpBKFeXDU9zpw21SFjQJovsX6ycoaGMS5uKyGXzwfEJpBQpxAkIrm0zTASMcDlq0mvu2XfZjDF7ZLJ3PptaGvvUB62pwPlwHZ7ZvFasX3ODIrdR4Uqp554TtlrM0sVgfRxEItOYq53sTLdzO2FBwAwiVjEpCz6+snSRDnVQRgvYn6y8aInpsnKSURFx4C9zLl8PsBdjxYtAGnXTX/JZl6zTdL8sqILFB0kFQRrhHIGdqSCPcNX26Xn8c7D3ehNdS67GkhkLRXs59W3DmqXTAxz2Av5YVaQV3sapMZgXucsYR/lVU4LGV+bORnG0PEjuOppUcu5A341JRGJAJ4FqA34MD7qgz+wGB63cn+NrH6ytHT510HWLulpKdmVk4iKjQF72VD+CIsSkYjhJkLt0RcCEInibvLKULZyyC+pF326m/nM5XNVuHi0N+nUTDNdOb1b0Rr04eoJrd7dwlVK8zYrBm0Ou3K1uAUVmIflmzvQ2pjtG38q2LfXtyYytkuGK8iWSteeymslAH8By2mvPbN7rdg7p4mMfWReB0X2/ZdzOSWkr828DGPouFK+7gEfGrWgPRLFXXjh8UQQ7g/B1fAkXOoFEFn9ZGnpsq1D+niRtUt6Wkp25SSiYmPAXmbSvroNDWPcXY/HzL7GVL/ibMzja/+s8stGIIjl7lGEp/rNQfxAI9YvrZyZV7BJa7MiCJ86gqvxSSUAOzGAu+obb7ZThvwbWlAx+pkSAIh1z4pVu9xELD4P/uoMHyTEftApRXsi+gGGRudhectW0+DGjrRy5tWeOvoxmNc5rfooJa0OdvtPlFc5LYjnTHtt5iKIpi2pPk9cC+GulhSdQMK9BBWxYYSjFxHGPMzVrlaLZdGTpYkKUQcxP7vjRZZGRCXHVWJyVOr8bBHu9rdcecDwIzTiKjFZrASQZX5o3IUW72eGaQapVRUWC6sjZLPiR2qVhIyroBgodfect6qvsW3MV83IciUKyzbTpRXkR4KCqdU7zFZZsWKxIkaKed/qx5JZe0rbRbpKBaz7AenH2h67+vbRbTVbXUc/psR02/lZltO8PfN7rZifM6H1g3BejbSPIKmDpP9k+cnKKWc9zjK+Ni3LYkX299FYDlfjLjThhO7vj6x+VmnC9rS+NWdWN8OKNZJ2SSuLZJUY+300vTny/Z3Kmp1VYhiw56jU+ZW/YG7L5pUZ/4YONHpmxpsi5YqvlfLFvnUCvr9TqdkJ2DklhkzUoHaLdqOR8NB9PUyFpLQ5g3UiIiIS8Qp7jkqdHxERERUf39+p1HiFnYiIiIhommPATkRERETkYAzYiYiIiIgcjAE7EREREZGDMWAnIiIiInIwBuxERERERA7GgJ2IiIiIyMEYsBMRERERORgDdiIiIiIiB+Mvneao1PkBALxb0doC9B2/CP+WzUD3GxiKijtRUQV2oC24RPl/fADdxz9AQp/OPiLvVrRu9mKo8z2ExbQZKYim9hZUaE9Hu9F1qte4i12ZXn/kbHn3XwHHksSUvL9PJf7NmnL8pVNyoCCa2jvQtmUr5ENTVPP/b+/uetrI7j+Af7NsEhE/hZQlg5CJweySOqRYy9biQUn7l4hAykpcUPEOcs1b6Fvgpjcr7U3Vm0ishHrTBFSpFxs2qF3xV6EEJQRrHYIhiMRPsCyN0osZ2+MzM8fjwXbG5vuRkMIcz8xvzjlz/MvMnAHhiVlEg+LyOks8xNL8HJZWdsWSGqplncUQnX6AsF9cbsVpLGQqOFPnugwhPKG1t38SY9MzUMSPiIIzGJ+eLf6MxsRPSCmjI2jfXVbPm/m5syVYZc8/O32+kTk9/1xSL2XbT66qfYmowTBhbyTpQ+Qyh8ghjlwmhVxDXrldwer8HJYqvrLSIGrSRrWqM/VqlWdzsYK7ALWK5ZxKPMRaph8jFSdgTnXA59X+GfCjNZtGRviEqewmlrUkaQ0jFSTtIXh8wEGCiVV1nOfzj32Jzjc+EuNQvfdXlv5WI4q3CpXRWYTTC/h+LV4oKl1WeovxYGUOq4n8J63KhNuS2MWanVtp0tuh4jaPsL2oPU7in8TYvX60FsqEcss4Ac/AA4z0X9Gtp8UanMFYYMVQL0pCXVdcr7RetGOJpB3c0q1QzepMPd4BlN5SFo9bVawz61igXcWbQk8+IdTtz7hdXZ8pibU0RimLPq+y7hOyOK1jkdQ1xPVQenzSOFGIR9kpPU+rTRmdxYAujLzjzTL7NfT1GKLTg8hY1E2hrg11gpJ6EftE6fgSQrKkfwi36w0xWe3PZn+yaCOOnxbnbb3HT9NjsDeGiLHYqe/r1z/D3qX/c32fMB4bbNeLsU71+7SKk2rFziMxLYGrXX8UF1aD1+tBLnckLq6ZZt+fXAjhka/wfnUOT354ipcbT/EysQMA8AaHce1kE4mfhzH2+z4cbv0X1yI3ceHVIyTT6kmJFW29nTaE736J0411ZLUT1rysC0rkV9hb/BP+tfoUL7O3MHzvFo421pEVQ9NLr6uxZW+g97MTvNp6gdNCYek291qGcDvSgb2tFzg9eYHExh4udN/UHeOPeHuCwsBiHidwqWMIwdN/Yunxd+q+CzEG0R1px2Ehhhj6Yp8i+YNafrr/o/Z5Nd6BmHB8gVsmx1CeZ+ABfnfnDjpb9pDYfycWG9WkztTBenDwFJuPH5e0WbG+XsEf+RQv57/Ffts4woE9JF58L4lFS4Izy7q6Lu7Puh1iiH4dxWm+/bJ9GLproy9J+ry8T8jilMUiqWtxvZ02dIYv421+f5Zx5r3D2zdt6I71FvptLWQTWtsFXmP5r39Bqm0YvtdlknWY9fWL8HTfhi/zVD6GmPbB4vFZn2NdUCJXkc1/9nIfugv1aRUTANP96fq8Jes24vhpdd7Wefw0PYb89mTnrewYrHm9n0O5fdv1fUI6Xu9/IakX2Zgli5Nq5cOHU3zyySVxcQk+EtNE2oPG29SZ9BFa/R3q7W+vHz4AwBEyKQDBENqzm3ie/59z+hmS2U4owTJlosQKtq3KHMr9lMBxIV6JSuLUSz9DEkEo+We3gyG078bNr2gk4jgQlzmUW/sGS/Nz5ZMkB2zXGew+DhGAx+6z7f6bULy7WKv0mVKx/SrsS2Z93rBNfZ+QxSmuJ4mlpK7F9UyYxqlnt9+ekScQADKHyGmPF+RSTvphHLkM4AmEjMfu9DiqeI45ZdZGHD8tfKTx05R4DFWsz8bqE8J4Le5Pv02xTE8sk8VJdcWEvSnEsfVoAdu+EW1iWHEiWS6VAnzXEA4GcLAbgBLsgM+rPlvtCQQAbz9GChPKio8JyMqMdF/g1ZI+tHWrtLI49eLY+k8KPQPqgKwEO0ufjSyZaKe/VeliNusMJYlbldj6D4CRMQ6xL8XUSXZCv5b1eWmfkMRZPhYdXV0b19OzjvNj8Pmv4Di9rz3LriUZFSsm+9K6Lsc155h1G3H8tOKe8dN4/lWjPl83fJ+Q1YuxrKiyOKmemLA3jTi2HqmTwpY3AxjIDzCpNI7hh8+XQnItAU9kEB4tYcmlUiWTyfI/qwl5mdFZrtbZpQ42osriFCTiOOgMQUEMik93RcE/ibFYANuL+e0t1/YKUc2Y1xl0XzrWT8ytYHXexrO/eam0vSt6AmMcYl/SJtnNz2HJ8EyneZ+X9glJnOVjMWdcT2QeZ73ln2Fv7Z/Skqgr6Lk3i7GBSpOCYrIvrWuZsudYBXd3Slj3eTmLNuL4ac0l46fx/KtWfTZSnzCO17J6MZYVVRYn1RMT9qYQQ1T3loncTwkc54vSh8h5O9GeiSOZfoYkrqA1/z/rRBwH3n58bnarS1YmCsbQ491FspIT2iJpKsdwi7KSOA1W8HwzgPDEIDw7z4SrDTbe8OLwGBxzuD9DnSGfuOpuaVdKjEW7bTpg++0hGrH9bPclSZ8Xt6kni1Ncz24s4nolJHHqaY/qlN3XGSSfLGA7e6QmUoubONa+lCt9PEt9td7/q8mB9NjLsTrH9pHJXoHSXeY/EmIf1DHt85YkbcTxU8Il46d4DE7q0+BW4/UJkbg//TbFMj1ZGX1UnHTqUL33J3cRnr4x3I4OozcyjN5wO1Ir3+JFWivrvon3W98hmX6HX1p/g/aTf2sTHneQ3PgA5d4fMBDR1u1u0ybSycq6oER60RXWlne1YHvxz0iUndylSedwofsr9Gvx+rNPkUx3QYko+OVlfjKUMPEMQDbVhs7BKPq1eNT1ZHFqk3Iu75lM9FOd/tyB7l8DW//4vjih5uQFDltGMXTnjrq9SBBXkMW+ftKN6TEUNmup4kmneab7c1pn6jGett1Bf8eHkroxq6/CJKt8vKaxvMPbrT1ciIxjKN8Pdfsz265qB8mdNoTv3ldjtN2XZH1e1idkccpikdW1sL9wOy4W+ossziJl6D6uvf47NsQ+4Z/E2Nf30a/r0859gRvRVrxdXUe240v02530F7iF3p4QglpddWT1b7mR1TUAXMW1vpu4/EY4P6TnWH4S7pjaDiX1qTHtg2qRZZ+3JGsjjp/m562qvuOnRV8qM4aUOwYzXm8AUL5yfZ8wO7bieL0uqRfZmCWLk2rFzqRTvtbRoXrvz11iwmvdqDFpr+4yvGaQ6kkZncWAT3xNn/1yajQcP92u/t/v7BPnnZ3XOvKRGKoi9a/pFScb6X7q9odhyL4VrM4v46BzsIK/dEpVFZyRJOPq+WRdTkRE5wWvsDtU7/0RERFR7fH7neqNV9iJiIiIiBocE3YiIiIiIhdjwk5ERERE5GJM2ImIiIiIXIwJOxERERGRizFhJyIiIiJyMSbsREREREQuxoSdiIiIiMjFmLATEREREbkY/9KpQ/XeHwDAP4mxEWD10TMoE/eA5W+wlRY/VAfBGYzHOtV/Zz/2n02PITo9iMyig7qodn26ql7yYohOj6A9/+vuMpYSIRfGSZUzadsnK6Uf+ZhcdT6cYZwoy+Xt0Kj8kxi758fW/EMkxbIa+yjf73Su8S+dUm0kHmJpfg5LK7tiSQ2FEJ6YRTQoLneRsvUSQ3R6FuMTk5CfliI7xx5DdPoBwv7SpcroCNp3l9W45ufURKJsnE5J4gzOODjuswghPKHVh38SY9MzUMSPmFBGZzE2EBIXa2rZfpUzbVs3qVk/k6lNXcu4vh3Og+AMxqdntR975zpRo2HC3kjSh8hlDpFDHLlMCrmqXyk6Z+penytYnZ/DUtWvNKpX+Dybi8LVwxA8PuAg4YIEIvEQa5l+jFSc7DrVAZ9X+2fAj9ZsGhnhE5WrVfs54aK2PdfYDq6Q/8/h4iaOxTKiJsFHYhyq9/5klNFZhNML+H4tbrrMM/AAI/1XCmUHK3NYTahXJcYCK4b1lIRWLtzqLayXF5zBeCRtcqvbaj3h1jGOsK2/Re2fxNi9frQWynexNv8QScNy6NYts039bXnU6Xa1Wb2UezzAKk7psau/KaOzGIBwXKbrafWZ/9UsTojrlu7Lsi+Z7k9oC4QQnpiCslPaV6tNGZ3FgK4q8443y+/X7FwCatt+lqzawXSbQtuaMDs2jhPar1btJ2O6P107WLWfyXlkp/0A6zjLta1Yp6VtZFUm1pm9GI3HBtv1YqxT/T6t4tTxV+cxGjd9v9P5YOeRmJbA1a4/igurwev1IJc7EhfXTLPvT8YbHMa1k00kfh7G2O/7cLj1X1yL3MSFV4+QTAOn+z/i5cZT9Sd7AwOxWzjaWEcWQXRH2nG49QKnAIAY+mKfIvnDOrLa4IiVOTz54Sle7rQhfPdLnG6sI5vfceAWej87wavC+uo2rNfrghL5FfYW/4R/rT7FXssQbkc6sLf1AqeIIfp1FKe69TrDl/F2Yx3ZkxdIbOzhQvdNvF/Vyjd+xNsTANJthhAe+Uq3zlO8TOwUIi3HM/AAv7tzB50te0jsvxOLrZnVS3q9UP+GMlmc0mNXv6AGB0+x+fhxsV0s19O1HSziFNsh24ehu/n+IulLpvvTxQkAeIe3b9rQHest7UdVlk1o9Rx4jeW//gWptmH4Xpsk4SYK55LY3rVqP0uSdjDdZvn65DhhtU1J+8mY7i9/3JL2A3CpYwjB039i6fF3Wp2Xbz9ZP5O3rayuZWWldfYyewvD94rHYKV4bK/gj3yKl/PfYr9tHOHAHhL7X0jqRdK20jh1Lvehu7COc276fqfz4cOHU3zyySVxcQk+EtMEMukjtPo71Fv/Xj98AIAjZFLiJwEk4jjI/zv9DEkEoeSfew6G0L4bV69MBENoz27ief4KRvoZktlOKOWeDa1gvdxPCRzn4xXXc6hkm5r2YEz3m325tW+wND9nK9GrBkdxVu1xD43YDokVbFu0X0lfskvSH6rJEwgAmUPktEcWcqnat6Gj9rNSSTvYxHGiqJrjhCkxziq0X55ZnNK2FWPR17WsTOToGALw6OfViPvTb1Ms0xPLZHESNSkm7E0gl0oBvmsIBwM42A1ACXbA59U9k10yIUd/izOOrf+k0DOgfgEowc7Cs5ieQADw9mOksN4UevLPBEtUtF76sHCLvJhgnZFum0AcW48WsO0bcflkJOdxVq3eNMbtxZHLAJ6ANhHTsi+5i89/Bcfpfe1ZdouktGqct5+Vsu3gAMcJnRqPE8Y4z95+sjhlbSura1mZ0dmPQVYvxrKiyuIkak5M2JtBKo1j+OHzpZBcS8ATGYQnf9XVP4mxWADbi9obDOaXS6+KJuI46AxBQQyKr3gFI5dKqc/q5t98oP0YnhkUnGk93zXJhER1YK9cHFuP1BiWNwMYqMKXcW3I4rQ+9vL1Vhnj9nRXqMv1JUmc9ZR/hr21f0pLPK+g557s7S/V4Kz9rEjbwSmOExKy9qucMc4qtB9gHaekbWV1LSszqvQYVrA6XzpXQ1YvxrKiyuIkak5M2JtB+hA5byfaM3Ek08+QxBW0llypkL0BZQXPNwMITwzCs/OsuE4ijgNvPz4vd8tRuK1sez2RzfXMbgdbiyGqeytJ7qdE/d4gINaLnqHMXpymx55K49ire1yhUmIsYjsEY+jx7iJZ+GKU9SWVaZx5/ptQSrZXfcknC9jOHqnJ5+ImjrUv+qo92iTW2Vnaz0rZdnCA44QFe+1XETHOarSfLE5Z24qx6MnKRNU4BnF/+m2KZXqyMqJzgpNOHar3/uQuwtN9E++3vkMy/Q6/tP4G7Sf/VifOnbzAYcsohu7cQW9kGL2RIK4gi33dpJzTnzvQ/Wtg6x/f6ybq7CC58QHKvT9gIDKsrtvdpk3S0qRzuND9Ffqjark/+xTJtGy9LigRBb+81E8Eu4rsxjqy2EEyewMDsXF1nXA7LgpxZlNt6ByMol/brro/2TYvwtM3httafL3hdqRWvsULy6SklONJp6b1IisrH6f5sasT307b7qC/44PJRLmruNZ3E5ff6PavZxrLDpI7bQjfva/uq6sF24t/RuJE3Ve5vmQZp0YZuo9rr/+ODbE+/ZMY+/o++sU+5sgXuBFtxdvVdWQ7vkS/YcKjNW9wGF2hm9rxqT8l7W9aZ2doP0uSdgDKt60pjhPm2yzfftas2kHefpc6hhC8vGdyzsrI4pS0rbSNZGVdUCK96Apryw190JzZsRUnc69L6kWIpaRtZXHqcNIpNSg7k075WkeH6r2/c8fyVXBkpL3uzM6r6D4iZXQWAz6TVyLaLCcy4DhRQ7Ea/nXYGuFrHalB2XmtIxN2h+q9v+bn7J2/lOfyL1dpYqW+n70HTNapHI4T9ePyMUWv5P30Z+8T/H6nemPCXkP13h8RERHVHr/fqd7sJOycdEpERERE5GJM2ImIiIiIXIwJOxERERGRizFhd4jPtxERERFRPTBhJyIiIiJyMSbsREREREQuxoSdiIiIiMjFmLATEREREbkYE3YiIiIiIhdjwu5YDNHpWYxPz2J8egaKWExEREREVAVM2B1bwer8HJbmF7Cd7YQSFMuJiIiIiM6OCTsRERERkYsxYSciIiIicjEm7GcWRy4DeAIhsYCIiIiI6MyYsFdB8skCkl1TGJ+YhEcsJCIiIiI6AybsVaCMTkHZWcDSo78hJxYSEREREZ0BE/YqyaXi4iIiIiIiojNjwn5mIXh84jIiIiIioupgwk5ERERE5GJM2ImIiIiIXIwJu2MxRKdnMT49hR5s4nlCLCciIiIiOrsL3Td++0FcWA3Xr3+Gvb034uKaqff+iIiIqPkwn6B6e/8+h5YW+YvBeYWdiIiIiMjFmLATEREREbkYE3YiIiIiIhdrmoSdz5sRERERUTNqmoSdiIiIiKgZMWEnIiIiInIxJuxERERERC7GhJ2IiIiIyMWYsBMRERERuVgTJewxRKdnMT49i/HpGShiMRERERFRA2qihH0Fq/NzWJpfwHa2E0pQLCciIiIiajxNlLATERERETUfJuxERERERC7WhAl7HLkM4AmExAIiIiIioobThAk7kHyygGTXFMYnJuERC4mIiIiIGkhTJuzK6BSUnQUsPfobcmIhEREREVEDacqEHQByqbi4iIiIiIio4TRhwh6CxycuIyIiIiJqTE2YsBMRERERNQ8m7ERERERELtZECXsM0elZjE9PoQebeJ4Qy4mIiIiIGs+F7hu//SAurIbr1z/D3t4bcTERERGRazF/oXp7/z6Hlhb5i8ib6Ao7EREREVHzYcJORERERORiTNiJiIiIiFyMCTsRERERkYsxYSciIiIicjEm7ERERERELsaEnYiIiIjIxZiwExERERG5GBN2IiIiIiIXa66E3T+JsYlJeBBCeOIBwv4qlBERERERfUTNlbATERERETWZ/wFK1hqpXoQonQAAAABJRU5ErkJggg==;" parent="1" vertex="1">
                    <mxGeometry x="600" y="370" width="748" height="703" as="geometry"/>
                </mxCell>
            </root>
        </mxGraphModel>
    </diagram>
</mxfile>